<svg width="111" height="86" viewBox="0 0 111 86" fill="none" xmlns="http://www.w3.org/2000/svg">
<g clip-path="url(#clip0_929_4058)">
<g clip-path="url(#clip1_929_4058)">
<g clip-path="url(#clip2_929_4058)">
<path d="M5.41897 83.8551C3.898 82.957 2.63427 81.6818 1.74978 80.1529C0.859736 78.6316 0.390625 76.9009 0.390625 75.1385C0.390625 73.376 0.859736 71.6453 1.74978 70.1241C2.63769 68.6027 3.90101 67.3345 5.41897 66.4407C6.72603 65.6545 8.20136 65.1904 9.72315 65.0868C11.2449 64.9832 12.7696 65.2431 14.1711 65.8449C15.3728 66.3598 16.4619 67.1051 17.3769 68.0389L15.8733 69.5708C15.1649 68.8053 14.3115 68.1881 13.3626 67.7552C12.2748 67.2598 11.0816 67.0408 9.88883 67.1175C8.69607 67.1942 7.54073 67.5643 6.5254 68.1949C5.34458 68.9216 4.36824 69.937 3.6884 71.1454C2.99252 72.3611 2.62644 73.7376 2.62644 75.1385C2.62644 76.5393 2.99252 77.9158 3.6884 79.1315C4.37367 80.3359 5.34884 81.3501 6.5254 82.082C7.53651 82.7215 8.69076 83.0995 9.88426 83.182C11.0778 83.2645 12.2731 83.049 13.3626 82.5548C14.3125 82.1236 15.1662 81.5062 15.8733 80.7392L17.3769 82.2711C16.4552 83.1945 15.3676 83.9356 14.1711 84.4556C12.979 84.98 11.6908 85.2505 10.3884 85.25C8.63509 85.2516 6.91536 84.7689 5.41897 83.8551Z" fill="#727074"/>
<path d="M33.5195 80.4791H22.6444L20.6868 84.9048H18.2754L26.8715 65.4194H29.2829L37.8932 84.8906H35.4818L33.5195 80.4791ZM32.6117 78.3797L28.1009 68.1382L23.5617 78.3797H32.6117Z" fill="#727074"/>
<path d="M55.1466 74.5924C54.6173 75.4906 53.8711 76.2417 52.9763 76.7768C52.0258 77.3516 50.9603 77.71 49.8556 77.8265L54.8204 84.8907H52.2955L47.3496 77.8833H43.0468V84.8907H40.834V65.4052H48.7681C50.0233 65.39 51.2653 65.6617 52.3995 66.1996C53.4506 66.6907 54.3481 67.459 54.9953 68.4219C55.5855 69.3364 55.9135 70.3953 55.9435 71.4833C55.9735 72.5713 55.7044 73.6467 55.1656 74.5924H55.1466ZM43.0468 75.7839H48.352C49.7295 75.8521 51.091 75.4631 52.2245 74.6775C52.6807 74.3139 53.049 73.8521 53.3022 73.3266C53.5554 72.8011 53.6868 72.2252 53.6868 71.6419C53.6868 71.0585 53.5554 70.4827 53.3022 69.9572C53.049 69.4316 52.6807 68.9699 52.2245 68.6063C51.0905 67.822 49.729 67.4347 48.352 67.5046H43.0468V75.7839Z" fill="#727074"/>
<path d="M76.7734 65.4052L68.182 84.8906H65.7895L57.1934 65.4052H59.6048L67.0094 82.1671L74.3808 65.4052H76.7734Z" fill="#727074"/>
<path d="M81.9658 67.5046V73.9115H92.5478V76.0108H81.9658V82.7913H93.711V84.8906H79.7246V65.4052H93.711V67.5046H81.9658Z" fill="#727074"/>
<path d="M110.388 82.7913V84.8906H97.541V65.4052H99.7539V82.7913H110.388Z" fill="#727074"/>
<path d="M57.4536 47.2011C69.398 47.2011 79.0809 37.5182 79.0809 25.5737C79.0809 13.6293 69.398 3.94635 57.4536 3.94635C45.5091 3.94635 35.8262 13.6293 35.8262 25.5737C35.8262 37.5182 45.5091 47.2011 57.4536 47.2011Z" fill="white"/>
<path d="M57.4542 0.75C52.9631 0.749708 48.5562 1.96824 44.7033 4.27566C40.8504 6.58309 37.6959 9.8929 35.5762 13.8522C36.3516 14.325 37.2642 14.8641 38.347 15.4362C40.6104 11.1721 44.235 7.7877 48.6441 5.82159C53.0531 3.85548 57.9931 3.42069 62.6778 4.58642C67.3625 5.75215 71.5226 8.45142 74.496 12.2546C77.4694 16.0577 79.0852 20.7462 79.0863 25.5737C79.0863 25.6919 79.0863 25.8102 79.0863 25.9284C79.0731 26.8398 79.002 27.7495 78.8735 28.6519C78.8712 28.6691 78.8712 28.6866 78.8735 28.7039C78.7015 29.8672 78.4375 31.0151 78.0839 32.1367C78.0051 32.392 77.92 32.6426 77.8285 32.8885C77.4865 33.8384 77.0772 34.7627 76.6039 35.6545C76.5472 35.7633 76.4904 35.8768 76.429 35.9855C75.8918 36.9638 75.2784 37.8981 74.5944 38.78L74.5092 38.884C71.1418 43.1974 66.2642 46.0736 60.8598 46.9326C55.4555 47.7917 49.9264 46.5697 45.3875 43.513C43.7278 43.409 42.5977 43.2908 42.1722 43.2388V43.2624L42.0162 43.2246H41.9594L39.4581 42.6052L39.3399 42.539C41.8865 45.2622 45.014 47.3766 48.4899 48.7252C51.9659 50.0738 55.701 50.622 59.4178 50.329C63.1347 50.036 66.7378 48.9093 69.9595 47.0327C73.1812 45.1561 75.9386 42.5778 78.0271 39.4892C78.3392 39.0164 78.6276 38.5435 78.9113 38.0707C78.9253 38.0414 78.9411 38.0129 78.9586 37.9856C79.4003 37.2192 79.8012 36.4301 80.1596 35.6214C80.2163 35.4938 80.2778 35.3661 80.3345 35.2337C80.7118 34.3364 81.0355 33.4175 81.3039 32.4818C81.3701 32.2501 81.441 32.009 81.5024 31.7773C81.8104 30.5787 82.027 29.3584 82.1502 28.127C82.1526 28.1082 82.1526 28.0891 82.1502 28.0703C82.2358 27.2488 82.2784 26.4233 82.2779 25.5974C82.281 22.3355 81.6412 19.105 80.3951 16.0905C79.149 13.076 77.321 10.3367 75.0156 8.02906C72.7101 5.72146 69.9726 3.89084 66.9593 2.64185C63.946 1.39287 60.716 0.749999 57.4542 0.75Z" fill="#727074"/>
<path d="M33.6657 28.6661C33.6042 28.3965 33.538 28.1365 33.4766 27.8528C33.538 28.127 33.6042 28.3965 33.6657 28.6661Z" fill="#727074"/>
<path d="M33.8126 29.3044C33.8646 29.5172 33.9166 29.7205 33.9686 29.9238C33.8599 29.5077 33.7653 29.0869 33.666 28.6661C33.7133 28.8789 33.7653 29.1011 33.8126 29.3044Z" fill="#727074"/>
<path d="M33.4775 27.8528C33.364 27.3374 33.2505 26.8173 33.1465 26.3019C33.2552 26.8362 33.364 27.3516 33.4775 27.8528Z" fill="#727074"/>
<path d="M65.8566 31.5551C65.8566 31.5551 45.1181 28.4107 35.9168 23.673C34.9696 23.2062 34.0755 22.6386 33.25 21.9802L33.3635 22.5098C33.7039 24.0796 34.12 25.7156 34.6212 27.3894C34.8576 27.4793 35.3068 27.6448 35.9499 27.8623C41.586 29.8718 61.7618 36.5908 76.6135 35.6451C77.0868 34.7533 77.4961 33.8289 77.8382 32.879C77.9264 32.6331 78.0115 32.3825 78.0935 32.1272C74.0056 32.3233 69.9083 32.1318 65.8566 31.5551Z" fill="#17BED2"/>
<path d="M31.1028 22.2261V22.1221L27.793 26.8504L29.3722 29.8434L32.0721 27.4367C31.7175 25.8669 31.3912 24.1363 31.1028 22.2261Z" fill="#17BED2"/>
<path d="M53.5729 25.8196C45.3976 23.4554 40.0215 21.1527 36.7117 19.4458C35.4965 18.8217 34.5603 18.2779 33.8747 17.8429C33.0425 17.3228 32.5602 16.9634 32.3711 16.8169C32.3711 16.8169 32.3711 16.8641 32.3711 16.8878C32.546 18.1834 32.7683 19.5688 33.052 21.0298C33.1134 21.3419 33.1796 21.6634 33.2458 21.9755C34.0714 22.6339 34.9655 23.2014 35.9126 23.6682C45.1139 28.3965 65.8524 31.5503 65.8524 31.5503C69.9022 32.1315 73.9978 32.3278 78.0846 32.1367C78.4382 31.0151 78.7023 29.8672 78.8742 28.7039C78.8719 28.6866 78.8719 28.6691 78.8742 28.6519C71.9992 29.5219 63.2282 28.5999 53.5729 25.8196Z" fill="#794499"/>
<path d="M38.4992 35.9902L37.8184 35.7727V35.8011C39.0451 38.4005 40.4943 40.8889 42.1495 43.2388C42.5751 43.2908 43.7051 43.409 45.3648 43.513C50.7078 43.8487 61.5593 44.0379 72.3446 41.2434C73.1161 40.5094 73.832 39.7192 74.4866 38.8792L74.5717 38.7752C62.4916 40.5855 50.1583 39.6333 38.4992 35.9902Z" fill="#794499"/>
<path d="M30.4273 16.6892L25.8691 22.7604L27.7605 26.8315L31.0703 22.1031C30.8276 20.4955 30.6148 18.7618 30.432 16.902C30.4414 16.8547 30.4367 16.7696 30.4273 16.6892Z" fill="#794499"/>
<path d="M34.3185 35.2905L33.2168 36.1085C33.2168 36.1085 35.2642 38.7516 35.458 38.9455C35.8268 39.3237 36.1673 39.6311 36.4699 39.8911C35.63 38.4339 34.9166 36.9074 34.3374 35.3283C34.3296 35.3165 34.3232 35.3038 34.3185 35.2905Z" fill="#794499"/>
<path d="M61.2893 24.2782C49.9177 20.9022 42.7637 17.7909 38.3664 15.4362C37.2836 14.8641 36.371 14.3298 35.5956 13.8522C34.2348 13.0672 32.9782 12.1141 31.8555 11.0152C31.9311 12.5708 32.0824 14.5425 32.385 16.8074C32.5742 16.954 33.0565 17.3133 33.8886 17.8335C34.579 18.2685 35.5152 18.8122 36.7256 19.4364C40.0355 21.1433 45.4116 23.4555 53.5869 25.8102C63.2421 28.5904 72.0274 29.5124 78.8787 28.6472C79.0073 27.7447 79.0783 26.8351 79.0915 25.9236C77.2758 26.0277 75.5311 26.0088 73.9423 26.056C71.5498 26.1317 63.5684 24.9591 61.2893 24.2782Z" fill="#1E4488"/>
<path d="M35.9498 27.8717C35.3067 27.6447 34.8575 27.4792 34.6211 27.3989V27.4792C35.4688 30.3226 36.5293 33.0981 37.7938 35.7822L38.4747 35.9997C50.1363 39.6458 62.4731 40.5997 74.5566 38.7894C75.2406 37.9076 75.854 36.9732 76.3912 35.995C76.4526 35.8862 76.5094 35.7727 76.5661 35.664C61.7617 36.6002 41.5859 29.886 35.9498 27.8717Z" fill="#1E4488"/>
<path d="M33.1656 26.3019C33.0096 25.5548 32.8583 24.7746 32.6928 23.9661C31.7382 18.6244 31.1804 13.2193 31.0237 7.79521C31.0237 7.0765 30.9906 6.67932 30.9906 6.67932L29.8558 7.40748C29.8936 8.74087 29.9456 10.0301 30.0118 11.2753C30.0118 11.4597 30.0355 11.6346 30.0449 11.819L24.7539 20.1503L25.8603 22.7935L30.4279 16.7034C30.4279 16.7838 30.4279 16.8689 30.4515 16.9493C30.6344 18.8028 30.8471 20.5365 31.0899 22.1504V22.2544C31.3783 24.1458 31.7046 25.8953 32.0355 27.4556L29.3829 29.8576C29.4302 29.9474 30.5272 31.9664 31.2743 33.1249C32.0214 34.2833 33.1041 35.8768 33.2602 36.1037L34.3619 35.281C34.3601 35.2951 34.3601 35.3094 34.3619 35.3236C34.9411 36.9026 35.6545 38.4291 36.4944 39.8864C36.8113 40.4406 37.1718 40.9687 37.5724 41.4657C37.6092 41.5081 37.6523 41.5448 37.7001 41.5744L39.3597 42.5201L39.4779 42.5863C39.4779 42.5863 36.3998 39.4845 33.9931 29.9191C33.6621 28.7275 33.3926 27.5218 33.1656 26.3019Z" fill="#1E4488"/>
<path d="M42.1484 43.2388C40.4947 40.8888 39.0472 38.4003 37.822 35.8011V35.7727C36.5575 33.0886 35.4969 30.3132 34.6492 27.4698V27.3894C34.148 25.7156 33.7319 24.0796 33.3915 22.5098L33.278 21.9802C33.2118 21.6634 33.1456 21.3419 33.0842 21.0345C32.8005 19.5735 32.5782 18.1975 32.4033 16.8925C32.4033 16.8925 32.4033 16.8452 32.4033 16.8216C32.1007 14.5567 31.9305 12.5661 31.8737 11.0294C31.7602 8.66522 31.8217 7.27982 31.8217 7.27982L31.0273 6.68405C31.0273 7.06232 31.0273 7.43113 31.0604 7.79994C31.0604 8.00798 31.0604 8.24913 31.0888 8.50446C31.2197 13.6922 31.7556 18.8618 32.6917 23.9661C32.8383 24.7746 32.9896 25.5548 33.1645 26.3019C33.3821 27.361 33.609 28.3682 33.8312 29.3044C33.8833 29.5172 33.9353 29.7205 33.9873 29.9238C36.394 39.4892 39.4721 42.591 39.4721 42.591L41.9734 43.2104H42.0349L42.1909 43.2482L42.1484 43.2388Z" fill="#208FCE"/>
</g>
</g>
</g>
<defs>
<clipPath id="clip0_929_4058">
<rect width="110" height="84.5" fill="white" transform="translate(0.388672 0.75)"/>
</clipPath>
<clipPath id="clip1_929_4058">
<rect width="110" height="84.5" fill="white" transform="translate(0.388672 0.75)"/>
</clipPath>
<clipPath id="clip2_929_4058">
<rect width="109.997" height="84.5" fill="white" transform="translate(0.390625 0.75)"/>
</clipPath>
</defs>
</svg>
