<svg width="111" height="74" viewBox="0 0 111 74" fill="none" xmlns="http://www.w3.org/2000/svg">
<g clip-path="url(#clip0_929_4292)">
<mask id="mask0_929_4292" style="mask-type:luminance" maskUnits="userSpaceOnUse" x="0" y="0" width="111" height="74">
<path d="M110.079 0.450684H0.310547V73.5293H110.079V0.450684Z" fill="white"/>
</mask>
<g mask="url(#mask0_929_4292)">
<path d="M0.310547 66.3515V63.9675C0.310547 61.591 0.901094 59.8008 2.08219 58.597C3.2632 57.393 4.93372 56.7913 7.09374 56.7913C9.03648 56.7913 10.5672 57.2476 11.686 58.1603C12.8049 59.0732 13.3643 60.3478 13.3644 61.9847V62.1026H11.2431V62.0079C11.2431 60.9539 10.8818 60.1433 10.1593 59.5767C9.43662 59.0101 8.40705 58.7269 7.07061 58.7269C5.50089 58.7269 4.33538 59.1598 3.57406 60.0251C2.81259 60.8907 2.43185 62.2439 2.43184 64.0856V66.3752C2.43184 68.1535 2.8164 69.4675 3.5855 70.3173C4.35494 71.1671 5.52434 71.5921 7.09374 71.5921C8.43043 71.5921 9.4561 71.3089 10.1707 70.7423C10.8857 70.1757 11.2432 69.3572 11.2431 68.2874V68.193H13.341V68.3109C13.341 69.9475 12.7777 71.2262 11.6512 72.1467C10.5244 73.0673 8.98973 73.5277 7.04724 73.5277C4.90255 73.5277 3.24365 72.9257 2.07049 71.722C0.897195 70.518 0.310547 68.728 0.310547 66.3515Z" fill="#436DB4"/>
<path d="M15.9043 68.5232V61.2291H17.8858V68.3108C17.8858 70.5612 18.927 71.6866 21.0093 71.6863C22.0817 71.6863 22.8704 71.4072 23.3753 70.8485C23.8804 70.2898 24.1329 69.4438 24.1328 68.3108V61.2291H26.1144V68.5232C26.1144 70.1128 25.6754 71.3362 24.7973 72.1938C23.9192 73.0518 22.6488 73.4806 20.986 73.4804C19.3387 73.4804 18.0799 73.0515 17.2096 72.1938C16.3395 71.3362 15.9044 70.1128 15.9043 68.5232Z" fill="#436DB4"/>
<path d="M30.7998 61.2291V62.9287C31.1826 62.318 31.7329 61.8306 32.3851 61.5242C33.08 61.2085 33.8364 61.0511 34.5996 61.0638C34.9197 61.0623 35.2393 61.0857 35.5553 61.1346V63.0468C35.1318 62.9203 34.692 62.8566 34.2499 62.8579C33.7938 62.838 33.3383 62.9116 32.9114 63.0738C32.4844 63.2363 32.0953 63.4841 31.7673 63.8019C31.138 64.4316 30.8233 65.2814 30.8233 66.3515V73.3153H28.8418V61.2291H30.7998Z" fill="#436DB4"/>
<path d="M39.4014 57.051V59.2224H37.4199V57.051H39.4014ZM39.4014 61.2291V73.3153H37.4199V61.2291H39.4014Z" fill="#436DB4"/>
<path d="M43.9483 67.8624C43.9483 70.4746 45.1528 71.781 47.5613 71.7808C48.4781 71.7808 49.1891 71.5646 49.6943 71.1319C49.937 70.9325 50.1326 70.6822 50.2676 70.3985C50.4025 70.1151 50.4733 69.8052 50.4751 69.4912V69.4204H52.4334V69.5148C52.4268 70.2404 52.2124 70.9491 51.8156 71.5567C51.3929 72.1852 50.8036 72.6838 50.1137 72.9968C49.2986 73.367 48.4101 73.5483 47.5147 73.5277C45.7742 73.5277 44.4145 73.036 43.4354 72.0525C42.4565 71.0688 41.9671 69.6327 41.9668 67.7442V66.7765C41.9668 64.9193 42.4331 63.4912 43.3654 62.4919C44.2979 61.4927 45.5956 60.993 47.2583 60.993C48.8901 60.993 50.1721 61.4535 51.1046 62.374C52.0369 63.2946 52.5032 64.6206 52.5032 66.3515V67.7679H43.9483V67.8624ZM43.9483 66.257H50.522V66.0447C50.522 64.943 50.2383 64.1207 49.6709 63.5778C49.104 63.0351 48.2998 62.7637 47.2583 62.7634C46.2483 62.7634 45.4597 63.0507 44.8923 63.6252C44.3252 64.1994 44.0104 65.0767 43.9483 66.257Z" fill="#436DB4"/>
<path d="M57.9565 60.3085V61.2291H60.9403V62.7397H57.9565V73.3153H55.9753V62.7397H54.2969V61.2291H55.9753V60.3793C55.9753 59.2935 56.2784 58.4633 56.8844 57.8888C57.4905 57.3145 58.3686 57.0273 59.5186 57.0273H60.9403V58.5145H59.8448C59.1921 58.5145 58.7141 58.6599 58.4111 58.9512C58.1083 59.2423 57.9568 59.6945 57.9565 60.3085Z" fill="#26BECD"/>
<path d="M64.3682 67.8624C64.3682 70.4746 65.5725 71.781 67.9813 71.7808C68.898 71.7808 69.609 71.5646 70.1142 71.1319C70.3567 70.9325 70.5525 70.6822 70.6875 70.3985C70.8224 70.1151 70.8932 69.8052 70.895 69.4912V69.4204H72.8531V69.5148C72.8465 70.2404 72.632 70.9491 72.2355 71.5567C71.8128 72.1852 71.2235 72.6838 70.5337 72.9968C69.7183 73.367 68.8298 73.5483 67.9347 73.5277C66.1941 73.5277 64.8342 73.036 63.8551 72.0525C62.8764 71.0688 62.3867 69.6327 62.3867 67.7442V66.7765C62.3867 64.9193 62.853 63.4912 63.7853 62.4919C64.7178 61.4927 66.0156 60.993 67.6782 60.993C69.3098 60.993 70.592 61.4535 71.5245 62.374C72.4568 63.2946 72.9228 64.6206 72.9231 66.3515V67.7679H64.3682V67.8624ZM64.3682 66.257H70.9419V66.0447C70.9419 64.943 70.6582 64.1207 70.0908 63.5778C69.5237 63.0351 68.7195 62.7637 67.6782 62.7634C66.668 62.7634 65.8793 63.0507 65.3122 63.6252C64.7448 64.1994 64.4303 65.0767 64.3682 66.257Z" fill="#26BECD"/>
<path d="M77.2806 61.2291V62.8579C77.6908 62.2831 78.2457 61.8271 78.889 61.536C79.5783 61.2294 80.326 61.0763 81.0803 61.0873C82.4944 61.0873 83.5899 61.4965 84.3669 62.315C85.1441 63.1332 85.5327 64.2664 85.5324 65.7141V73.3153H83.551V65.9739C83.551 64.9509 83.2983 64.1798 82.7934 63.6606C82.2884 63.1413 81.5539 62.8816 80.5906 62.8816C80.1523 62.861 79.7143 62.93 79.3036 63.084C78.8928 63.2384 78.5177 63.4747 78.2011 63.7787C77.603 64.3764 77.304 65.1946 77.304 66.2334V73.3153H75.3223V61.2291H77.2806Z" fill="#26BECD"/>
<path d="M87.6547 69.7035V69.6328H89.5427V69.6799C89.5348 69.9819 89.6033 70.2809 89.7418 70.549C89.8804 70.8174 90.0846 71.0461 90.3354 71.2144C90.8638 71.5921 91.6798 71.781 92.7829 71.7808C93.7776 71.7808 94.5586 71.6158 95.1258 71.2852C95.3886 71.1492 95.6076 70.9419 95.7581 70.6873C95.9086 70.4326 95.9842 70.1408 95.9766 69.8451C95.9878 69.6111 95.9363 69.3786 95.8278 69.1711C95.7191 68.9638 95.5574 68.7891 95.3588 68.6648C94.947 68.3974 94.2905 68.2166 93.3893 68.1219L91.6874 67.9095C90.3665 67.7521 89.3952 67.4099 88.7736 66.8827C88.152 66.3556 87.8413 65.612 87.8413 64.6519C87.8227 64.1393 87.9322 63.63 88.1604 63.1704C88.3883 62.711 88.7273 62.3155 89.1467 62.0198C90.0168 61.3824 91.1977 61.0638 92.6897 61.0638C94.2436 61.0638 95.4637 61.3865 96.3496 62.0315C96.7721 62.3229 97.1151 62.715 97.3471 63.1729C97.5794 63.6305 97.6932 64.1391 97.6784 64.6519V64.7462H95.7902V64.6756C95.8016 64.38 95.7329 64.0869 95.5913 63.8271C95.4497 63.5674 95.2406 63.3506 94.9857 63.2001C94.4496 62.8617 93.692 62.6926 92.7131 62.6926C91.7185 62.6926 90.9726 62.85 90.4755 63.1648C90.2412 63.301 90.0484 63.4981 89.917 63.7349C89.7859 63.9718 89.7209 64.2397 89.7293 64.5104C89.7164 64.7306 89.7584 64.9509 89.8521 65.1508C89.9458 65.3507 90.0879 65.5241 90.2654 65.6553C90.6229 65.9148 91.2367 66.092 92.1071 66.1865L93.9251 66.4223C95.2617 66.5799 96.2526 66.926 96.8974 67.4608C97.5424 67.9961 97.8646 68.7516 97.8646 69.7272C97.886 70.2656 97.7698 70.8006 97.5272 71.2817C97.2845 71.763 96.9234 72.1742 96.4777 72.4773C95.5531 73.1302 94.2905 73.4569 92.6897 73.4569C91.1047 73.4569 89.8694 73.1226 88.9835 72.4536C88.5541 72.1386 88.2085 71.7232 87.9768 71.244C87.7453 70.7644 87.6345 70.2355 87.6547 69.7035Z" fill="#26BECD"/>
<path d="M101.524 67.8624C101.524 70.4746 102.729 71.781 105.138 71.7808C106.054 71.7808 106.765 71.5646 107.27 71.1319C107.513 70.9325 107.709 70.6822 107.844 70.3985C107.979 70.1151 108.049 69.8052 108.051 69.4912V69.4204H110.009V69.5148C110.003 70.2404 109.789 70.9491 109.392 71.5567C108.969 72.1852 108.38 72.6838 107.69 72.9968C106.875 73.367 105.986 73.5483 105.091 73.5277C103.35 73.5277 101.99 73.036 101.011 72.0525C100.033 71.0688 99.5432 69.6327 99.543 67.7442V66.7765C99.543 64.9193 100.009 63.4912 100.942 62.4919C101.874 61.4927 103.172 60.993 104.834 60.993C106.466 60.993 107.748 61.4535 108.681 62.374C109.613 63.2946 110.079 64.6206 110.079 66.3515V67.7679H101.524V67.8624ZM101.524 66.257H108.098V66.0447C108.098 64.943 107.814 64.1207 107.247 63.5778C106.68 63.0351 105.876 62.7637 104.834 62.7634C103.824 62.7634 103.036 63.0507 102.468 63.6252C101.901 64.1994 101.587 65.0767 101.524 66.257Z" fill="#26BECD"/>
<path d="M53.6338 30.9037L46.2669 34.2891H42.3378L54.0168 14.58V4.48578L36.1914 12.96V26.6731C36.1914 34.8679 43.4188 43.7781 54.0168 49.0528V30.944L53.6338 30.9037Z" fill="#26BECD"/>
<path d="M56.373 0.450684V19.1976L60.2252 20.8706C61.2899 20.642 61.9984 20.2347 62.9623 18.3263C63.3371 18.8596 63.5536 19.4878 63.5872 20.1386C63.6208 20.7895 63.4698 21.4366 63.152 22.0056C63.1067 22.0865 63.0769 22.1302 63.0769 22.1302C63.0769 22.1302 67.2076 20.8349 66.3016 15.5255C69.3806 18.3766 69.1359 22.8621 67.996 25.5443C67.9054 25.7562 67.5812 26.368 67.5812 26.368L67.5675 26.3986L67.5659 26.3958C67.4636 26.626 67.3418 26.8468 67.2018 27.0558C67.1149 27.1916 67.0146 27.3385 66.9043 27.4928C64.4973 30.6027 61.2869 31.6863 59.3441 31.5034L56.373 31.1915V47.3298C66.9711 42.0551 74.1984 33.1452 74.1984 24.95V11.2369L56.373 0.450684Z" fill="#436DB4"/>
<path d="M59.6345 24.4447C59.704 24.2215 59.7015 23.982 59.6268 23.7604C59.5525 23.5388 59.4099 23.3463 59.2194 23.2106C59.0292 23.0748 58.8008 23.0025 58.5671 23.0042C58.3333 23.0058 58.1059 23.0812 57.9175 23.2197C57.7291 23.3581 57.5893 23.5525 57.5177 23.7751C57.4465 23.9978 57.4472 24.2372 57.52 24.4594C57.5926 24.6816 57.7337 24.8752 57.9229 25.0125C58.1123 25.1498 58.3399 25.2238 58.5737 25.2241C58.8105 25.2244 59.0412 25.1489 59.2322 25.0087C59.4229 24.8684 59.564 24.6708 59.6345 24.4447Z" fill="#436DB4"/>
</g>
</g>
<defs>
<clipPath id="clip0_929_4292">
<rect width="110" height="73.0787" fill="white" transform="translate(0.195312 0.450684)"/>
</clipPath>
</defs>
</svg>
