<svg width="111" height="110" viewBox="0 0 111 110" fill="none" xmlns="http://www.w3.org/2000/svg">
<g clip-path="url(#clip0_929_4091)">
<g clip-path="url(#clip1_929_4091)">
<g clip-path="url(#clip2_929_4091)">
<path d="M53.1256 110V34.7425L1.5752 18.7526V94.0101L53.1256 110Z" fill="#215276"/>
<path d="M58.0645 110L109.615 94.0101V18.7526L58.0645 34.7425V110Z" fill="#215276"/>
<path d="M105.537 15.4844L55.5453 0L5.55371 15.4844L55.5453 30.9688L105.537 15.4844Z" fill="#215276"/>
<path d="M27.6011 39.3226C26.9104 39.1104 26.3471 39.6236 26.3471 40.4802C26.3471 40.4802 26.3471 40.5072 26.3471 40.5188C26.3471 40.6346 26.3471 40.7696 26.3471 40.8699C26.3471 41.36 26.459 41.7613 26.5168 42.2281C26.6359 43.0676 26.6824 43.9158 26.6558 44.7632C26.5971 44.9925 26.4607 45.1943 26.2699 45.3343L26.239 45.9054C25.4932 45.7428 24.736 45.6383 23.9741 45.5928C21.0058 45.3558 18.0638 46.2986 15.7862 48.2166C15.6473 48.07 15.4003 47.8076 15.3347 47.7266C15.0565 47.7209 14.7907 47.6107 14.59 47.4179C13.9746 46.7304 13.4098 45.9992 12.9 45.2301C12.6183 44.8134 12.4099 44.4391 12.0742 44.0185C11.9971 43.9221 11.8813 43.7909 11.7964 43.6905C11.5667 43.4073 11.2657 43.1902 10.9244 43.0616C10.759 42.9887 10.5756 42.9666 10.3977 42.9982C10.2197 43.0298 10.0552 43.1137 9.92501 43.2391C9.49285 43.7021 9.63176 44.6475 10.2337 45.3574V45.3767C10.3147 45.4771 10.4189 45.6005 10.4922 45.6854C10.8511 46.0713 11.1752 46.3298 11.5302 46.6694C12.2001 47.2913 12.823 47.9619 13.3939 48.6758C13.5402 48.9433 13.6258 49.2397 13.6447 49.544L14.0305 50.061C11.8813 52.9511 10.8858 57.0296 11.4723 61.6715H10.9475C10.8086 61.8258 10.6157 62.0573 10.4112 62.1036C9.65466 62.0911 8.9017 61.9967 8.16551 61.8219C7.77496 61.7108 7.37811 61.6232 6.97707 61.5596C6.88061 61.5596 6.74556 61.5596 6.64137 61.5596H6.61051C6.44179 61.5487 6.27296 61.5791 6.11861 61.6481C5.96426 61.7171 5.82902 61.8226 5.72457 61.9556C5.62012 62.0885 5.54958 62.2449 5.51907 62.4112C5.48855 62.5775 5.49896 62.7487 5.5494 62.9101C5.63072 63.2963 5.82993 63.6477 6.11953 63.9159C6.40912 64.1841 6.77482 64.3557 7.16614 64.4072H7.20858C7.31277 64.4072 7.4401 64.4072 7.5327 64.4265C7.90954 64.4108 8.28477 64.3682 8.65555 64.2991C9.37833 64.2023 10.1099 64.1894 10.8356 64.2606C11.1116 64.368 11.3587 64.5385 11.5572 64.7583L12.1051 64.8239C13.3784 69.4338 15.8726 73.6143 19.3245 76.9244L19.0968 77.453C19.2008 77.7096 19.2393 77.9881 19.2087 78.2633C18.9056 78.9344 18.5248 79.5676 18.0743 80.1501C17.829 80.4304 17.6046 80.7283 17.4029 81.0415C17.3528 81.1302 17.291 81.2691 17.2409 81.3617C17.0945 81.7265 17.068 82.1283 17.1651 82.5091C17.2622 82.8899 17.4779 83.23 17.7811 83.4801C18.4023 83.9971 19.1779 83.8891 19.5097 83.2331C19.556 83.1405 19.6254 83.0209 19.664 82.9322C19.8094 82.5544 19.9305 82.1677 20.0267 81.7746C20.3586 80.9643 20.5399 80.0614 20.9952 79.6022C21.1522 79.492 21.3462 79.4476 21.5354 79.4787L21.821 79.0003C24.7303 81.1148 27.9947 82.4383 31.2359 82.6196C31.9525 82.6608 32.6714 82.6427 33.3851 82.5656L33.6513 83.1752C33.9229 83.3126 34.1463 83.5293 34.2919 83.7965C34.6428 84.6316 34.9304 85.4919 35.1523 86.3701C35.2758 86.8409 35.3375 87.2422 35.515 87.7399C35.5536 87.8557 35.6231 88.0177 35.6694 88.1258C36.0012 88.9862 36.7768 89.5727 37.4019 89.4338C38.0269 89.2949 38.2585 88.5001 37.9343 87.6435C37.888 87.52 37.8224 87.3425 37.7723 87.2229C37.5639 86.729 37.3285 86.3701 37.1009 85.9225C36.6695 85.1109 36.2981 84.2688 35.9896 83.4029C35.9206 83.1429 35.9551 82.8662 36.0861 82.6312C36.0398 82.5579 35.9356 82.1874 35.8777 82.0138C39.3504 80.8292 41.9009 78.0279 43.101 74.2581L43.6373 74.5243C43.7404 74.4578 43.8579 74.4167 43.98 74.4046C44.1022 74.3926 44.2254 74.4098 44.3396 74.4549C45.1045 74.8513 45.835 75.3108 46.5235 75.8285C46.9094 76.1063 47.218 76.3919 47.6464 76.6466C47.7351 76.7006 47.8663 76.7662 47.9705 76.8202H47.9936C48.7383 77.206 49.4599 76.9977 49.6104 76.3109C49.7608 75.624 49.2901 74.7366 48.5493 74.3121C48.4412 74.2542 48.2907 74.1616 48.1866 74.1076C47.7943 73.9274 47.3924 73.769 46.9827 73.633C46.2033 73.3361 45.4518 72.9707 44.737 72.541C44.5059 72.3235 44.3221 72.0609 44.1968 71.7693L43.6913 71.4529C43.9564 69.2884 43.8678 67.0951 43.4289 64.959C42.9629 62.637 42.1718 60.3924 41.0791 58.2914L41.5228 57.9904C41.5096 57.8627 41.5238 57.7337 41.5644 57.6119C41.6049 57.4902 41.671 57.3785 41.7582 57.2843C42.3389 56.9157 42.9655 56.6252 43.6219 56.4199C43.9774 56.3308 44.3257 56.2147 44.6637 56.0727C44.7447 56.0302 44.8527 55.9608 44.9376 55.9145C45.5396 55.5711 45.6785 54.7067 45.2463 53.9852C44.8142 53.2636 43.9769 52.9472 43.3788 53.2907C43.2939 53.337 43.1781 53.3987 43.101 53.4489C42.808 53.6627 42.5319 53.8987 42.2752 54.155C41.7652 54.6135 41.197 55.0027 40.5852 55.3125C40.3194 55.3438 40.0504 55.2941 39.8135 55.1698L39.335 55.3974C36.634 51.4424 32.9182 48.3131 28.9169 46.7079C28.9169 46.5227 28.8899 46.187 28.886 46.0867C28.6742 45.8618 28.5321 45.5804 28.477 45.2764C28.4494 44.457 28.4972 43.6369 28.6198 42.8262C28.7002 42.4118 28.7569 41.9931 28.7895 41.5722C28.7895 41.4641 28.7895 41.3021 28.7895 41.1863C28.7938 40.7794 28.6768 40.3805 28.4535 40.0403C28.2301 39.7001 27.9106 39.4342 27.5355 39.2763L27.6011 39.3226ZM26.0307 49.4977L25.6448 56.5897H25.6178C25.6272 56.7263 25.6021 56.8631 25.5449 56.9875C25.4877 57.112 25.4001 57.22 25.2903 57.3018C25.1805 57.3836 25.0519 57.4365 24.9163 57.4557C24.7807 57.4749 24.6425 57.4597 24.5142 57.4116C24.2619 57.3289 24.0366 57.1796 23.8622 56.9794L18.4795 51.1414C20.26 49.7971 22.4715 49.1519 24.6956 49.3279C25.1435 49.359 25.5892 49.4157 26.0307 49.4977ZM29.1715 50.4585C32.1814 51.8529 34.7731 54.0122 36.688 56.7209L31.3246 59.2444C30.85 59.4798 30.167 59.1788 29.8082 58.5576C29.6659 58.3241 29.5838 58.0589 29.569 57.7859L29.1715 50.4585ZM16.5232 53.2482L21.4467 59.5763V59.6033C21.8904 60.1628 21.956 60.9152 21.5856 61.3126C21.5121 61.3898 21.4234 61.4508 21.3251 61.492C21.2268 61.5332 21.1211 61.5536 21.0145 61.5518V61.5596L14.6942 61.6444C14.3739 58.3261 15.0801 55.409 16.527 53.2482H16.5232ZM38.6405 60.0161C39.3793 61.5481 39.9213 63.1674 40.2533 64.8355C40.5679 66.3771 40.6601 67.9559 40.5273 69.5236L34.1915 65.5802V65.5493C33.9132 65.3753 33.6918 65.1237 33.5547 64.8255C33.4176 64.5272 33.3707 64.1954 33.4198 63.8708C33.44 63.7627 33.4815 63.6596 33.5418 63.5676C33.602 63.4755 33.6799 63.3963 33.771 63.3345L38.6405 60.0161ZM26.5902 61.5287L28.6082 62.1461L29.8622 64.2451L29.4108 66.2516L27.6011 66.6374L25.7876 65.1249L25.3361 62.8445L26.5902 61.5287ZM33.0533 69.3809C33.1415 69.4035 33.2269 69.4358 33.3079 69.4773L39.8328 72.6799C38.8797 75.3308 37.0507 77.3102 34.6083 78.2787L32.077 70.797C31.8455 70.1333 32.077 69.5082 32.6134 69.3886C32.7529 69.3553 32.8983 69.3553 33.0378 69.3886L33.0533 69.3809ZM22.0949 66.0586C22.3647 66.1622 22.6037 66.3327 22.7893 66.5541C22.975 66.7755 23.1012 67.0406 23.156 67.3243C23.2106 67.5667 23.189 67.82 23.0943 68.0497V68.0805L20.5901 73.9533C18.1703 71.5074 16.3825 68.5091 15.381 65.2175L21.848 65.9892C21.9214 65.9972 21.9938 66.0127 22.0641 66.0355L22.0949 66.0586ZM27.5587 70.6388C27.7491 70.6927 27.9256 70.7875 28.0757 70.9166C28.2972 71.0975 28.4719 71.3291 28.585 71.5918H28.6082L31.7954 78.8845C31.3713 78.9096 30.9461 78.9096 30.522 78.8845C27.9764 78.6845 25.5324 77.7992 23.4493 76.3224L26.6287 70.9899C26.7197 70.8332 26.8616 70.7124 27.0309 70.6478C27.2001 70.5832 27.3864 70.5786 27.5587 70.6349V70.6388Z" fill="white"/>
<path d="M84.3764 39.0989C84.0015 39.2732 83.6843 39.5511 83.4621 39.8997C83.2399 40.2484 83.122 40.6533 83.1223 41.0667C83.1223 41.0667 83.1223 41.0899 83.1223 41.1053C83.1223 41.2211 83.1223 41.36 83.1223 41.4603C83.1548 41.8787 83.2115 42.2948 83.2921 42.7066C83.4135 43.5148 83.46 44.3324 83.431 45.1491C83.356 45.4581 83.2181 45.7484 83.0259 46.0018L82.9911 46.5883C82.2125 46.9333 81.456 47.3263 80.7262 47.7652C77.4387 49.7948 74.6433 52.5295 72.5422 55.7717C72.4032 55.7177 72.1563 55.6097 72.0907 55.5788C71.9851 55.6575 71.8648 55.7141 71.7368 55.7453C71.6089 55.7764 71.4759 55.7815 71.346 55.7601C70.7357 55.4794 70.167 55.1158 69.6559 54.6797C69.3993 54.4339 69.1232 54.2094 68.8302 54.0083C68.753 53.962 68.6373 53.908 68.5524 53.8617C68.4178 53.7955 68.2715 53.7567 68.1218 53.7474C67.9721 53.7381 67.8221 53.7586 67.6804 53.8077C67.256 53.953 66.9001 54.2497 66.681 54.6412C66.2488 55.3859 66.3877 56.2425 66.9897 56.5704C67.0707 56.6167 67.1749 56.6746 67.2482 56.7093C67.5858 56.8366 67.9329 56.9372 68.2862 57.0103C68.9394 57.182 69.5664 57.4416 70.1498 57.782C70.3428 57.9402 70.3775 58.3222 70.4006 58.4843L70.7865 58.7351C68.6373 63.0374 67.6418 67.768 68.2283 72.0279L67.7035 72.379C67.5659 72.6625 67.385 72.9229 67.1672 73.1507C66.4541 73.6127 65.7028 74.0128 64.9215 74.3468C64.5111 74.5015 64.1092 74.678 63.7176 74.8755C63.6211 74.9295 63.4861 75.0144 63.3819 75.08C62.6449 75.5353 62.1703 76.4459 62.3208 77.125C62.4713 77.8041 63.1967 77.9971 63.9375 77.561H63.9607C64.0649 77.4993 64.1922 77.426 64.2848 77.3681C64.7131 77.0903 65.0257 76.797 65.4077 76.4999C66.0952 75.9512 66.8255 75.4583 67.5916 75.026C67.834 74.9502 68.0955 74.9639 68.3286 75.0645L68.8765 74.7713C70.1344 78.6028 72.7659 81.1302 76.1036 82.1257L75.876 82.8048C75.9857 83.0339 76.0247 83.2905 75.9879 83.5418C75.671 84.4441 75.2919 85.3234 74.8534 86.1733C74.6219 86.6287 74.3904 87.0029 74.182 87.5084C74.1319 87.628 74.0701 87.8094 74.02 87.9329C73.6997 88.801 73.9351 89.5882 74.5525 89.6962C75.1698 89.8043 75.9493 89.1869 76.2811 88.3149C76.3274 88.1914 76.3969 88.0255 76.4354 87.929C76.6129 87.4197 76.6708 87.0184 76.7981 86.5438C77.13 85.5135 77.3113 84.491 77.7667 83.7347C77.9077 83.5359 78.0925 83.3722 78.3068 83.2563L78.5924 82.5926C81.5017 82.7932 84.7661 81.9791 88.0073 80.0267C88.7507 79.5787 89.4683 79.0892 90.1565 78.5604L90.4227 78.9964C90.6388 78.9964 90.8703 78.954 91.0633 79.1971C91.4269 79.8303 91.7156 80.5036 91.9237 81.2035C92.0201 81.5878 92.1413 81.9654 92.2864 82.3341C92.325 82.4228 92.3945 82.5424 92.4408 82.6312C92.7726 83.2717 93.5482 83.3489 94.1733 82.801C94.4728 82.5439 94.685 82.2001 94.7804 81.8171C94.8758 81.434 94.8497 81.0308 94.7058 80.6633C94.6595 80.5707 94.5939 80.4357 94.5437 80.3508C94.3423 80.0471 94.1179 79.7595 93.8723 79.4903C93.429 78.942 93.0557 78.3406 92.761 77.6999C92.6993 77.4153 92.7333 77.1183 92.8575 76.8549C92.776 76.6996 92.7063 76.5384 92.6491 76.3726C96.1095 72.9076 98.6059 68.5998 99.8917 63.8747L100.428 63.7898C100.602 63.5441 100.847 63.3582 101.13 63.2573C101.853 63.1526 102.586 63.1319 103.314 63.1956C103.686 63.2495 104.061 63.2766 104.437 63.2766C104.526 63.2766 104.657 63.2496 104.761 63.238H104.804C105.198 63.1658 105.563 62.978 105.851 62.6984C106.138 62.4188 106.337 62.0601 106.42 61.6676C106.575 60.8959 106.1 60.3017 105.359 60.3673C105.251 60.3673 105.101 60.3673 104.997 60.402C104.589 60.4835 104.187 60.5892 103.793 60.7184C103.06 60.9267 102.307 61.0561 101.547 61.1043C101.285 61.085 101.096 60.8071 101.007 60.6991H100.501C100.775 58.5928 100.687 56.4551 100.239 54.3788C99.8446 52.5178 99.042 50.7677 97.8891 49.2546L98.3328 48.6604C98.3223 48.3563 98.4043 48.0563 98.5682 47.7999C99.1393 47.0597 99.7621 46.3609 100.432 45.7086C100.787 45.3536 101.115 45.0912 101.474 44.6745C101.555 44.5819 101.663 44.4391 101.748 44.3349C102.35 43.5979 102.488 42.641 102.056 42.2011C101.624 41.7613 100.787 41.9966 100.189 42.7336C100.104 42.8378 99.9881 42.9767 99.911 43.0732C99.5753 43.5092 99.3669 43.895 99.0852 44.3233C98.5749 45.1177 98.0102 45.8758 97.3952 46.5922C97.1733 46.7766 96.9074 46.9002 96.6235 46.951L96.145 47.4912C93.444 45.3227 89.7282 44.6243 85.7269 45.6353C85.7269 45.4578 85.6999 45.1298 85.696 45.0333C85.5866 44.9857 85.4915 44.9105 85.4198 44.8152C85.3481 44.7198 85.3024 44.6076 85.287 44.4893C85.2619 43.6391 85.3097 42.7884 85.4298 41.9465C85.4876 41.4796 85.5841 41.0706 85.5995 40.5805C85.5995 40.4686 85.5995 40.3104 85.5995 40.1947C85.5995 39.3535 85.04 38.8635 84.3455 39.1066L84.3764 39.0989ZM82.8059 50.2887L82.4201 57.62L82.3931 57.6431C82.3709 57.9776 82.2558 58.2992 82.0609 58.5718C81.8659 58.8445 81.5988 59.0574 81.2895 59.1865C81.0804 59.2713 80.8465 59.2713 80.6374 59.1865L75.2354 56.8907C76.8738 54.5136 78.9912 52.5053 81.4516 50.9948C81.9146 50.7556 82.3622 50.5202 82.8059 50.3041V50.2887ZM85.9468 49.1851C88.7983 48.5678 91.4337 49.0578 93.4556 50.5163L88.0999 56.5589C87.6253 57.1068 86.9423 57.2457 86.5835 56.8675C86.4297 56.6987 86.3444 56.4786 86.3442 56.2502L85.9468 49.1851ZM73.2984 60.2862L78.2181 63.3731V63.404C78.6618 63.6702 78.7274 64.384 78.357 65.0207C78.2167 65.2666 78.0212 65.4767 77.7859 65.6342V65.6612L71.4772 69.8748C71.1569 66.7879 71.863 63.3962 73.31 60.2747L73.2984 60.2862ZM95.4157 52.5189C96.1935 53.6544 96.7415 54.9312 97.0286 56.2772C97.3519 57.7576 97.4443 59.2792 97.3026 60.7878L90.9629 61.0116V60.9846C90.3957 61.0155 90.0446 60.5023 90.1912 59.8271C90.247 59.5461 90.3672 59.282 90.5424 59.0554L95.435 52.5344L95.4157 52.5189ZM83.377 61.9647L85.395 61.2547L86.6491 62.5319L86.1976 64.8471L84.3879 66.4368L82.5744 66.1165L82.123 64.1332L83.377 61.9647ZM89.8401 65.5725C89.9219 65.5392 90.0074 65.5159 90.0948 65.503L96.6196 64.4188C95.6136 67.798 93.8235 70.8917 91.3951 73.4478L88.8639 67.6291C88.7677 67.3158 88.7673 66.9808 88.8629 66.6673C88.9585 66.3538 89.1456 66.076 89.4002 65.8696C89.5256 65.7564 89.6691 65.6651 89.8247 65.5995L89.8401 65.5725ZM78.8818 69.4503C78.9883 69.405 79.1035 69.3843 79.2191 69.3896C79.3347 69.3949 79.4476 69.4261 79.5495 69.4809C79.6514 69.5358 79.7397 69.6128 79.8078 69.7064C79.8758 69.7999 79.922 69.9076 79.9429 70.0214C79.9942 70.2794 79.9728 70.5466 79.8811 70.7931V70.8124L77.3769 78.3327C75.0348 77.507 73.1672 75.6935 72.1679 73.0156L78.6348 69.5429C78.7038 69.5044 78.7761 69.4721 78.8509 69.4465L78.8818 69.4503ZM84.3339 70.4343C84.4973 70.3663 84.6762 70.3449 84.851 70.3725C84.9536 70.3896 85.0511 70.4293 85.1366 70.4887C85.222 70.5481 85.2931 70.6257 85.3449 70.7159H85.368L88.5552 75.9134C88.141 76.2118 87.7166 76.4909 87.2819 76.7507C84.8433 78.2131 82.4124 78.8845 80.2091 78.8344L83.377 71.4105C83.4642 71.1927 83.5937 70.9943 83.7579 70.8268C83.9222 70.6592 84.1179 70.5258 84.3339 70.4343Z" fill="white"/>
<path d="M37.155 9.08307C36.5839 9.27214 36.6379 9.60012 37.2707 9.80848H37.3016L37.564 9.89723C37.9499 10.013 38.301 10.0824 38.6868 10.1789C39.3592 10.3387 40.0226 10.5345 40.674 10.7654C40.7326 10.7876 40.7829 10.8273 40.8181 10.879C40.8533 10.9308 40.8717 10.9922 40.8708 11.0548L41.2837 11.2091C40.7447 11.419 40.2179 11.6586 39.7055 11.9268C37.6335 13.0227 36.7074 14.242 36.8116 15.4613L36.1749 15.496C35.9667 15.6045 35.7379 15.6677 35.5035 15.6812C34.7318 15.7314 33.8791 15.7275 32.8527 15.7275C32.3704 15.7275 31.9691 15.7005 31.452 15.7275H31.0392C30.7036 15.7354 30.3703 15.786 30.0475 15.878C29.7195 15.9783 29.5382 16.125 29.5883 16.2639C29.6771 16.5301 30.4758 16.7192 31.3633 16.6883H31.3903H31.7761C32.2893 16.6613 32.6675 16.6111 33.1344 16.5687C34.1337 16.4915 34.9595 16.4259 35.7505 16.4182C36.0221 16.4313 36.2914 16.4753 36.5531 16.5494H37.1781C38.0733 18.0272 40.5467 19.4009 44.3859 20.3578L44.0811 20.543C44.1158 20.6318 44.1853 20.7591 44.0811 20.8401C43.5864 21.1198 43.0703 21.3597 42.5377 21.5578C42.2251 21.6813 41.9165 21.7739 41.6271 21.9128L41.4148 22.0247C40.9518 22.2755 41.1216 22.5919 41.8007 22.7347C42.5005 22.8747 43.2259 22.8077 43.8882 22.5417L44.0965 22.4337C44.2973 22.3053 44.4882 22.1621 44.6676 22.0054C45.0633 21.7055 45.4887 21.4469 45.9371 21.2337C46.199 21.1615 46.4682 21.1188 46.7397 21.1064L47.1255 20.9289C51.5484 21.6457 56.0429 21.8142 60.507 21.4305L60.7694 21.6427C61.0013 21.6653 61.2287 21.7212 61.4447 21.8086C61.7427 22.0528 61.9949 22.3481 62.1894 22.6807C62.2587 22.845 62.3495 22.9994 62.4595 23.1398C62.4942 23.1784 62.5636 23.2363 62.6061 23.2749C62.9071 23.5527 63.7637 23.707 64.5122 23.6183C65.2608 23.5295 65.6466 23.2324 65.3534 22.9508C65.3109 22.9122 65.2608 22.8581 65.2183 22.8196C65.0112 22.6683 64.7947 22.5304 64.5701 22.4067C64.1572 22.0864 63.5862 21.797 63.5129 21.5231C63.4936 21.4459 63.6132 21.3765 63.7405 21.3031L63.5514 21.0832C66.8659 20.5893 69.7946 19.779 71.8666 18.6832C72.2981 18.4571 72.7122 18.1992 73.1052 17.9115L73.7303 17.9578C74.0087 17.8955 74.2944 17.8721 74.5792 17.8883C75.3509 17.9539 76.1033 18.0812 77.0255 18.2317C77.4538 18.305 77.7973 18.3861 78.2719 18.4478L78.6577 18.4941C79.5028 18.5944 80.4018 18.4671 80.668 18.2124C80.9343 17.9578 80.4713 17.6761 79.6417 17.5758L79.2288 17.5295C78.7349 17.4793 78.322 17.4716 77.8513 17.4407C76.8481 17.3674 76.0185 17.3057 75.2969 17.1976C75.101 17.1798 74.9158 17.1001 74.7683 16.97C74.6834 16.97 74.3477 16.9121 74.1779 16.8889C75.3355 15.3764 74.7606 13.7751 72.6345 12.4092L73.1516 12.2895C73.2056 12.2047 73.2133 12.112 73.5143 12.0272C74.1471 11.869 74.9149 11.7493 75.8294 11.6027C76.2693 11.5371 76.6667 11.4985 77.1143 11.4136L77.4384 11.3442H77.4809C78.2256 11.1821 78.4841 10.8734 78.0596 10.6496C77.3758 10.4078 76.6375 10.3637 75.9297 10.5223L75.5439 10.5995C75.1156 10.696 74.8416 10.8001 74.475 10.9043C73.6763 11.1204 73.0165 11.2902 72.3181 11.4214C72.0203 11.4491 71.7207 11.4491 71.4229 11.4214L70.8827 11.5217C69.2616 10.8359 67.5742 10.3187 65.8473 9.97826C63.7344 9.5482 61.5942 9.26584 59.4421 9.13323C59.4421 9.06378 59.4768 8.93645 59.4807 8.90172C59.3109 8.83612 59.0948 8.77439 59.0948 8.64319C59.1749 8.32039 59.331 8.02141 59.5501 7.77116C59.6865 7.63477 59.8068 7.48331 59.9089 7.31971C59.9089 7.28112 59.9398 7.22324 59.9514 7.18466C60.0517 6.88755 59.4845 6.62131 58.6819 6.5943C57.8793 6.56729 57.1385 6.77951 57.0498 7.07662C57.0498 7.11906 57.0112 7.17308 57.0034 7.21552C56.9896 7.37222 57.0027 7.53012 57.042 7.68241C57.0832 7.98343 57.0377 8.28995 56.9108 8.56602C56.7418 8.68002 56.5515 8.75876 56.3514 8.79754L56.2395 9.02133C51.6516 8.98661 47.1024 9.4998 43.5293 10.4992L43.0432 10.3525C42.7576 10.3717 42.4708 10.3522 42.1904 10.2947C41.5915 10.1115 41.0051 9.88977 40.4348 9.63099C40.1454 9.50365 39.9447 9.38404 39.5936 9.24513L39.2965 9.14867C38.5871 8.93584 37.8329 8.92249 37.1164 9.11008L37.155 9.08307ZM43.8689 12.1699L48.9776 14.0992C49.4407 14.269 49.4291 14.5314 48.939 14.6934C48.7086 14.764 48.4699 14.8042 48.2291 14.813L40.6277 15.2568C40.6508 14.3539 41.3994 13.4433 42.9428 12.6175C43.2477 12.4786 43.5486 12.3358 43.8689 12.2008V12.1699ZM46.458 11.3056C49.4594 10.5791 52.5379 10.2202 55.6259 10.2368L54.341 12.7487H54.3179C54.2137 12.9764 53.5886 13.1346 52.9018 13.1076C52.6564 13.1022 52.4127 13.0659 52.1764 12.9995L46.458 11.3056ZM41.056 16.4491L48.7384 16.3063C49.4214 16.3063 50.0272 16.4568 50.1043 16.6922C50.1352 16.7848 50.0735 16.8774 49.9423 16.9545L46.2458 19.1887C43.5448 18.471 41.7814 17.4947 41.0251 16.4414L41.056 16.4491ZM59.2839 10.3757C60.8225 10.4926 62.3523 10.7066 63.864 11.0162C65.1218 11.2666 66.355 11.6282 67.5489 12.0966L60.8041 13.3622H60.7771C60.2046 13.4746 59.6119 13.4224 59.0678 13.2117C58.9173 13.1307 58.8556 13.042 58.8749 12.9532L59.2993 10.4066L59.2839 10.3757ZM53.2606 15.006L54.9237 14.4503L57.2388 14.5352L58.4774 15.195L57.7057 15.932L55.4909 16.1905L53.5114 15.7777L53.2606 15.006ZM63.0035 14.7011C63.0767 14.6746 63.1514 14.6527 63.2273 14.6355L69.4859 13.1539C70.9097 14.1532 71.3187 15.2915 70.5895 16.3912L63.4665 15.4073C62.8299 15.3224 62.498 15.0831 62.7257 14.8671C62.8016 14.8019 62.8894 14.7521 62.9842 14.7204L63.0035 14.7011ZM53.9745 17.7301C54.4905 17.5894 55.0321 17.5709 55.5565 17.6761C55.7397 17.7043 55.914 17.7742 56.0658 17.8806H56.1005L59.0253 20.2305C55.8065 20.4685 52.5712 20.3482 49.3789 19.8716L53.8047 17.7919H53.824C53.8765 17.7664 53.9306 17.7444 53.9861 17.7263L53.9745 17.7301ZM60.6652 16.9584C60.8329 16.9019 61.0063 16.8644 61.1823 16.8465C61.4465 16.8183 61.7129 16.8183 61.9771 16.8465H61.9964L69.3702 17.5526C69.1209 17.7151 68.8633 17.8645 68.5984 18.0002C67.055 18.8221 64.9019 19.4433 62.471 19.8408L60.3527 17.3867C60.2254 17.2246 60.3604 17.0664 60.6652 16.9584Z" fill="white"/>
</g>
</g>
</g>
<defs>
<clipPath id="clip0_929_4091">
<rect width="110" height="110" fill="white" transform="translate(0.594727)"/>
</clipPath>
<clipPath id="clip1_929_4091">
<rect width="110" height="110" fill="white" transform="translate(0.594727)"/>
</clipPath>
<clipPath id="clip2_929_4091">
<rect width="108.04" height="110" fill="white" transform="translate(1.5752)"/>
</clipPath>
</defs>
</svg>
