<svg width="111" height="32" viewBox="0 0 111 32" fill="none" xmlns="http://www.w3.org/2000/svg">
<g clip-path="url(#clip0_929_3933)">
<g clip-path="url(#clip1_929_3933)">
<path d="M16.7312 29.6273C24.2824 29.6273 30.4038 23.5059 30.4038 15.9547C30.4038 8.40353 24.2824 2.28208 16.7312 2.28208C9.18004 2.28208 3.05859 8.40353 3.05859 15.9547C3.05859 23.5059 9.18004 29.6273 16.7312 29.6273Z" fill="white"/>
<path d="M16.7314 30.651C24.8296 30.651 31.3944 24.0861 31.3944 15.9879C31.3944 7.88975 24.8296 1.32488 16.7314 1.32488C8.63323 1.32488 2.06836 7.88975 2.06836 15.9879C2.06836 24.0861 8.63323 30.651 16.7314 30.651Z" fill="#1E4489"/>
<path d="M16.6741 0.310303C8.0079 0.310303 0.984375 7.33685 0.984375 16C0.984375 24.6632 8.01092 31.6897 16.6741 31.6897C25.3372 31.6897 32.3638 24.6632 32.3638 16C32.3638 7.33685 25.3402 0.310303 16.6741 0.310303ZM16.6741 28.803C9.60525 28.803 3.87411 23.0718 3.87411 16.003C3.87411 8.9342 9.60525 3.20305 16.6741 3.20305C23.7429 3.20305 29.474 8.9342 29.474 16.003C29.474 23.0718 23.7459 28.803 16.6741 28.803Z" fill="#727174"/>
<path d="M48.5211 19.6114H41.6516L40.4136 22.4075H38.8887L44.3209 10.0877H45.8458L51.278 22.4075H49.7531L48.5211 19.6114ZM47.9474 18.2828L45.0969 11.8088L42.2283 18.2828H47.9474ZM53.1471 10.0877H54.5452L62.1847 20.1127V10.0877H63.5827V22.4075H62.1847L54.5452 12.3826V22.4075H53.1471V10.0877ZM69.5917 11.4133H65.4488V10.0877H75.1326V11.4133H70.9897V22.4075H69.5917V11.4133ZM86.0453 15.8973C85.7162 16.459 85.2602 16.921 84.6744 17.2773C84.0886 17.6366 83.4304 17.857 82.7027 17.9416L85.84 22.4075H84.2426L81.1234 17.9778H78.3968V22.4075H76.9987V10.0877H82.0021C82.8385 10.0877 83.6025 10.2568 84.297 10.5889C84.9915 10.9241 85.538 11.3921 85.9366 11.996C86.3382 12.6 86.5375 13.2794 86.5375 14.0312C86.5405 14.7137 86.3745 15.3357 86.0453 15.8973ZM78.3968 16.6522H81.7515C82.7691 16.6522 83.5844 16.4197 84.2004 15.9517C84.8164 15.4837 85.1244 14.8465 85.1244 14.0343C85.1244 13.222 84.8164 12.5818 84.2004 12.1168C83.5844 11.6518 82.7691 11.4163 81.7515 11.4163H78.3968V16.6522ZM90.2516 11.4133V15.4686H96.9399V16.7972H90.2516V21.0819H97.6767V22.4075H88.8354V10.0877H97.6767V11.4133H90.2516ZM108.221 19.6114H101.352L100.114 22.4075H98.5886L104.024 10.0877H105.549L110.984 22.4075H109.459L108.221 19.6114ZM107.644 18.2828L104.794 11.8088L101.925 18.2828H107.644Z" fill="#717073"/>
<path d="M7.9905 25.3999C8.04183 25.4482 8.09618 25.4966 8.14752 25.5418C10.4122 27.568 13.3986 28.8 16.6778 28.8C23.7466 28.8 29.4778 23.0688 29.4778 16C29.4778 14.3423 29.1607 12.76 28.587 11.3076C27.3973 11.5129 26.1653 11.6941 24.9122 11.8722C24.9877 10.761 25.0571 9.65286 25.1447 8.56581C25.661 8.48428 26.1774 8.3937 26.6817 8.29103C26.7451 8.27895 26.8055 8.26386 26.8658 8.25178C26.0204 7.14057 24.9997 6.17129 23.8402 5.38922L23.8131 5.56134C23.7376 6.07165 23.6742 6.59101 23.6198 7.1134C22.5781 7.2523 21.5121 7.37912 20.4462 7.50594C20.5429 6.26792 20.6425 5.04801 20.7693 3.87038C19.486 3.43858 18.1091 3.20003 16.6808 3.20003C9.61201 3.20003 3.88086 8.93118 3.88086 16C3.88086 19.0498 4.94979 21.8489 6.73134 24.0472C6.79173 24.1196 6.85212 24.1951 6.91553 24.2676C6.94874 24.3068 6.98196 24.3461 7.01819 24.3854C7.13596 24.5182 7.25674 24.6511 7.37752 24.7839C7.39262 24.799 7.40772 24.8172 7.42584 24.8322C7.5285 24.9379 7.63117 25.0436 7.73685 25.1493C7.81536 25.2369 7.90293 25.3184 7.9905 25.3999ZM7.90293 18.6149C7.89991 15.7705 8.61857 13.9648 9.8264 12.6845C9.94416 13.7957 9.89887 15.1122 9.60899 16.7338L9.63616 16.7368C8.94468 17.4162 8.35888 18.2073 7.90293 19.1102C7.89991 18.9501 7.90293 18.7871 7.90293 18.6149ZM11.2818 11.5039C12.0669 11.0117 12.9788 10.6282 13.9874 10.3172C13.8998 11.6337 13.776 12.9502 13.5948 14.2517C12.8399 14.5597 12.1213 14.916 11.4539 15.3297C11.5838 13.8561 11.5023 12.6 11.2818 11.5039ZM11.8676 16.9904C12.2994 16.6945 12.7735 16.4258 13.2778 16.1812C13.0724 17.2501 12.8218 18.3009 12.5017 19.3336C11.2063 19.8258 9.96832 20.4207 8.81182 21.1544C9.31609 19.2823 10.385 18.002 11.8676 16.9904ZM10.2008 24.4457C9.87471 24.2948 9.55464 24.1045 9.22248 23.866C9.03527 23.6305 8.87523 23.3979 8.73633 23.1654C9.66032 22.486 10.6719 21.9184 11.7468 21.4322C11.3181 22.4679 10.8078 23.4734 10.2008 24.4457ZM13.7941 20.626C14.7694 20.2938 15.784 20.013 16.8258 19.7745C16.6295 20.2485 16.4121 20.6924 16.1675 21.1061C15.2284 22.7065 13.9843 23.872 12.0699 24.4639C12.7765 23.2228 13.3382 21.9365 13.7941 20.626ZM20.2439 22.7578C19.0753 23.9505 17.4055 24.7205 14.7936 24.9017C15.5334 24.4004 16.1796 23.8026 16.7291 23.1232C18.1 22.8242 19.2505 22.7185 20.2439 22.7578ZM17.9309 21.245C18.2299 20.6532 18.4896 20.0341 18.713 19.3849C19.8997 19.1675 21.1136 18.9864 22.3365 18.8293C22.0889 19.7111 21.7779 20.5173 21.3793 21.2269C20.3707 21.091 19.2354 21.0789 17.9309 21.245ZM24.2298 24.5152C22.6868 26.0582 20.5036 27.0999 16.9979 27.2811C15.7327 27.3476 14.4403 27.0939 13.1993 26.5987C13.619 26.6078 14.0568 26.5987 14.5188 26.5745C18.1242 26.3873 20.5942 25.0466 22.1312 23.0235C23.0733 23.2651 23.8734 23.6456 24.6314 24.0774C24.5015 24.2283 24.3687 24.3733 24.2298 24.5152ZM24.728 14.5657C24.7612 14.2245 24.7884 13.8772 24.8156 13.533C26.1532 13.3488 27.4849 13.1646 28.7863 12.9412C28.4874 14.155 28.2186 15.3659 27.9287 16.5375C27.2282 16.616 26.5186 16.6945 25.806 16.773C25.35 16.8213 24.8941 16.8727 24.4351 16.921C24.5559 16.151 24.6495 15.3599 24.728 14.5657ZM24.0878 18.621C24.6887 18.5515 25.2926 18.4851 25.8935 18.4217C26.4189 18.3643 26.9444 18.31 27.4698 18.2556C27.4547 18.313 27.4396 18.3704 27.4214 18.4247C26.9534 20.007 26.3918 21.4624 25.6278 22.7155C24.8608 22.2868 24.0093 21.8821 23.028 21.5892C23.496 20.6683 23.8342 19.6688 24.0878 18.621ZM20.0567 12.4671C20.1684 11.374 20.256 10.2689 20.3375 9.16369C21.3763 9.04291 22.4301 8.92514 23.4809 8.79228C23.3994 9.89442 23.336 10.9996 23.2665 12.0866C22.2217 12.2316 21.1739 12.3826 20.1413 12.5547C20.1111 12.5607 20.0778 12.5667 20.0476 12.5698C20.0507 12.5366 20.0537 12.5003 20.0567 12.4671ZM19.8423 14.2758C20.0054 14.2456 20.1654 14.2185 20.3315 14.1913C21.2525 14.0343 22.1976 13.8954 23.1457 13.7625C23.1246 14.0071 23.1065 14.2486 23.0853 14.4872C22.9978 15.3961 22.886 16.2778 22.732 17.1142C21.5635 17.2561 20.3949 17.4132 19.2354 17.6064C19.4981 16.5375 19.6883 15.4202 19.8423 14.2758ZM15.8293 6.39172C15.8504 5.84216 15.8655 5.29562 15.8867 4.75813C16.9465 4.4441 18.0336 4.14214 19.1237 3.81301C18.9878 5.08425 18.8881 6.38266 18.7945 7.68712C18.4171 7.73543 18.0427 7.78676 17.6712 7.84414C17.0251 7.94076 16.3849 8.05249 15.7568 8.17629C15.784 7.57841 15.8082 6.98054 15.8293 6.39172ZM15.6693 9.87933C16.3638 9.72835 17.0885 9.59549 17.8313 9.48376C18.1091 9.44149 18.3899 9.40827 18.6707 9.36902C18.5952 10.3836 18.5137 11.3921 18.4141 12.3795C18.3959 12.5486 18.3778 12.7147 18.3597 12.8808C17.321 13.0891 16.3094 13.3337 15.3401 13.6296C15.4941 12.3765 15.5938 11.1234 15.6693 9.87933ZM15.0835 15.4444C16.0346 15.1183 17.0613 14.8465 18.1363 14.611C17.9611 15.7826 17.7377 16.9029 17.4508 17.9355C16.4121 18.1469 15.3884 18.3975 14.389 18.6935C14.6758 17.6215 14.9053 16.5345 15.0835 15.4444ZM13.7579 5.44056C13.9089 5.3862 14.0629 5.33789 14.2169 5.28656C14.2048 5.664 14.1927 6.03843 14.1776 6.4189C14.1504 7.13454 14.1232 7.85621 14.087 8.57789C12.9215 8.90099 11.8193 9.31769 10.8198 9.89442C10.4786 8.96742 10.0468 8.16723 9.59691 7.44857C10.7957 6.61517 12.2088 5.98408 13.7579 5.44056ZM7.89387 8.92816C8.02069 8.78322 8.15657 8.64734 8.29245 8.51146C8.74237 9.21804 9.15001 9.96387 9.43989 10.8456C7.47717 12.4913 6.25122 15.0458 6.25122 18.7025C6.25122 19.08 6.26028 19.4393 6.2784 19.7865C5.79527 18.6451 5.52351 17.4736 5.52351 16.3593C5.52351 12.8023 6.4475 10.5527 7.89387 8.92816Z" fill="#19BFD3"/>
</g>
</g>
<defs>
<clipPath id="clip0_929_3933">
<rect width="110" height="31.38" fill="white" transform="translate(0.984375 0.310001)"/>
</clipPath>
<clipPath id="clip1_929_3933">
<rect width="110" height="31.3794" fill="white" transform="translate(0.984375 0.310303)"/>
</clipPath>
</defs>
</svg>
