<svg width="111" height="16" viewBox="0 0 111 16" fill="none" xmlns="http://www.w3.org/2000/svg">
<g clip-path="url(#clip0_929_4105)">
<g clip-path="url(#clip1_929_4105)">
<g clip-path="url(#clip2_929_4105)">
<path d="M82.5654 8.14689C83.1916 7.48147 83.4232 6.68709 83.2358 5.79774C82.9623 4.49968 81.7286 3.56438 80.3088 3.55775C78.7572 3.5505 77.2054 3.56204 75.6538 3.54988C75.4133 3.548 75.3577 3.60958 75.3595 3.84628C75.3711 5.38728 75.3655 6.9284 75.3655 8.46948C75.3655 10.0212 75.3712 11.5729 75.3594 13.1246C75.3576 13.3641 75.4178 13.4252 75.657 13.4235C77.1873 13.4121 78.7178 13.4181 80.2483 13.4172C80.5248 13.4202 80.8005 13.3868 81.0683 13.318C82.1781 13.0195 82.9974 12.3784 83.3354 11.2526C83.6586 10.1762 83.3476 9.2414 82.5541 8.46642C82.4112 8.32681 82.4531 8.26623 82.5654 8.14689ZM77.2016 5.28893C77.1988 5.10746 77.2712 5.08198 77.4255 5.08484C77.8719 5.0931 78.3185 5.08776 78.765 5.0879C79.2009 5.08805 79.6371 5.07672 80.0725 5.09039C81.003 5.1196 81.5675 5.72625 81.4381 6.54244C81.3567 7.05656 80.9589 7.41772 80.3599 7.51453C79.7364 7.61529 79.1079 7.5503 78.4818 7.56466C78.1311 7.5727 77.78 7.55986 77.4294 7.56891C77.2732 7.57295 77.2 7.54087 77.2023 7.36184C77.2113 6.67095 77.2122 5.97977 77.2016 5.28893ZM81.5549 10.8958C81.4833 11.1553 81.3325 11.3859 81.1235 11.5556C80.9145 11.7253 80.6578 11.8256 80.3891 11.8424C79.3843 11.9446 78.3722 11.865 77.3634 11.8838C77.2331 11.8863 77.2044 11.8248 77.2048 11.71C77.2074 10.8918 77.2094 10.0735 77.2035 9.2553C77.2024 9.09145 77.2953 9.0969 77.4076 9.09732C77.8858 9.09909 78.364 9.09807 78.8422 9.09807L78.8422 9.10602C79.3203 9.10602 79.7999 9.08212 80.2762 9.11105C81.2354 9.16929 81.831 10.0098 81.5549 10.8958Z" fill="#4C0067"/>
<path d="M37.204 5.6863C38.0667 4.80521 39.1524 4.7377 40.2818 4.86477C40.7985 4.92291 41.2219 5.10141 41.7311 5.49968C41.9407 5.69883 42.2025 5.94486 42.2025 5.94486L43.8209 5.95552C44.0728 5.9761 44.0768 5.86248 44.0225 5.67674C43.8119 4.9672 43.3575 4.35476 42.7396 3.94735C41.9029 3.36694 40.9533 3.12632 39.9527 3.07079C38.566 2.99384 37.2534 3.24382 36.1468 4.13399C34.5445 5.42285 34.0807 7.17296 34.3082 9.12901C34.5323 11.0549 35.4931 12.5126 37.343 13.2298C38.9195 13.8411 40.5281 13.7933 42.0927 13.1359C43.0558 12.7313 43.6823 11.9946 44.0119 11.0026C44.0774 10.8055 44.0616 10.7208 43.818 10.7291C43.3083 10.7465 42.7974 10.7429 42.2875 10.7301C42.1768 10.7273 41.9895 10.7133 41.9895 10.7133C41.9895 10.7133 41.8974 10.8737 41.8463 10.9537C41.5512 11.4149 41.109 11.6757 40.5765 11.7858C40.0656 11.8889 39.5414 11.9093 39.024 11.8463C37.8073 11.7051 36.9513 11.0819 36.5541 9.89919C36.2406 8.95511 36.2187 7.93848 36.4914 6.9818C36.6118 6.49518 36.8574 6.04854 37.204 5.6863Z" fill="#4C0067"/>
<path d="M102.16 3.86674V3.54193C101.6 3.70075 101.094 3.85901 100.58 3.98235C100.372 4.03216 100.311 4.11336 100.315 4.32172C100.328 5.04452 100.308 5.768 100.327 6.49053C100.333 6.73911 100.255 6.79201 100.024 6.78285C99.5672 6.76476 99.1094 6.77171 98.6523 6.77861C97.0878 6.80223 96.0086 7.60629 95.631 9.02041C95.5571 9.30859 95.5154 9.60412 95.5069 9.90153C95.4315 11.8422 96.4385 13.2998 98.458 13.3909C99.5827 13.4416 100.711 13.4024 101.838 13.4241C102.11 13.4294 102.167 13.3439 102.166 13.0853C102.157 10.0125 102.16 6.93961 102.16 3.86674ZM100.113 11.9946C99.6464 11.9821 99.1786 12.0003 98.7118 11.9853C97.9872 11.962 97.5711 11.6205 97.4144 10.9109C97.2811 10.3286 97.2929 9.72237 97.4488 9.14564C97.5976 8.60004 97.9781 8.25716 98.5343 8.22244C99.0739 8.18876 99.6169 8.21412 100.158 8.20171C100.351 8.19728 100.32 8.31849 100.32 8.43148C100.32 8.99432 100.32 9.55716 100.32 10.12C100.32 10.6722 100.314 11.2245 100.323 11.7766C100.326 11.9391 100.287 11.9992 100.113 11.9946Z" fill="#4C0067"/>
<path d="M110.708 9.58931C110.66 8.66626 110.436 7.8025 109.763 7.12056C108.899 6.24677 107.808 6.0727 106.649 6.15307C105.362 6.24232 104.343 6.77469 103.775 7.99093C103.417 8.75547 103.373 9.57111 103.458 10.3913C103.624 11.991 104.596 13.0684 106.172 13.3293C107.435 13.5385 108.717 13.3817 109.991 13.4162C110.156 13.4207 110.137 13.3025 110.137 13.1965C110.137 12.835 110.125 12.473 110.142 12.1124C110.152 11.9017 110.085 11.8455 109.876 11.8478C108.909 11.8588 107.942 11.8573 106.974 11.8513C106.127 11.846 105.615 11.3811 105.505 10.5243C105.557 10.5203 105.609 10.5129 105.661 10.5129C107.043 10.5123 108.425 10.516 109.807 10.5094C110.1 10.508 110.501 10.5417 110.658 10.3501C110.806 10.1693 110.723 9.88353 110.708 9.58931ZM108.394 9.11298C107.949 9.09781 107.503 9.10839 107.058 9.10838C106.602 9.10837 106.146 9.10208 105.69 9.11167C105.523 9.11518 105.468 9.0797 105.503 8.90059C105.656 8.13036 106.179 7.71044 107.025 7.69454C107.892 7.67824 108.434 8.08067 108.614 8.85289C108.665 9.07078 108.606 9.12024 108.394 9.11298Z" fill="#4C0067"/>
<path d="M51.2072 8.47117C51.2137 7.89019 51.0001 7.32829 50.6094 6.89827C50.2186 6.46826 49.6797 6.20197 49.1008 6.15286C48.5714 6.10885 48.0396 6.09986 47.5091 6.12595C47.232 6.13345 47.1281 6.07676 47.1389 5.77066C47.1647 5.04059 47.1472 4.30901 47.1472 3.548C46.5567 3.71065 45.9971 3.86705 45.4359 4.01771C45.2923 4.05628 45.3065 4.16017 45.3065 4.26706C45.3071 7.24322 45.3058 10.2194 45.3027 13.1955C45.3023 13.387 45.3713 13.4245 45.5419 13.4208C45.9775 13.4113 46.4139 13.4053 46.849 13.4226C47.0819 13.4319 47.1554 13.371 47.1534 13.1248C47.1411 11.5943 47.1435 10.0636 47.1503 8.53308C47.1517 8.2186 47.0865 7.92974 47.287 7.74969C47.4602 7.59418 47.796 7.56814 48.1021 7.56731C48.9342 7.56506 49.3802 8.0113 49.3806 8.84249C49.3814 10.2774 49.3841 11.7124 49.377 13.1473C49.376 13.3442 49.4119 13.432 49.6352 13.4229C50.0702 13.405 50.5068 13.408 50.9422 13.4219C51.146 13.4284 51.2177 13.3758 51.2165 13.1586C51.2075 11.5961 51.225 10.0335 51.2072 8.47117Z" fill="#4C0067"/>
<path d="M65.1199 6.28212C63.7663 5.76627 62.4178 5.82487 61.2286 6.74634C60.2513 7.50367 59.9823 8.59911 59.9512 9.71992C59.9701 11.9275 61.154 13.4068 63.2228 13.5495C64.9937 13.6717 66.5488 12.908 67.044 10.9718C67.1959 10.3731 67.2302 9.75066 67.145 9.13892C66.9693 7.82915 66.3991 6.76963 65.1199 6.28212ZM65.1105 11.052C64.8447 11.8029 64.2182 12.1276 63.3185 12.0437C62.5781 11.9746 62.069 11.4792 61.9051 10.664C61.8455 10.3724 61.8192 10.0749 61.8265 9.77735C61.8089 9.34126 61.8765 8.90592 62.0254 8.49565C62.277 7.84396 62.7764 7.50995 63.5046 7.5025C64.334 7.494 64.8405 7.77869 65.0955 8.46425C65.4109 9.2971 65.4162 10.2156 65.1105 11.052Z" fill="#4C0067"/>
<path d="M94.2887 8.83618C94.2942 8.17624 94.055 7.53767 93.6174 7.04364C93.1798 6.54962 92.5748 6.23516 91.919 6.16092C91.105 6.06072 90.2845 6.14099 89.4673 6.11762C89.3242 6.11353 89.2847 6.17431 89.287 6.30682C89.2927 6.63615 89.3041 6.9666 89.2836 7.29477C89.2689 7.53079 89.3622 7.57607 89.575 7.57075C90.1167 7.5572 90.659 7.55993 91.2008 7.56812C91.4623 7.57837 91.7146 7.6671 91.925 7.82274C92.1353 7.97839 92.294 8.19375 92.3802 8.4408C92.4327 8.60037 92.4183 8.66843 92.2248 8.66515C91.6512 8.6554 91.077 8.6529 90.5034 8.66372C89.3849 8.68483 88.3577 9.42158 88.0707 10.3958C87.6584 11.7952 88.6743 13.2463 90.216 13.3789C91.5075 13.49 92.8069 13.3975 94.1025 13.4201C94.3026 13.4236 94.2906 13.3054 94.2903 13.172C94.2888 12.4281 94.2885 11.6842 94.2896 10.9403C94.2896 10.2389 94.2937 9.53752 94.2887 8.83618ZM92.4586 11.9295L90.8704 11.9769C90.2541 11.9434 89.8143 11.5838 89.8016 11.1328C89.7886 10.6716 90.22 10.2246 90.7833 10.122C91.2884 10.0301 91.7989 10.0956 92.3065 10.076C92.4423 10.0707 92.4609 10.1485 92.4596 10.2578C92.4564 10.5229 92.4586 11.6644 92.4586 11.9295Z" fill="#4C0067"/>
<path d="M58.8048 8.8127C58.8043 8.15831 58.5636 7.52686 58.1284 7.03823C57.6931 6.54961 57.0935 6.23784 56.4435 6.16211C55.6294 6.06125 54.8091 6.14271 53.9921 6.11707C53.8253 6.11183 53.8007 6.19191 53.8033 6.33056C53.8096 6.65987 53.8162 6.98988 53.8012 7.31862C53.7922 7.51491 53.8535 7.57539 54.0515 7.57068C54.5932 7.5578 55.1354 7.56262 55.6773 7.56731C55.9334 7.56864 56.1834 7.64614 56.3954 7.78995C56.6073 7.93376 56.7717 8.13739 56.8677 8.37491C56.9532 8.57814 56.9593 8.67536 56.6858 8.66682C56.1338 8.64958 55.5807 8.65388 55.0283 8.66347C53.9084 8.68291 52.8877 9.40888 52.5888 10.3875C52.1646 11.7758 53.1847 13.2429 54.7245 13.378C56.0158 13.4913 57.3153 13.3968 58.6108 13.4204C58.8018 13.4238 58.8083 13.3223 58.8077 13.1802C58.8044 12.4364 58.8061 11.6925 58.8061 10.9486C58.8061 10.2367 58.8125 9.5246 58.8048 8.8127ZM57.0225 11.9208C57.0225 11.9208 56.3265 11.9788 56.0132 11.9874C55.686 11.9964 55.3551 12.0181 55.0349 11.9163C54.6683 11.7998 54.3707 11.5961 54.3301 11.1862C54.2923 10.8035 54.4982 10.5226 54.8101 10.3146C55.0733 10.1523 55.378 10.07 55.6872 10.078L57.0225 10.0368L57.0225 11.9208Z" fill="#4C0067"/>
<path d="M72.5818 9.34378C72.3008 9.21919 72.0106 9.11678 71.7137 9.03748C71.104 8.85891 70.4703 8.75845 69.8901 8.48422C69.736 8.41135 69.5727 8.33471 69.5964 8.11783C69.619 7.91117 69.7565 7.80043 69.9394 7.74157C70.185 7.67266 70.4399 7.64236 70.6949 7.65176C71.4286 7.64983 72.1624 7.64496 72.896 7.65512C73.0943 7.65786 73.1721 7.6189 73.1708 7.39602C73.1687 7.01677 73.1835 6.73608 73.1702 6.37569C73.1807 6.15806 73.0965 6.11231 72.8949 6.11491C72.0762 6.12545 71.2573 6.11317 70.4386 6.12182C70.0128 6.12128 69.5911 6.205 69.1977 6.36814C68.2896 6.75438 67.8027 7.583 67.9837 8.47837C68.1636 9.36829 68.7119 9.90869 69.5947 10.1277C70.2832 10.2985 70.9853 10.4313 71.6274 10.7528C71.8359 10.8573 72.0722 10.9609 72.0382 11.2541C72.0006 11.5782 71.7573 11.7125 71.4734 11.779C71.3581 11.7985 71.241 11.8051 71.1242 11.7985C70.2735 11.7999 69.4228 11.8039 68.5722 11.7956C68.3896 11.7938 68.2998 11.8242 68.3084 12.0353C68.3239 12.4175 68.3206 12.801 68.3093 13.1834C68.3041 13.3628 68.36 13.4255 68.5435 13.4213C69.0111 13.4103 69.4792 13.4176 69.9471 13.4176C70.3724 13.4176 70.7977 13.42 71.2231 13.417C71.6492 13.426 72.0724 13.345 72.4651 13.1791C73.2867 12.8074 73.7177 12.1632 73.7707 11.2638C73.825 10.3444 73.3949 9.72733 72.5818 9.34378Z" fill="#4C0067"/>
<path d="M86.6317 8.4698C86.6317 6.91862 86.6287 5.36743 86.6353 3.81629C86.6362 3.60867 86.6093 3.53562 86.3773 3.61131C85.9244 3.75907 85.4626 3.88147 85.0006 3.99877C84.9697 4.00136 84.9397 4.01033 84.9125 4.0251C84.8852 4.03987 84.8613 4.06012 84.8423 4.08457C84.8232 4.10903 84.8095 4.13717 84.8018 4.16721C84.7942 4.19725 84.7929 4.22854 84.7979 4.25912C84.8018 7.23398 84.8012 10.2088 84.796 13.1837C84.7955 13.3979 84.881 13.425 85.0593 13.4209C85.484 13.411 85.9098 13.4039 86.3339 13.4231C86.5718 13.4339 86.6392 13.3651 86.6375 13.1233C86.6263 11.5722 86.6317 10.021 86.6317 8.4698Z" fill="#4C0067"/>
<path d="M16.5424 13.0433C16.5086 12.8797 16.5018 12.7118 16.5222 12.5461C16.523 12.5407 16.5242 12.5356 16.525 12.5303C16.4798 12.4765 16.4555 12.4082 16.4566 12.338C16.409 11.8464 16.4726 11.3603 16.5413 10.8753C16.5465 10.8337 16.561 10.7937 16.5838 10.7585C16.6065 10.7233 16.637 10.6937 16.6729 10.6719C16.6711 10.6713 16.6693 10.6708 16.6675 10.6702C16.5822 10.3235 16.6361 10.0146 16.8896 9.75948C16.8611 9.60783 16.8757 9.45122 16.9317 9.30744C16.9877 9.16366 17.083 9.03848 17.2066 8.94612C17.1939 8.82719 17.2146 8.70707 17.2664 8.59924C17.3181 8.49141 17.3989 8.40014 17.4997 8.33567C17.4617 8.17919 17.5375 8.09145 17.6733 8.03988C17.6668 8.03445 17.6596 8.03005 17.6535 8.02405C17.6472 8.01511 17.6411 8.00612 17.6349 7.99717C17.5138 8.05855 17.3773 8.08297 17.2424 8.06738C12.5905 8.06969 7.93866 8.06878 3.28678 8.06465C3.14055 8.06447 2.96067 8.11173 2.86086 7.95889C2.8427 7.98369 2.82226 8.00672 2.7998 8.02769C2.94106 8.08202 3.02239 8.17056 2.98795 8.32514C3.21078 8.4532 3.27846 8.57669 3.23436 8.78348C3.24092 8.79894 3.24808 8.81403 3.25437 8.82964C3.46687 8.89685 3.53322 9.04885 3.53029 9.24101C3.6927 9.36062 3.8406 9.4869 3.76498 9.71147C3.76555 9.71298 3.76628 9.71441 3.76685 9.71592C3.94475 9.78071 4.02979 9.89933 4.00175 10.0835C4.22157 10.2066 4.28114 10.3213 4.24502 10.5407L4.27117 10.5858C4.44126 10.6305 4.50759 10.7339 4.47171 10.8951C4.57206 10.9453 4.65507 11.0244 4.71003 11.1222C4.76499 11.22 4.78938 11.332 4.78004 11.4439C5.04353 11.6223 5.1894 11.8712 5.16626 12.0979L5.19688 12.1474C5.40679 12.1828 5.48987 12.3256 5.52927 12.5054C5.77537 12.5738 5.92764 12.7792 6.10401 12.9461C6.12262 12.9607 6.1368 12.9801 6.14495 13.0022C6.1531 13.0244 6.15491 13.0484 6.15016 13.0715L6.16372 13.083C6.27277 13.0804 6.38079 13.1048 6.47822 13.1538C6.57566 13.2029 6.65952 13.2751 6.72242 13.3642C7.25313 13.4473 7.75692 13.6551 8.29462 13.7102C8.30288 13.7128 8.31128 13.7137 8.31959 13.7159C8.47035 13.6318 8.64583 13.6648 8.80992 13.6645C11.2498 13.6606 13.6896 13.6603 16.1295 13.6634C16.3589 13.6636 16.5807 13.6616 16.7377 13.4573L16.7377 13.4572C16.7347 13.4488 16.7329 13.4403 16.73 13.4319C16.5507 13.3664 16.5769 13.1841 16.5424 13.0433Z" fill="#FCB3CF"/>
<path d="M18.6699 2.12256C18.8597 1.63633 19.1263 1.1837 19.4595 0.781922C19.5455 0.678895 19.6332 0.577401 19.7416 0.450057C19.6345 0.450057 19.558 0.450022 19.4815 0.450063C15.6743 0.452072 11.867 0.454556 8.0598 0.457514C7.87355 0.463652 7.68789 0.481896 7.504 0.51213C7.04356 0.572917 6.62021 0.755483 6.19639 0.92471C5.72707 1.12218 5.28818 1.38533 4.89288 1.70626C4.53097 1.99297 4.20196 2.31893 3.91191 2.67818C3.7371 2.90132 3.58033 3.13802 3.44307 3.38604C3.29638 3.63686 3.14681 3.88746 3.00378 4.14021C2.79588 4.50761 2.58557 4.87366 2.37286 5.23838C2.14456 5.6299 1.92151 6.02518 1.68599 6.41303C1.38644 6.90633 1.13676 7.42931 0.814453 7.90993V8.02684C0.900432 8.21351 1.02233 8.38023 1.11764 8.56048C1.24815 8.80731 1.38793 9.04863 1.53829 9.28234C1.73195 9.58334 1.87972 9.90915 2.06928 10.2127C2.18284 10.3946 2.28897 10.5853 2.39114 10.7763C2.51166 11.0017 2.66734 11.209 2.77796 11.4385C2.90937 11.7112 3.06632 11.9708 3.22121 12.2267C3.36034 12.4566 3.49335 12.6941 3.64193 12.9205C3.80617 13.1603 3.98404 13.3905 4.17465 13.6099C4.39917 13.873 4.65379 14.1087 4.93328 14.3124C5.38859 14.658 5.88973 14.9387 6.42232 15.1463C7.02267 15.3852 7.6621 15.5109 8.30823 15.5169C11.9597 15.5148 15.6111 15.5146 19.2625 15.5165C19.3556 15.5165 19.4487 15.5262 19.5419 15.53C19.5942 15.5322 19.6522 15.5253 19.6754 15.4764C19.6965 15.4319 19.6436 15.4025 19.6179 15.372C19.4002 15.1134 19.1999 14.8407 19.0183 14.5555C18.8355 14.2598 18.6822 13.9467 18.5608 13.6209C18.4874 13.3981 18.4325 13.1697 18.3968 12.9379C18.2965 12.4535 18.2573 11.9586 18.28 11.4645C18.3306 10.4632 18.6391 9.49194 19.1756 8.64501C19.308 8.45469 19.4515 8.27239 19.6054 8.09907C19.686 8.00057 19.7075 7.9734 19.6178 7.88022C19.066 7.3073 18.7454 6.60827 18.5096 5.86162C18.3293 5.26916 18.2494 4.65068 18.2733 4.03185C18.2913 3.37694 18.4256 2.73045 18.6699 2.12256ZM17.2129 8.14328C17.0637 8.37073 16.9357 8.61137 16.8305 8.86218C16.7548 9.06554 16.644 9.25396 16.5733 9.46149C16.375 10.0843 16.249 10.7279 16.1977 11.3795C16.1695 11.6279 16.1694 11.8787 16.1973 12.1271C16.2299 12.4429 16.2572 12.7136 16.3164 13.0143C16.3313 13.0904 16.3614 13.1633 16.3762 13.2394C16.3855 13.2653 16.3884 13.2931 16.3848 13.3205C16.3812 13.3478 16.3711 13.3739 16.3554 13.3965C16.3397 13.4192 16.3188 13.4377 16.2945 13.4507C16.2702 13.4637 16.2431 13.4707 16.2156 13.4711C16.173 13.4758 16.1301 13.4771 16.0873 13.475C14.7934 13.4752 13.4996 13.4752 12.2057 13.4751C10.9509 13.4751 9.69594 13.4826 8.44116 13.4719C7.83915 13.4664 7.24771 13.3131 6.71889 13.0253C6.22556 12.7567 5.795 12.3861 5.45579 11.9384C5.30892 11.7469 5.18233 11.5407 5.07806 11.3231C4.92508 11.0062 4.71503 10.7251 4.5491 10.4168C4.37039 10.0848 4.18096 9.75821 3.9936 9.43113C3.78932 9.0745 3.59694 8.71025 3.37079 8.36566C3.30565 8.26641 3.26419 8.15093 3.19051 8.05416C3.15904 8.01282 3.1764 7.96797 3.20089 7.92385C3.3552 7.64577 3.50215 7.36348 3.66145 7.08833C3.88304 6.70558 4.12427 6.33383 4.33557 5.94566C4.45038 5.73474 4.5833 5.53469 4.68962 5.318C4.80158 5.08983 4.95174 4.88058 5.0813 4.66077C5.13243 4.57403 5.17119 4.48011 5.21868 4.39112C5.61142 3.703 6.21445 3.15893 6.93921 2.83882C7.4114 2.60855 7.91012 2.52835 8.42641 2.49959C8.63277 2.4881 8.83846 2.48728 9.04436 2.48717C11.3242 2.4858 13.604 2.48542 15.8838 2.48604C15.985 2.48602 16.0863 2.48249 16.1875 2.47988C16.3606 2.47542 16.4218 2.54908 16.3754 2.71796C16.3388 2.83665 16.3097 2.95752 16.2883 3.07986C16.1915 3.64732 16.1701 4.2251 16.2248 4.79817C16.2586 5.07825 16.2833 5.36084 16.3405 5.63636C16.4283 6.0682 16.5605 6.48977 16.7352 6.89431C16.8188 7.08581 16.9156 7.27091 16.9986 7.46248C17.0629 7.61091 17.1749 7.73466 17.2338 7.8892C17.2532 7.92961 17.2614 7.97443 17.2577 8.01908C17.2541 8.06373 17.2386 8.1066 17.2129 8.14328Z" fill="url(#paint0_linear_929_4105)"/>
<path d="M23.9052 15.5148C23.4533 15.5135 23.0014 15.5108 22.5495 15.5066C22.4181 15.5054 22.2869 15.5077 22.1562 15.5185H23.9497C23.9344 15.5174 23.9193 15.5148 23.9052 15.5148Z" fill="url(#paint1_linear_929_4105)"/>
<path d="M22.4362 0.453177C22.9309 0.45916 23.4258 0.452053 23.9207 0.450079L23.9357 0.450043H22.0605C22.1856 0.458519 22.311 0.459566 22.4362 0.453177Z" fill="url(#paint2_linear_929_4105)"/>
<path d="M26.7663 10.2862C26.7667 8.78581 26.7666 7.28541 26.7659 5.785C26.7659 5.64101 26.7708 5.49686 26.7654 5.35307C26.7591 5.1846 26.7029 5.12873 26.5366 5.12626C26.2872 5.12257 26.0378 5.12259 25.7884 5.12633C25.6031 5.1294 25.5523 5.18338 25.5525 5.36675C25.553 5.68232 25.5572 5.99788 25.5583 6.31345C25.5589 6.46336 25.5205 6.50324 25.3741 6.50339C24.6453 6.50411 23.9165 6.50515 23.1878 6.50259C23.1096 6.50553 23.032 6.48905 22.9618 6.45462C22.8915 6.42018 22.831 6.36887 22.7854 6.30528C22.703 6.19229 22.6163 6.08218 22.5273 5.9742C22.3682 5.77247 22.2439 5.54556 22.1595 5.30285C22.0292 4.92794 21.9668 4.53278 21.9752 4.13595C21.9882 3.98188 22.0094 3.82862 22.0386 3.6768C22.0668 3.38836 22.1282 3.10415 22.2218 2.82987C22.5058 1.98783 23.0364 1.25062 23.7447 0.713949C23.8496 0.632788 23.9545 0.55153 24.0855 0.450054L24.0499 0.450043H23.9359L23.9209 0.450079C23.426 0.452053 22.9311 0.45916 22.4364 0.453177C22.3112 0.459566 22.1858 0.458519 22.0607 0.450043H21.7952C21.7769 0.45229 21.7573 0.449638 21.7393 0.452296C21.6059 0.461845 21.4804 0.519386 21.3861 0.614281C21.2584 0.759346 21.1343 0.908545 21.0203 1.06447C20.8872 1.24561 20.7649 1.4345 20.6541 1.63016C20.516 1.87267 20.3972 2.12564 20.2986 2.38674C20.2246 2.58583 20.169 2.79068 20.1148 2.99715C19.9989 3.43873 19.9928 3.88663 19.9682 4.33529C19.9663 4.45293 19.9709 4.57059 19.9818 4.68774C20.0034 4.93212 20.0406 5.17486 20.0931 5.41449C20.1282 5.61283 20.1941 5.80913 20.2482 6.00495C20.3623 6.38285 20.5216 6.74557 20.7228 7.08517C20.8921 7.38091 21.091 7.65874 21.3163 7.91441C21.3575 7.96192 21.3867 8.01152 21.329 8.06623C21.2079 8.19747 21.0968 8.33761 20.9966 8.48547C20.5546 9.05157 20.2965 9.70068 20.1282 10.3875C20.0543 10.6813 20.0111 10.9819 19.9993 11.2846C19.9899 11.5634 19.9714 11.8393 19.984 12.1201C20.0048 12.5159 20.0736 12.9076 20.1888 13.2867C20.3996 14.0037 20.7848 14.6321 21.2413 15.2175C21.3518 15.3671 21.5111 15.4735 21.6916 15.5185H22.156C22.2867 15.5077 22.4179 15.5054 22.5493 15.5066C23.0012 15.5107 23.4531 15.5134 23.905 15.5148C23.9191 15.5148 23.9342 15.5175 23.9495 15.5185C23.956 15.5189 23.9624 15.5189 23.9689 15.5185C23.9803 15.518 23.9914 15.5149 24.0015 15.5095C24.0115 15.5041 24.0202 15.4966 24.027 15.4874C23.8957 15.3744 23.7701 15.258 23.636 15.1525C23.3144 14.906 23.0324 14.6118 22.7999 14.28C22.4485 13.7518 22.2015 13.1611 22.0723 12.54C21.9851 12.132 21.9633 11.7126 22.0079 11.2977C22.0466 10.9369 22.1604 10.5881 22.3419 10.2739C22.4883 9.99889 22.6871 9.75512 22.927 9.55629C22.9904 9.50362 23.0704 9.47484 23.1528 9.47494C23.8737 9.47644 24.5945 9.47839 25.3154 9.48081C25.5064 9.48137 25.5585 9.53231 25.5576 9.72377C25.5561 10.0198 25.5504 10.3158 25.5509 10.6118C25.5512 10.7588 25.604 10.8179 25.7498 10.8346C26.0167 10.8652 26.2861 10.8657 26.5531 10.8362C26.7102 10.8189 26.7502 10.7664 26.7687 10.6128C26.7744 10.504 26.7736 10.3949 26.7663 10.2862Z" fill="url(#paint3_linear_929_4105)"/>
<path d="M23.9355 0.450049H24.0496C24.0006 0.450027 23.9664 0.449978 23.9355 0.450049Z" fill="url(#paint4_linear_929_4105)"/>
<path d="M23.9355 0.450049H24.0496C24.0006 0.450027 23.9664 0.449978 23.9355 0.450049Z" fill="url(#paint5_linear_929_4105)"/>
<path d="M23.9686 15.5185C23.9621 15.5189 23.9557 15.5189 23.9492 15.5185H23.9686Z" fill="url(#paint6_linear_929_4105)"/>
</g>
</g>
</g>
<defs>
<linearGradient id="paint0_linear_929_4105" x1="10.278" y1="3.56954" x2="10.278" y2="18.9749" gradientUnits="userSpaceOnUse">
<stop stop-color="#F60664"/>
<stop offset="0.61895" stop-color="#540067"/>
</linearGradient>
<linearGradient id="paint1_linear_929_4105" x1="22.2685" y1="0.219889" x2="22.9211" y2="12.9452" gradientUnits="userSpaceOnUse">
<stop stop-color="#F60664"/>
<stop offset="0.21708" stop-color="#F30664"/>
<stop offset="0.37478" stop-color="#EA0664"/>
<stop offset="0.51378" stop-color="#DA0565"/>
<stop offset="0.64193" stop-color="#C30465"/>
<stop offset="0.76263" stop-color="#A70365"/>
<stop offset="0.87781" stop-color="#830266"/>
<stop offset="0.9866" stop-color="#5A0067"/>
<stop offset="1" stop-color="#540067"/>
</linearGradient>
<linearGradient id="paint2_linear_929_4105" x1="22.9844" y1="0.18344" x2="23.637" y2="12.9086" gradientUnits="userSpaceOnUse">
<stop stop-color="#F60664"/>
<stop offset="0.21708" stop-color="#F30664"/>
<stop offset="0.37478" stop-color="#EA0664"/>
<stop offset="0.51378" stop-color="#DA0565"/>
<stop offset="0.64193" stop-color="#C30465"/>
<stop offset="0.76263" stop-color="#A70365"/>
<stop offset="0.87781" stop-color="#830266"/>
<stop offset="0.9866" stop-color="#5A0067"/>
<stop offset="1" stop-color="#540067"/>
</linearGradient>
<linearGradient id="paint3_linear_929_4105" x1="22.9362" y1="0.185926" x2="23.5888" y2="12.911" gradientUnits="userSpaceOnUse">
<stop stop-color="#F60664"/>
<stop offset="0.21708" stop-color="#F30664"/>
<stop offset="0.37478" stop-color="#EA0664"/>
<stop offset="0.51378" stop-color="#DA0565"/>
<stop offset="0.64193" stop-color="#C30465"/>
<stop offset="0.76263" stop-color="#A70365"/>
<stop offset="0.87781" stop-color="#830266"/>
<stop offset="0.9866" stop-color="#5A0067"/>
<stop offset="1" stop-color="#540067"/>
</linearGradient>
<linearGradient id="paint4_linear_929_4105" x1="23.9763" y1="0.132578" x2="24.6289" y2="12.8576" gradientUnits="userSpaceOnUse">
<stop stop-color="#F60664"/>
<stop offset="0.21708" stop-color="#F30664"/>
<stop offset="0.37478" stop-color="#EA0664"/>
<stop offset="0.51378" stop-color="#DA0565"/>
<stop offset="0.64193" stop-color="#C30465"/>
<stop offset="0.76263" stop-color="#A70365"/>
<stop offset="0.87781" stop-color="#830266"/>
<stop offset="0.9866" stop-color="#5A0067"/>
<stop offset="1" stop-color="#540067"/>
</linearGradient>
<linearGradient id="paint5_linear_929_4105" x1="23.9763" y1="0.132578" x2="24.6289" y2="12.8576" gradientUnits="userSpaceOnUse">
<stop stop-color="#F60664"/>
<stop offset="0.21708" stop-color="#F30664"/>
<stop offset="0.37478" stop-color="#EA0664"/>
<stop offset="0.51378" stop-color="#DA0565"/>
<stop offset="0.64193" stop-color="#C30465"/>
<stop offset="0.76263" stop-color="#A70365"/>
<stop offset="0.87781" stop-color="#830266"/>
<stop offset="0.9866" stop-color="#5A0067"/>
<stop offset="1" stop-color="#540067"/>
</linearGradient>
<linearGradient id="paint6_linear_929_4105" x1="23.7516" y1="11.4758" x2="24.1661" y2="19.5602" gradientUnits="userSpaceOnUse">
<stop stop-color="#F60664"/>
<stop offset="0.21708" stop-color="#F30664"/>
<stop offset="0.37478" stop-color="#EA0664"/>
<stop offset="0.51378" stop-color="#DA0565"/>
<stop offset="0.64193" stop-color="#C30465"/>
<stop offset="0.76263" stop-color="#A70365"/>
<stop offset="0.87781" stop-color="#830266"/>
<stop offset="0.9866" stop-color="#5A0067"/>
<stop offset="1" stop-color="#540067"/>
</linearGradient>
<clipPath id="clip0_929_4105">
<rect width="110" height="15.08" fill="white" transform="translate(0.785156 0.450012)"/>
</clipPath>
<clipPath id="clip1_929_4105">
<rect width="110" height="15.08" fill="white" transform="translate(0.785156 0.450012)"/>
</clipPath>
<clipPath id="clip2_929_4105">
<rect width="109.941" height="15.08" fill="white" transform="translate(0.814453 0.450012)"/>
</clipPath>
</defs>
</svg>
