<svg width="111" height="92" viewBox="0 0 111 92" fill="none" xmlns="http://www.w3.org/2000/svg">
<g clip-path="url(#clip0_929_3976)">
<g clip-path="url(#clip1_929_3976)">
<path d="M36.7795 21.6118C36.6936 22.4415 36.665 23.2998 36.665 24.1581C36.665 34.9151 43.4454 44.1272 52.9722 47.6747C62.4704 44.1272 69.2794 34.9151 69.2794 24.1581C69.2794 23.2998 69.2508 22.4415 69.1649 21.6118C64.8164 17.8927 59.1518 15.6326 53.0008 15.6326C46.7926 15.6326 41.1281 17.8641 36.7795 21.6118Z" stroke="white" stroke-width="0.296322"/>
<path d="M52.9438 15.6326C59.0947 15.6326 64.7593 17.8927 69.1079 21.6119L78.6919 16.5194C74.2289 11.7417 68.4785 8.22281 61.9842 6.47766C59.0947 5.70521 56.0621 5.30469 52.9438 5.30469C49.8254 5.30469 46.7928 5.70521 43.8747 6.47766C37.3804 8.1942 31.63 11.7417 27.167 16.5194L36.751 21.6119C41.1282 17.8641 46.7928 15.6326 52.9438 15.6326Z" fill="url(#paint0_linear_929_3976)" stroke="white" stroke-width="0.296322"/>
<path d="M78.6925 16.5194L69.1371 21.5832C69.2229 22.4129 69.2515 23.2712 69.2515 24.1294C69.2515 34.8865 62.4712 44.0986 52.9443 47.6461V58.4317C59.9536 56.6579 66.1045 52.7671 70.7392 47.503C73.6859 44.1558 76.0032 40.2363 77.5195 35.945C78.8355 32.2544 79.5222 28.2778 79.5222 24.1294C79.5222 21.526 79.2361 18.9798 78.6925 16.5194Z" fill="url(#paint1_linear_929_3976)" stroke="white" stroke-width="0.296322"/>
<path d="M36.6369 24.1294C36.6369 23.2712 36.6655 22.4129 36.7513 21.5832L27.1959 16.5194C26.6523 18.9798 26.3662 21.526 26.3662 24.1294C26.3662 28.2778 27.0814 32.2544 28.3688 35.945C29.8851 40.2363 32.2025 44.1558 35.1492 47.5031C39.7839 52.7671 45.9348 56.6579 52.944 58.4317V47.6461C43.4458 44.1272 36.6369 34.9151 36.6369 24.1294Z" fill="url(#paint2_linear_929_3976)" stroke="white" stroke-width="0.296322"/>
<path d="M52.9437 20.7822C56.8345 20.7822 60.6109 21.9265 63.8437 24.0722C64.0154 24.1867 64.1012 24.3583 64.1012 24.5586C64.0154 28.5638 62.7566 32.3688 60.4678 35.6303C58.5796 38.3195 56.0907 40.4652 53.2011 41.9243C53.0295 42.0101 52.8578 42.0101 52.6862 41.9243C49.7967 40.4652 47.3077 38.3195 45.4195 35.6303C43.1308 32.3688 41.872 28.5352 41.7861 24.5586C41.7861 24.3583 41.872 24.1867 42.0436 24.0722C45.2764 21.9265 49.0528 20.7822 52.9437 20.7822Z" fill="url(#paint3_linear_929_3976)" stroke="white" stroke-width="0.296322"/>
<path d="M16.9533 83.6935H8.74255L7.59819 87.3555C7.22627 88.557 6.11052 89.3581 4.88033 89.3581H1.93359L9.37195 67.9013C9.77248 66.7569 10.8596 65.9845 12.0612 65.9845H15.7804L23.934 89.3867H20.8442C19.5854 89.3867 18.4982 88.5857 18.1263 87.3841L16.9533 83.6935ZM9.80108 80.0315H15.9234L12.9195 70.4475H12.805L9.80108 80.0315Z" fill="#303030" stroke="white" stroke-width="0.296322"/>
<path d="M33.5462 71.9924V74.1381C33.5462 74.9391 32.9168 75.5685 32.1157 75.5685H30.8283V86.5258C30.8283 88.0993 29.5409 89.3867 27.9674 89.3867H26.1078V75.5685H23.3613V73.4228C23.3613 72.6218 23.9907 71.9924 24.7918 71.9924H26.1078V68.8454C26.1078 67.2719 27.3952 65.9845 28.9687 65.9845H30.8283V71.9924H33.5462Z" fill="#303030" stroke="white" stroke-width="0.296322"/>
<path d="M38.3533 65.9845H40.1556V75.1108H40.2415C41.2142 72.8793 43.0738 71.7349 45.7058 71.7349C49.568 71.7349 51.7709 74.2239 51.7709 78.2578V86.5258C51.7709 88.0993 50.4835 89.3867 48.91 89.3867H47.0504V79.2877C47.0504 77.0562 45.9347 75.683 43.789 75.683C41.5575 75.683 40.2415 77.2565 40.2415 79.5452V86.5258C40.2415 88.0993 38.9541 89.3867 37.3806 89.3867H35.521V68.874C35.4924 67.2719 36.7798 65.9845 38.3533 65.9845Z" fill="#303030" stroke="white" stroke-width="0.296322"/>
<path d="M69.8802 84.0654C69.3652 87.4413 66.2182 89.6728 61.9555 89.6728C56.6342 89.6728 53.4014 86.2969 53.4014 80.7468C53.4014 75.1966 56.6628 71.6777 61.7838 71.6777C66.819 71.6777 70.0232 75.025 70.0232 80.3176C70.0232 81.1187 69.3938 81.7481 68.5928 81.7481H58.036V82.0342C58.036 84.4946 59.6381 86.1539 62.0127 86.1539C63.2429 86.1539 64.3014 85.7248 64.9594 85.0095C65.503 84.4087 66.2182 84.0368 67.0193 84.0368L69.8802 84.0654ZM58.0933 78.8586H65.4744C65.3886 76.6271 63.9295 75.168 61.841 75.168C59.7812 75.1966 58.2649 76.7129 58.0933 78.8586Z" fill="#303030" stroke="white" stroke-width="0.296322"/>
<path d="M74.658 71.9924H76.3745V75.1108H76.4603C77.4616 72.8793 79.2068 71.7349 81.8961 71.7349C85.7583 71.7349 87.9326 74.1667 87.9326 78.2292V86.5258C87.9326 88.0993 86.6452 89.3867 85.0717 89.3867H83.2121V79.2305C83.2121 76.9704 82.1535 75.6544 80.0079 75.6544C77.8622 75.6544 76.5462 77.1993 76.5462 79.488V86.5258C76.5462 88.0993 75.2587 89.3867 73.6853 89.3867H71.8257V74.8819C71.7971 73.2798 73.0845 71.9924 74.658 71.9924Z" fill="#303030" stroke="white" stroke-width="0.296322"/>
<path d="M89.6201 87.6702C89.6201 87.0408 89.849 86.4114 90.2209 85.8964L98.2601 75.7116V75.6257H89.7346V74.8819C89.7346 73.3084 91.022 72.021 92.5955 72.021H103.753V74.0522C103.753 74.6816 103.553 75.2824 103.181 75.7974L95.628 85.6675V85.7533H103.953V86.5258C103.953 88.0993 102.666 89.3867 101.092 89.3867H89.6201L89.6201 87.6702Z" fill="#303030" stroke="white" stroke-width="0.296322"/>
</g>
</g>
<defs>
<linearGradient id="paint0_linear_929_3976" x1="72.2004" y1="10.7308" x2="38.5301" y2="10.7308" gradientUnits="userSpaceOnUse">
<stop offset="0.001022" stop-color="#2D4BFF"/>
<stop offset="0.9994" stop-color="#058AE5"/>
</linearGradient>
<linearGradient id="paint1_linear_929_3976" x1="62.2835" y1="50.2104" x2="79.1612" y2="23.5828" gradientUnits="userSpaceOnUse">
<stop offset="0.001022" stop-color="#2D4BFF"/>
<stop offset="0.9994" stop-color="#058AE5"/>
</linearGradient>
<linearGradient id="paint2_linear_929_3976" x1="32.0959" y1="23.4171" x2="48.7281" y2="50.3729" gradientUnits="userSpaceOnUse">
<stop offset="0.001022" stop-color="#2D4BFF"/>
<stop offset="0.9994" stop-color="#058AE5"/>
</linearGradient>
<linearGradient id="paint3_linear_929_3976" x1="47.3011" y1="32.679" x2="66.4539" y2="21.1059" gradientUnits="userSpaceOnUse">
<stop offset="0.000641" stop-color="#058AE5"/>
<stop offset="0.999" stop-color="#2D4BFF"/>
</linearGradient>
<clipPath id="clip0_929_3976">
<rect width="110" height="91.03" fill="white" transform="translate(0.594727 0.479996)"/>
</clipPath>
<clipPath id="clip1_929_3976">
<rect width="110" height="91.03" fill="white" transform="translate(0.594727 0.479996)"/>
</clipPath>
</defs>
</svg>
