<svg width="110" height="68" viewBox="0 0 110 68" fill="none" xmlns="http://www.w3.org/2000/svg">
<g clip-path="url(#clip0_929_4277)">
<g clip-path="url(#clip1_929_4277)">
<g clip-path="url(#clip2_929_4277)">
<path d="M74.5957 37.2118H82.7339L78.6648 26.5305L74.5957 37.2118Z" fill="#55ABDF"/>
<path d="M107.218 27.8089L82.7623 3.35316C80.9889 1.5798 78.597 0.590027 76.0813 0.590027H9.44999C4.22616 0.590027 0.00585938 4.81033 0.00585938 10.0342V57.9559C0.00585938 63.166 4.22616 67.4 9.44999 67.4H77.0848C79.5867 67.4 81.9924 66.4102 83.7658 64.6369L107.232 41.1709C110.902 37.473 110.902 31.4931 107.218 27.8089ZM87.1888 15.8628L93.7735 22.4476L92.0964 24.1247L85.5117 17.54L87.1888 15.8628ZM71.8885 4.65911H72.2046C74.6516 4.65911 76.9473 5.60765 78.6657 7.33976L80.604 9.27808L78.9269 10.9552L76.9886 9.01688C75.7101 7.73842 74.0055 7.03733 72.2046 7.03733H71.8885V4.65911ZM53.2889 4.65911H62.5956V7.03733H53.2889V4.65911ZM34.6756 4.65911H43.9822V7.03733H34.6756V4.65911ZM25.3689 4.65911V7.03733H16.0623L16.0348 4.65911H25.3689ZM6.92056 29.2523H9.29877V38.559H6.92056V29.2523ZM7.55291 57.5297C7.12676 56.4575 6.92056 55.3302 6.92056 54.1755V47.8657H9.29877V54.1755C9.29877 55.0278 9.46374 55.8664 9.76617 56.6637L7.55291 57.5297ZM9.29877 13.8008V19.9457H6.92056V13.8008C6.92056 12.5773 7.15425 11.3814 7.6354 10.2541L9.82116 11.1751C9.47748 12.0137 9.29877 12.8935 9.29877 13.8008ZM25.1627 63.3172H16.0623C15.9798 63.3172 15.911 63.3172 15.8286 63.3172L15.8835 60.939C15.9385 60.939 15.9935 60.939 16.0623 60.939H25.1627V63.3172ZM27.5959 43.6041C25.8501 43.6041 24.2554 43.178 22.7845 42.3119C21.3136 41.4459 20.1451 40.2911 19.279 38.8064C18.413 37.3355 17.9868 35.7271 17.9868 33.995C17.9868 32.2629 18.413 30.6545 19.279 29.1836C20.1451 27.7127 21.2998 26.5442 22.7845 25.6781C24.2554 24.8121 25.8638 24.3859 27.5959 24.3859C29.3693 24.3859 31.0051 24.8396 32.5173 25.7606C34.0295 26.6679 35.1842 27.8914 36.009 29.3898L32.9435 31.0119C32.4073 30.0772 31.665 29.3073 30.7027 28.73C29.7404 28.1526 28.7094 27.8639 27.5822 27.8639C26.4824 27.8639 25.4514 28.1388 24.5029 28.6887C23.5543 29.2386 22.7982 29.9809 22.2484 30.9295C21.6985 31.8643 21.4235 32.8953 21.4235 33.995C21.4235 35.0948 21.6985 36.112 22.2484 37.0606C22.7982 37.9954 23.5543 38.7515 24.5029 39.3013C25.4514 39.8512 26.4824 40.1261 27.5822 40.1261C28.7369 40.1261 29.7817 39.8375 30.7302 39.2463C31.6787 38.6552 32.4211 37.8854 32.9572 36.9094L36.0228 38.5865C35.2117 40.1124 34.0432 41.3359 32.5311 42.2432C31.0326 43.1367 29.383 43.6041 27.5959 43.6041ZM43.776 63.3172H34.4694V60.939H43.776V63.3172ZM46.7866 43.6041C45.0407 43.6041 43.4461 43.178 41.9752 42.3119C40.5043 41.4459 39.3358 40.2911 38.4697 38.8064C37.6037 37.3355 37.1775 35.7271 37.1775 33.995C37.1775 32.2629 37.6037 30.6545 38.4697 29.1836C39.3358 27.7127 40.4905 26.5442 41.9752 25.6781C43.4461 24.8121 45.0545 24.3859 46.7866 24.3859C48.5187 24.3859 50.1271 24.8121 51.598 25.6781C53.0689 26.5442 54.2374 27.6989 55.1035 29.1836C55.9695 30.6545 56.3957 32.2629 56.3957 33.995C56.3957 35.7409 55.9695 37.3355 55.1035 38.8064C54.2374 40.2774 53.0827 41.4459 51.598 42.3119C50.1271 43.1642 48.5187 43.6041 46.7866 43.6041ZM62.3893 63.3172H53.0827V60.939H62.3893V63.3172ZM68.5342 35.1498C67.6682 35.6584 66.7334 35.9058 65.7024 35.9058H61.0422V43.2467H59.6675V24.6196H65.7024C66.7334 24.6196 67.6819 24.8671 68.5342 25.3757C69.4003 25.8843 70.0739 26.5579 70.5825 27.424C71.0911 28.2901 71.3386 29.2248 71.3386 30.2559C71.3386 31.2869 71.0911 32.2354 70.5825 33.0877C70.0876 33.9538 69.4003 34.6411 68.5342 35.1498ZM79.5043 60.6365C77.7721 62.3687 75.4764 63.3172 73.0432 63.3172H71.696V60.939H73.0432C74.844 60.939 76.5487 60.2379 77.8271 58.9594L79.0369 57.7497L80.714 59.4268L79.5043 60.6365ZM83.2434 38.4903H74.1155L72.2734 43.2604H70.7887L77.8959 24.6334H79.408L86.5152 43.2604H85.058L83.2434 38.4903ZM87.2988 52.8558L85.6079 51.1787L92.1926 44.5939L93.8698 46.271L87.2988 52.8558ZM100.482 39.3838L98.4887 38.0916C99.2036 36.9919 99.5747 35.7271 99.5747 34.4074C99.5747 33.0465 99.1761 31.7405 98.42 30.627L100.386 29.2936C101.403 30.8057 101.953 32.5791 101.953 34.4074C101.953 36.1808 101.444 37.8992 100.482 39.3838Z" fill="#55ABDF"/>
<path d="M49.8375 28.6887C48.9027 28.1388 47.8717 27.8639 46.7719 27.8639C45.6721 27.8639 44.6411 28.1388 43.6926 28.6887C42.7441 29.2386 41.988 29.9809 41.4381 30.9295C40.8882 31.8642 40.6133 32.8953 40.6133 33.995C40.6133 35.0948 40.8882 36.112 41.4381 37.0606C41.988 37.9954 42.7441 38.7514 43.6926 39.3013C44.6411 39.8512 45.6721 40.1261 46.7719 40.1261C47.8717 40.1261 48.8889 39.8512 49.8375 39.3013C50.7723 38.7514 51.5283 38.0091 52.0782 37.0606C52.6281 36.1258 52.903 35.0948 52.903 33.995C52.903 32.8953 52.6281 31.878 52.0782 30.9295C51.5283 29.9947 50.786 29.2386 49.8375 28.6887Z" fill="#55ABDF"/>
<path d="M67.8614 26.5304C67.2016 26.1455 66.4867 25.9393 65.7032 25.9393H61.043V34.5586H65.7032C66.4867 34.5586 67.2016 34.3662 67.8614 33.9675C68.5213 33.5826 69.0437 33.0602 69.4286 32.4004C69.8135 31.7405 70.0197 31.0257 70.0197 30.2421C70.0197 29.4585 69.8272 28.7437 69.4286 28.0839C69.0437 27.4515 68.5213 26.9291 67.8614 26.5304Z" fill="#55ABDF"/>
</g>
</g>
</g>
<defs>
<clipPath id="clip0_929_4277">
<rect width="110" height="66.81" fill="white" transform="translate(-0.00585938 0.590027)"/>
</clipPath>
<clipPath id="clip1_929_4277">
<rect width="110" height="66.81" fill="white" transform="translate(-0.00585938 0.590027)"/>
</clipPath>
<clipPath id="clip2_929_4277">
<rect width="109.975" height="66.81" fill="white" transform="translate(0.00585938 0.590027)"/>
</clipPath>
</defs>
</svg>
