<svg width="111" height="110" viewBox="0 0 111 110" fill="none" xmlns="http://www.w3.org/2000/svg">
<g clip-path="url(#clip0_929_3905)">
<g clip-path="url(#clip1_929_3905)">
<path fill-rule="evenodd" clip-rule="evenodd" d="M43.6748 106.789H40.1562L39.2143 109.914H36.8008L41.3478 96.4022H42.5114L47.0584 109.914H44.6017L43.6748 106.789ZM40.6824 105.044H43.157L41.9296 100.906L40.6824 105.044ZM51.7131 105.367L50.9158 106.164V109.914H48.4376V95.454H51.0882V95.648C51.0163 95.7342 50.9697 95.8275 50.9481 95.9281C50.9266 96.0287 50.9158 96.2011 50.9158 96.4453V103.514L54.7516 99.807C54.8665 99.8214 54.9887 99.8394 55.118 99.8609C55.2473 99.8825 55.3765 99.9004 55.5058 99.9148C55.6351 99.9292 55.7644 99.9399 55.8937 99.9471C56.023 99.9543 56.1308 99.9579 56.217 99.9579H57.3807L53.394 103.858L57.9194 109.892L55.1395 110L51.7131 105.367ZM62.2941 101.506C62.3217 101.449 62.351 101.392 62.382 101.337C62.5759 100.992 62.8201 100.691 63.1147 100.432C63.4092 100.173 63.7324 99.9794 64.0844 99.8501C64.4364 99.7208 64.7991 99.6562 65.1727 99.6562C65.7329 99.6562 66.2394 99.746 66.6919 99.9256C67.1444 100.105 67.5647 100.396 67.9526 100.798L66.9182 102.846L66.8535 103.018L66.6596 102.932C66.6165 102.817 66.5734 102.698 66.5303 102.576C66.4872 102.454 66.3794 102.314 66.207 102.156C66.0059 101.998 65.794 101.876 65.5713 101.79C65.3486 101.703 65.108 101.66 64.8494 101.66C64.5046 101.66 64.1742 101.718 63.8581 101.833C63.5421 101.948 63.2655 102.127 63.0285 102.371C62.7914 102.616 62.6047 102.928 62.4682 103.309C62.3317 103.69 62.2634 104.139 62.2634 104.656V109.914H59.7852V99.8932H62.3066L62.2941 101.506ZM69.532 109.914V107.996H71.9886V101.811H69.6613V99.8932H74.4453V107.996H76.6864V109.914H69.532ZM73.1092 98.2339C72.6926 98.2339 72.3334 98.0902 72.0317 97.8029C71.73 97.5156 71.5792 97.1708 71.5792 96.7685C71.5792 96.3375 71.7228 95.9856 72.0102 95.7126C72.2975 95.4396 72.6638 95.3032 73.1092 95.3032C73.5115 95.3032 73.867 95.4468 74.1759 95.7342C74.4848 96.0215 74.6392 96.3663 74.6392 96.7685C74.6392 97.1708 74.4848 97.5156 74.1759 97.8029C73.867 98.0902 73.5115 98.2339 73.1092 98.2339Z" fill="#3E446F"/>
<path d="M20.8387 21.076L56.8613 41.8887V82.6814L20.8387 61.6136V21.076Z" fill="#78FFC9"/>
<mask id="mask0_929_3905" style="mask-type:luminance" maskUnits="userSpaceOnUse" x="20" y="21" width="37" height="62">
<path d="M20.8387 21.076L56.8613 41.8887V82.6814L20.8387 61.6136V21.076Z" fill="white"/>
</mask>
<g mask="url(#mask0_929_3905)">
<path d="M32.3008 34.9736V55.2287L57.4443 70.1888V48.2407L56.8915 48.0037L51.2259 44.5101V38.8644V36.8168L44.501 33.7668V48.2407L51.3168 52.4956V58.9498L38.5194 51.3678V30.5183L19.9628 19.7998V62.3548L57.0939 83.6374V76.2736L56.8915 75.8971L26.8081 58.1713V31.8378L32.3008 34.9736Z" fill="#3E446F"/>
</g>
<path d="M56.7722 42.1483L20.8011 21.0742L56.7722 -7.62939e-06L92.7051 21.0533L56.7722 42.1483Z" fill="white"/>
<mask id="mask1_929_3905" style="mask-type:luminance" maskUnits="userSpaceOnUse" x="20" y="0" width="73" height="43">
<path d="M56.7722 42.1483L20.8011 21.0742L56.7722 -7.62939e-06L92.7051 21.0533L56.7722 42.1483Z" fill="white"/>
</mask>
<g mask="url(#mask1_929_3905)">
<path d="M20.8413 21.0858L56.7621 0.00371933L92.71 21.0576L86.2858 24.8583L56.7744 7.58302L26.5286 25.236L43.9219 35.24L44.4508 34.9397L56.7621 28.1281L63.4794 32.2268L69.3064 28.8295L56.7621 21.6247L44.4998 28.5381L37.7917 24.5679L56.7132 13.8683L81.2271 27.9571L61.9042 39.2153L56.6642 35.9613L48.6694 40.2734L18.8377 23.5551L20.8413 21.0858Z" fill="#3E446F"/>
</g>
<path d="M56.8268 82.6539L92.6914 61.4904V21.107L56.8268 42.1598V82.6539Z" fill="#8CCFCE"/>
<path d="M86.3022 24.7977V46.2601L68.0114 56.6164V49.8293L81.0335 42.496V27.8743L74.5032 31.6936V38.79L62.15 45.9472V67.0355L92.6879 49.5388L92.708 21.0417L86.3022 24.7977Z" fill="#524886"/>
<path d="M56.831 82.6737V75.9096L92.7125 54.9964L92.7432 61.473L56.831 82.6737Z" fill="#524886"/>
</g>
</g>
<defs>
<clipPath id="clip0_929_3905">
<rect width="110" height="110" fill="white" transform="translate(0.790039)"/>
</clipPath>
<clipPath id="clip1_929_3905">
<rect width="93.8271" height="110" fill="white" transform="translate(8.87695)"/>
</clipPath>
</defs>
</svg>
