<svg width="111" height="18" viewBox="0 0 111 18" fill="none" xmlns="http://www.w3.org/2000/svg">
<g clip-path="url(#clip0_929_4169)">
<g clip-path="url(#clip1_929_4169)">
<g clip-path="url(#clip2_929_4169)">
<path d="M2.68586 2.43551C3.34604 1.76125 4.13909 1.23147 5.01474 0.879761C5.89039 0.528048 6.82955 0.362065 7.77271 0.39233C10.5271 0.39233 12.5411 1.30538 13.8147 3.13148C14.4739 4.03431 14.8664 5.10406 14.9475 6.21898H11.4899C11.3383 5.56688 11.0496 4.95452 10.643 4.42262C10.027 3.70412 9.11419 3.3449 7.90446 3.34497C7.32924 3.32898 6.75948 3.46035 6.24933 3.7266C5.73919 3.99285 5.3056 4.38513 4.98978 4.86616C4.27857 5.88024 3.92304 7.31537 3.92317 9.17156C3.92317 11.0278 4.29837 12.4179 5.04876 13.3421C5.3838 13.781 5.81719 14.1351 6.31405 14.3759C6.81091 14.6167 7.35737 14.7376 7.90945 14.7286C8.4236 14.7601 8.93787 14.6686 9.40959 14.4617C9.88131 14.2547 10.2969 13.9383 10.6219 13.5386C11.0346 12.9634 11.3261 12.3103 11.4786 11.6189H14.914C14.6804 13.3018 13.879 14.8544 12.6426 16.0197C11.3627 17.1733 9.68303 17.7815 7.96135 17.7148C5.60677 17.7148 3.75565 16.9514 2.40799 15.4246C1.06041 13.8905 0.386653 11.7874 0.386719 9.11529C0.386719 6.22647 1.1531 3.99988 2.68586 2.43551Z" fill="white"/>
<path d="M17.6523 0.706696H21.2772L27.8461 12.2451V0.706696H31.068V17.2546H27.6109L20.8743 5.5132V17.2546H17.6523V0.706696Z" fill="white"/>
<path d="M37.4684 17.2546H34.0332V0.706696H37.4684V17.2546Z" fill="white"/>
<path d="M39.4785 9.32874H45.7431V12.3597H39.4785V9.32874Z" fill="white"/>
<path d="M59.4833 5.87087C59.3821 5.34883 59.154 4.85971 58.8191 4.44662C58.4843 4.03353 58.0529 3.70917 57.5631 3.50212C56.9633 3.24883 56.3174 3.12263 55.6663 3.13151C55.0404 3.11702 54.4194 3.24521 53.8503 3.50636C53.2813 3.7675 52.7792 4.15475 52.382 4.63876C51.5249 5.64346 51.0966 7.15419 51.0972 9.17095C51.0972 11.2029 51.5611 12.6408 52.4888 13.4849C53.3415 14.299 54.4756 14.7526 55.6546 14.751C56.6975 14.793 57.7172 14.436 58.5061 13.7525C59.2567 13.069 59.7419 12.1424 59.876 11.1362H56.0481V8.37449H62.941V17.2546H60.6506L60.3029 15.1889C59.7932 15.83 59.1871 16.3881 58.5061 16.8431C57.4834 17.4303 56.3171 17.7205 55.1385 17.6813C54.1292 17.7128 53.1249 17.5256 52.1948 17.1324C51.2646 16.7393 50.4306 16.1495 49.7498 15.4036C48.2899 13.8778 47.5601 11.791 47.5605 9.14323C47.5605 6.46576 48.2978 4.31914 49.7723 2.70336C51.2465 1.08793 53.1961 0.280138 55.6213 0.279999C57.724 0.279999 59.4135 0.813267 60.6898 1.8798C61.2999 2.36825 61.8078 2.97212 62.1845 3.65692C62.5612 4.34172 62.7993 5.09404 62.8851 5.87087H59.4833Z" fill="white"/>
<path d="M73.9569 5.26554C74.8197 5.65548 75.5534 6.28351 76.0718 7.07588C76.5849 7.83396 76.9183 8.69915 77.0464 9.60555C77.1447 10.4112 77.1799 11.2232 77.1519 12.0343H68.2393C68.2893 13.2619 68.7159 14.1225 69.5191 14.6163C70.0512 14.935 70.6634 15.0947 71.2834 15.0766C71.7835 15.1157 72.2837 15.0026 72.7183 14.7521C73.1528 14.5017 73.5015 14.1256 73.7184 13.6733H76.9851C76.8373 14.5188 76.4213 15.2942 75.7987 15.8849C74.7027 17.0749 73.1681 17.67 71.195 17.67C69.6259 17.6907 68.0997 17.1576 66.8848 16.1644C65.64 15.1606 65.0176 13.5275 65.0176 11.2652C65.0176 9.14551 65.5794 7.52007 66.7031 6.38885C67.2776 5.8217 67.9624 5.37849 68.7151 5.08664C69.4678 4.79479 70.2724 4.66051 71.0791 4.69211C72.0682 4.67676 73.0492 4.87224 73.9569 5.26554ZM69.1702 8.0295C68.6913 8.55379 68.3928 9.21751 68.3181 9.92363H73.8302C73.8272 9.56031 73.7501 9.20141 73.6036 8.86894C73.4571 8.53646 73.2442 8.23741 72.978 7.99011C72.4487 7.54336 71.7727 7.30836 71.0804 7.33038C70.731 7.30891 70.3809 7.35994 70.0522 7.48025C69.7235 7.60057 69.4232 7.78757 69.1702 8.0295Z" fill="white"/>
<path d="M88.6382 5.71933C89.4394 6.38177 89.8401 7.48013 89.8401 9.01441V17.2546H86.5621V9.8115C86.5877 9.30458 86.5001 8.79832 86.3057 8.32946C85.9934 7.70079 85.3991 7.38646 84.5227 7.38646C84.0542 7.35099 83.5866 7.46575 83.1878 7.71407C82.789 7.9624 82.4797 8.33136 82.3048 8.7674C82.0776 9.36155 81.9715 9.99512 81.9926 10.6309V17.2546H78.793V5.04002H81.8917V6.82513C82.2014 6.31112 82.5943 5.85208 83.0544 5.4667C83.7806 4.95081 84.6573 4.69021 85.5474 4.72568C86.6631 4.67836 87.7591 5.0307 88.6382 5.71933Z" fill="white"/>
<path d="M96.104 3.55819H92.8594V0.605591H96.104V3.55819ZM92.8594 5.01774H96.104V17.2546H92.8594V5.01774Z" fill="white"/>
<path d="M107.178 5.26554C108.04 5.65548 108.774 6.28351 109.292 7.07588C109.806 7.83396 110.139 8.69915 110.267 9.60555C110.365 10.4112 110.401 11.2232 110.373 12.0343H101.46C101.51 13.2619 101.937 14.1225 102.74 14.6163C103.272 14.935 103.884 15.0947 104.504 15.0766C105.004 15.1157 105.504 15.0026 105.939 14.7521C106.374 14.5017 106.722 14.1256 106.939 13.6733H110.206C110.058 14.5188 109.642 15.2942 109.019 15.8849C107.923 17.0749 106.389 17.67 104.416 17.67C102.847 17.6907 101.32 17.1576 100.106 16.1644C98.8607 15.1606 98.2383 13.5275 98.2383 11.2652C98.2383 9.14551 98.8001 7.52007 99.9238 6.38885C100.498 5.8217 101.183 5.37848 101.936 5.08664C102.689 4.79479 103.493 4.66051 104.3 4.69211C105.289 4.67676 106.27 4.87224 107.178 5.26554ZM102.391 8.0295C101.912 8.55379 101.613 9.21751 101.539 9.92363H107.051C107.048 9.56031 106.971 9.20141 106.824 8.86894C106.678 8.53646 106.465 8.23741 106.199 7.99011C105.669 7.54336 104.993 7.30836 104.301 7.33038C103.952 7.30891 103.602 7.35994 103.273 7.48025C102.944 7.60057 102.644 7.78757 102.391 8.0295Z" fill="white"/>
</g>
</g>
</g>
<defs>
<clipPath id="clip0_929_4169">
<rect width="110" height="17.44" fill="white" transform="translate(0.384766 0.279999)"/>
</clipPath>
<clipPath id="clip1_929_4169">
<rect width="110" height="17.44" fill="white" transform="translate(0.384766 0.279999)"/>
</clipPath>
<clipPath id="clip2_929_4169">
<rect width="109.996" height="17.44" fill="white" transform="translate(0.386719 0.279999)"/>
</clipPath>
</defs>
</svg>
