<svg width="111" height="110" viewBox="0 0 111 110" fill="none" xmlns="http://www.w3.org/2000/svg">
<g clip-path="url(#clip0_929_3965)">
<g clip-path="url(#clip1_929_3965)">
<path d="M17.183 109.735H15.9291C15.8086 109.735 15.688 109.711 15.5674 109.614C15.471 109.542 15.3987 109.445 15.3745 109.349L14.2413 106.456H8.84013L7.70685 109.349C7.65863 109.445 7.58629 109.542 7.51396 109.614C7.41751 109.687 7.29695 109.735 7.15227 109.735H5.89844L10.7209 97.7028H12.3846L17.183 109.735ZM9.29826 105.25H13.8072L11.9265 100.355C11.7818 99.9934 11.6613 99.6076 11.5648 99.2218C11.5166 99.463 11.4443 99.6559 11.396 99.8487C11.3478 100.042 11.2755 100.21 11.2272 100.355L9.29826 105.25ZM18.4609 109.735V101.223H19.329C19.4495 101.199 19.5701 101.247 19.6665 101.32C19.7389 101.416 19.7871 101.512 19.7871 101.633L19.8835 102.959C20.1247 102.429 20.5104 101.947 20.9686 101.561C21.5714 101.103 22.3671 100.958 23.1146 101.127C23.3075 101.175 23.4763 101.247 23.645 101.344L23.4521 102.453C23.428 102.573 23.3075 102.67 23.1869 102.67C23.0663 102.67 22.9458 102.646 22.8252 102.598C22.6082 102.525 22.3671 102.501 22.1501 102.525C21.6678 102.501 21.2097 102.67 20.848 102.983C20.4622 103.345 20.1488 103.803 19.98 104.31V109.735H18.4609ZM27.8165 109.855C27.2378 109.904 26.6832 109.687 26.2733 109.301C25.9116 108.915 25.7428 108.384 25.7428 107.685V102.477H24.7301C24.6578 102.477 24.5613 102.453 24.5131 102.405C24.4407 102.332 24.4166 102.26 24.4166 102.164V101.561L25.8151 101.392L26.1527 98.7637C26.1527 98.6914 26.2009 98.619 26.2492 98.5467C26.3215 98.4985 26.3938 98.4744 26.4903 98.4744H27.2378V101.416H29.6731V102.501H27.2378V107.613C27.2136 107.902 27.3101 108.192 27.503 108.409C27.6718 108.577 27.937 108.674 28.1781 108.674C28.3228 108.674 28.4434 108.65 28.588 108.601C28.6845 108.553 28.7809 108.529 28.8774 108.457C28.9738 108.409 29.0221 108.36 29.0944 108.312L29.2391 108.24C29.3355 108.24 29.4079 108.312 29.4561 108.384L29.8901 109.108C29.6249 109.349 29.3114 109.542 28.9497 109.687C28.588 109.807 28.2023 109.879 27.8165 109.855ZM33.5069 98.5467C33.5069 98.6914 33.4828 98.836 33.4105 98.9566C33.3623 99.0772 33.2658 99.1977 33.1694 99.2942C33.0729 99.3906 32.9524 99.463 32.8318 99.5353C32.7112 99.5835 32.5666 99.6317 32.4219 99.6317C32.2772 99.6317 32.1325 99.6076 32.012 99.5353C31.7468 99.4147 31.5539 99.2218 31.4333 98.9566C31.3851 98.836 31.3368 98.6914 31.3368 98.5467C31.3368 98.402 31.361 98.2573 31.4333 98.1368C31.5297 97.8716 31.7468 97.6786 32.012 97.5581C32.1325 97.5099 32.2772 97.4616 32.4219 97.4616C32.5666 97.4616 32.7112 97.4858 32.8318 97.5581C32.9524 97.6063 33.0729 97.6786 33.1694 97.7992C33.2658 97.8957 33.3623 98.0162 33.4105 98.1368C33.4587 98.2573 33.5069 98.402 33.5069 98.5467ZM33.1694 101.223V109.735H31.6744V101.223H33.1694ZM36.1352 109.735V102.501L35.1948 102.381C35.0984 102.356 35.0019 102.308 34.9055 102.26C34.8331 102.188 34.7849 102.091 34.7849 101.995V101.392H36.1352V100.572C36.1352 100.138 36.2075 99.7041 36.3522 99.2701C36.4727 98.9084 36.6656 98.5708 36.9309 98.3056C37.1961 98.0403 37.5096 97.8474 37.8471 97.7028C38.2329 97.5581 38.6428 97.4858 39.0528 97.5099C39.4144 97.5099 39.7761 97.5581 40.1137 97.6786L40.0896 98.4261C40.0896 98.5226 40.0414 98.5949 39.9449 98.619C39.8243 98.6431 39.7038 98.6672 39.5591 98.6431H39.2939C39.0528 98.6431 38.8116 98.6673 38.5946 98.7396C38.4017 98.8119 38.2088 98.9084 38.0642 99.0772C37.8954 99.2459 37.7748 99.4388 37.7266 99.68C37.6301 99.9693 37.606 100.283 37.606 100.596V101.368H40.0655V102.453H37.6542V109.711L36.1352 109.735ZM47.709 109.735H47.0339C46.9133 109.735 46.7928 109.711 46.6722 109.662C46.5758 109.59 46.5034 109.494 46.5034 109.373L46.3346 108.577C46.1176 108.77 45.9006 108.963 45.6836 109.108C45.4666 109.277 45.2496 109.397 45.0085 109.518C44.7674 109.638 44.5262 109.711 44.261 109.759C43.9717 109.807 43.6823 109.855 43.3688 109.855C43.0554 109.855 42.7419 109.807 42.4285 109.711C42.1632 109.614 41.898 109.494 41.681 109.301C41.464 109.108 41.2952 108.867 41.1746 108.601C41.0541 108.288 40.9817 107.95 40.9817 107.589C40.9817 107.251 41.0782 106.914 41.247 106.624C41.464 106.287 41.7774 105.997 42.1391 105.804C42.6455 105.515 43.2001 105.322 43.7546 105.202C44.5503 105.033 45.3702 104.961 46.19 104.961V104.285C46.19 103.61 46.0453 103.128 45.756 102.79C45.4425 102.429 44.9844 102.236 44.5021 102.284C44.1887 102.284 43.8752 102.332 43.5859 102.429C43.3688 102.501 43.1518 102.622 42.9348 102.742C42.766 102.863 42.5973 102.959 42.4767 103.056C42.3561 103.152 42.2356 103.2 42.0909 103.2C41.9944 103.2 41.898 103.176 41.8257 103.128C41.7533 103.08 41.681 103.007 41.6328 102.935L41.3675 102.453C41.8016 102.019 42.332 101.681 42.8866 101.44C43.4653 101.199 44.0681 101.103 44.695 101.103C45.129 101.103 45.5631 101.175 45.973 101.344C46.3346 101.488 46.6481 101.705 46.9133 101.995C47.1786 102.284 47.3715 102.646 47.492 103.007C47.6126 103.441 47.6849 103.875 47.6849 104.31V109.735H47.709ZM43.827 108.819C44.0681 108.819 44.3092 108.794 44.5503 108.746C44.7674 108.698 44.9603 108.626 45.1773 108.529C45.3702 108.433 45.5631 108.312 45.7318 108.167C45.9247 108.023 46.0935 107.854 46.2382 107.685V105.925C45.6595 105.925 45.0567 105.949 44.478 106.046C44.0681 106.118 43.6823 106.214 43.2965 106.383C43.0313 106.48 42.8143 106.673 42.6455 106.89C42.5008 107.082 42.4285 107.299 42.4285 107.541C42.4285 107.733 42.4526 107.95 42.549 108.119C42.6214 108.264 42.7178 108.409 42.8384 108.529C42.9589 108.626 43.1277 108.722 43.2724 108.77C43.4653 108.794 43.6341 108.819 43.827 108.819ZM55.7866 102.742C55.7384 102.79 55.7143 102.839 55.642 102.887C55.5938 102.935 55.5214 102.935 55.4491 102.935C55.3526 102.935 55.2562 102.887 55.1838 102.839C55.0874 102.766 54.9668 102.694 54.798 102.598C54.6293 102.501 54.4364 102.429 54.2435 102.356C53.9782 102.284 53.713 102.236 53.4478 102.26C53.062 102.26 52.7003 102.332 52.3386 102.477C52.0251 102.622 51.7599 102.839 51.5429 103.128C51.3259 103.441 51.1571 103.779 51.0606 104.141C50.9401 104.575 50.8919 105.033 50.8919 105.467C50.8919 105.925 50.9401 106.383 51.0606 106.841C51.1571 107.203 51.3259 107.541 51.567 107.854C51.784 108.119 52.0493 108.336 52.3386 108.481C52.6521 108.626 53.0137 108.698 53.3754 108.698C53.6889 108.698 53.9782 108.674 54.2676 108.577C54.4846 108.505 54.6775 108.409 54.8463 108.288C54.9909 108.192 55.1115 108.095 55.2321 107.999C55.3044 107.926 55.425 107.878 55.5214 107.878C55.642 107.878 55.7384 107.926 55.8108 108.023L56.2448 108.577C55.8831 109.036 55.4008 109.373 54.8463 109.566C54.2917 109.783 53.6889 109.879 53.0861 109.879C52.5797 109.879 52.0734 109.783 51.6152 109.59C51.1571 109.397 50.7472 109.108 50.4337 108.746C50.072 108.336 49.8068 107.878 49.638 107.372C49.4451 106.769 49.3246 106.142 49.3487 105.515C49.3487 104.912 49.421 104.334 49.6139 103.755C49.7827 103.249 50.0479 102.766 50.3855 102.356C50.7231 101.971 51.1571 101.657 51.6393 101.44C52.1939 101.223 52.7726 101.103 53.3513 101.103C53.8818 101.103 54.4364 101.199 54.9186 101.392C55.3767 101.585 55.7866 101.85 56.1483 102.212L55.7866 102.742ZM60.3921 109.855C59.8134 109.904 59.2588 109.687 58.8489 109.301C58.4872 108.915 58.3184 108.384 58.3184 107.685V102.477H57.2816C57.2093 102.477 57.1128 102.453 57.0646 102.405C56.9923 102.332 56.9681 102.26 56.9681 102.164V101.561L58.3667 101.392L58.7042 98.7637C58.7042 98.6914 58.7525 98.619 58.8248 98.5467C58.8971 98.4985 58.9695 98.4502 59.0659 98.4744H59.8134V101.416H62.2487V102.501H59.8134V107.613C59.7893 107.902 59.8857 108.192 60.0786 108.409C60.2474 108.577 60.4885 108.674 60.7538 108.674C60.8984 108.674 61.019 108.65 61.1637 108.601C61.2601 108.553 61.3566 108.529 61.453 108.457C61.5495 108.409 61.5977 108.36 61.67 108.312L61.8147 108.24C61.9112 108.24 61.9835 108.312 62.0317 108.384L62.4657 109.108C62.2005 109.349 61.887 109.542 61.5254 109.687C61.1637 109.807 60.7779 109.879 60.3921 109.855ZM73.5332 109.783V105.395H69.4583V109.783H65.745V98.2332H69.4583V102.453H73.5332V98.2332H77.2465V109.783H73.5332ZM89.7367 108.746C88.7481 109.566 87.3254 110 85.4929 110C83.6604 110 82.2378 109.59 81.2251 108.746C80.2123 107.926 79.7301 106.721 79.7301 105.129V98.2332H83.4434V105.081C83.4193 105.636 83.6122 106.19 83.9738 106.624C84.8419 107.396 86.1439 107.396 87.012 106.624C87.3737 106.19 87.5666 105.636 87.5424 105.081V98.2091H91.2557V105.105C91.2316 106.721 90.7253 107.926 89.7367 108.746ZM103.023 98.5949C103.505 98.8119 103.891 99.1736 104.18 99.6076C104.469 100.042 104.614 100.548 104.614 101.078C104.614 102.501 103.963 103.393 102.685 103.755V103.827C104.156 104.165 104.879 105.129 104.879 106.721C104.879 107.275 104.734 107.854 104.421 108.312C104.132 108.77 103.698 109.156 103.215 109.397C102.685 109.662 102.106 109.783 101.528 109.783H93.7152V98.2332H101.407C101.962 98.2332 102.516 98.3538 103.023 98.5949ZM97.4285 102.742H99.9844C100.225 102.742 100.442 102.646 100.587 102.477C100.756 102.308 100.828 102.067 100.828 101.826V101.657C100.828 101.416 100.756 101.199 100.587 101.03C100.442 100.861 100.201 100.765 99.9844 100.765H97.4285V102.742ZM97.4285 107.107H100.25C100.491 107.107 100.708 107.01 100.852 106.841C101.021 106.673 101.094 106.431 101.094 106.19V106.021C101.094 105.78 101.021 105.539 100.852 105.37C100.684 105.202 100.467 105.105 100.25 105.105H97.4285V107.107Z" fill="#417598"/>
<path d="M93.0154 61.655V28.4765C93.0154 25.5107 91.424 22.7861 88.8681 21.2911L59.837 4.70189C57.2811 3.23104 54.0983 3.23104 51.5424 4.70189L22.4871 21.2911C19.9313 22.7619 18.3398 25.5107 18.3398 28.4765V61.655C18.3398 64.6208 19.9313 67.3455 22.4871 68.8404L51.5424 85.4296C54.0983 86.9005 57.2811 86.9005 59.837 85.4296L88.8681 68.8404C91.424 67.3455 93.0154 64.6208 93.0154 61.655Z" fill="#417598" stroke="#417598" stroke-width="1.20561" stroke-miterlimit="10"/>
<path d="M55.6893 90.1556C53.5916 90.1556 51.542 89.6011 49.7336 88.5642L20.7025 71.975C17.0133 69.8531 14.7468 65.9228 14.7227 61.655V28.4765C14.7227 24.2328 16.9892 20.3025 20.6784 18.1806L49.7336 1.59141C53.4228 -0.530469 57.9559 -0.530469 61.6209 1.59141L90.6521 18.1565C94.3413 20.2784 96.6078 24.2087 96.6319 28.4765V61.6791C96.6319 65.9228 94.3412 69.8531 90.6762 71.975L61.6209 88.5642C59.8125 89.6011 57.763 90.1556 55.6893 90.1556ZM55.6893 7.23367C54.8695 7.23367 54.0738 7.45068 53.3505 7.86059L24.2952 24.4257C22.8485 25.2696 21.9804 26.8128 21.9804 28.4765V61.655C21.9804 63.3187 22.8726 64.8619 24.3193 65.7058L53.3263 82.2951C54.7731 83.139 56.5574 83.139 58.0282 82.2951L87.0835 65.7058C88.5302 64.8619 89.3982 63.3187 89.3982 61.655V28.4765C89.3982 26.8128 88.5061 25.2696 87.0593 24.4257L58.0282 7.83648C57.329 7.42657 56.5092 7.20956 55.6893 7.23367Z" fill="white" stroke="#417598" stroke-width="1.20561" stroke-miterlimit="10"/>
</g>
</g>
<defs>
<clipPath id="clip0_929_3965">
<rect width="110" height="110" fill="white" transform="translate(0.388672)"/>
</clipPath>
<clipPath id="clip1_929_3965">
<rect width="98.9807" height="110" fill="white" transform="translate(5.89844)"/>
</clipPath>
</defs>
</svg>
