<svg width="110" height="110" viewBox="0 0 110 110" fill="none" xmlns="http://www.w3.org/2000/svg">
<g clip-path="url(#clip0_929_4018)">
<g clip-path="url(#clip1_929_4018)">
<g clip-path="url(#clip2_929_4018)">
<path d="M45.2501 21.7285C45.2501 20.6382 45.1532 19.5479 45.2501 18.4575C45.2501 18.1668 45.7589 17.7064 46.0739 17.658C47.7699 17.4642 49.466 17.3188 51.162 17.2219C51.7677 17.2219 52.0342 16.9796 52.2281 16.495C52.7127 15.2351 53.1972 13.9994 53.7545 12.7637C53.9726 12.3034 53.8999 12.0853 53.4638 11.7946C52.3977 11.0192 52.2523 9.73508 53.0761 8.86283C53.9726 7.89367 55.2325 7.86944 56.1532 8.81438C56.977 9.71085 56.8801 10.995 55.814 11.7461C55.3294 12.0853 55.3052 12.3518 55.499 12.8364C56.032 14.0479 56.4682 15.332 57.0497 16.5192C57.1597 16.7091 57.31 16.8726 57.49 16.9982C57.67 17.1238 57.8753 17.2084 58.0915 17.2461C59.9087 17.4157 61.7501 17.4884 63.5915 17.6338C64.2457 17.658 64.6091 17.9245 64.6334 18.6272C64.6334 19.5963 64.7303 20.5412 64.7787 21.5104C64.4153 21.5104 64.0519 21.5589 63.6884 21.5104C60.6356 21.3408 54.6025 20.8805 54.6025 20.8805L45.2501 21.7285Z" fill="#274872"/>
<path d="M4.01315 95.6756C2.78757 95.0577 1.76051 94.1074 1.0493 92.9335C0.338089 91.7596 -0.0285989 90.4093 -0.00887372 89.0369C-0.0303202 87.6609 0.335391 86.3066 1.04654 85.1285C1.75769 83.9504 2.78565 82.9959 4.01315 82.3739C5.27306 81.7439 6.67835 81.4047 8.25324 81.4047C9.82813 81.4047 11.185 81.7439 12.3722 82.3739C13.5063 82.9941 14.4015 83.9745 14.9162 85.1602L11.5726 86.9532C10.7973 85.5963 9.68276 84.9179 8.22901 84.9179C7.11447 84.9179 6.19377 85.2813 5.44267 86.0082C4.7158 86.7351 4.35236 87.7527 4.35236 89.0126C4.35236 90.2968 4.7158 91.2902 5.44267 92.017C6.16954 92.7439 7.11447 93.1558 8.22901 93.1558C8.92245 93.171 9.60575 92.9874 10.1982 92.6268C10.7907 92.2661 11.2676 91.7435 11.5726 91.1206L14.9162 92.9377C14.3788 94.1042 13.4777 95.0648 12.348 95.6756C11.084 96.355 9.6633 96.6893 8.22901 96.6448C6.65412 96.6448 5.24884 96.3298 3.98892 95.6756H4.01315ZM28.6784 83.028C29.8898 84.1184 30.5198 85.7659 30.5198 87.9708V96.451H26.4977V94.5853C25.6982 95.9664 24.196 96.669 21.9911 96.669C20.9672 96.6947 19.9501 96.4962 19.011 96.0875C18.2429 95.7629 17.5898 95.2153 17.1363 94.5155C16.6828 93.8158 16.4496 92.9961 16.4669 92.1624C16.4437 91.5362 16.5727 90.9137 16.8428 90.3483C17.1128 89.7828 17.5159 89.2913 18.0176 88.9157C19.0594 88.1162 20.6828 87.7043 22.8391 87.7043H26.2312C26.2312 86.7836 25.9889 86.0567 25.4074 85.5721C24.8259 85.0633 23.9537 84.7968 22.8391 84.7968C21.3015 84.8043 19.8037 85.2866 18.5506 86.1778L16.9999 83.1734C17.8237 82.6161 18.7929 82.1558 19.9074 81.8408C21.0462 81.5501 22.2092 81.3805 23.4206 81.3805C25.6982 81.3805 27.4669 81.9377 28.7026 83.028H28.6784ZM25.0198 93.2527C25.577 92.9135 25.9889 92.4289 26.2312 91.7505V90.2483H23.251C21.4823 90.2483 20.5858 90.8056 20.5858 91.9686C20.5858 92.5258 20.8281 92.962 21.2643 93.2769C21.7861 93.625 22.4066 93.795 23.033 93.7615C23.7598 93.7615 24.414 93.5919 24.9713 93.2769L25.0198 93.2527ZM46.9471 82.3254C48.0858 82.9796 48.9823 83.8518 49.6123 84.9906C50.2665 86.1536 50.5814 87.4862 50.5814 89.0126C50.5814 90.5391 50.2665 91.8959 49.6123 93.0347C48.9924 94.1562 48.0686 95.08 46.9471 95.6999C45.8325 96.354 44.5726 96.669 43.1916 96.669C41.3017 96.669 39.7995 96.0633 38.7092 94.8761V101.806H34.4206V81.5985H38.5396V83.2946C39.6057 82.0347 41.1563 81.3805 43.1916 81.3805C44.5726 81.3805 45.8325 81.6954 46.9471 82.3496V82.3254ZM45.1541 92.017C45.881 91.2902 46.2202 90.2725 46.2202 89.0126C46.2202 87.7769 45.881 86.7836 45.1541 86.0325C44.4515 85.3056 43.555 84.9179 42.4405 84.9179C41.3502 84.9179 40.4295 85.2814 39.7268 86.0325C38.9999 86.7593 38.6607 87.7769 38.6607 89.0126C38.6607 90.2725 39.0242 91.2659 39.7268 92.017C40.4537 92.7439 41.3502 93.1316 42.4405 93.1316C43.555 93.1316 44.4515 92.7681 45.1541 92.017ZM54.8215 96.2087C53.8291 95.9841 52.8798 95.5995 52.0109 95.0699L53.4647 91.9686C55.0222 92.9102 56.8055 93.4126 58.6255 93.4223C60.4427 93.4223 61.3391 92.9377 61.3391 92.0655C61.3391 91.6294 61.0969 91.3386 60.6123 91.1448C59.8643 90.9025 59.0927 90.7401 58.3105 90.6602C57.0991 90.4906 56.1057 90.2725 55.3061 90.0302C54.5065 89.788 53.8524 89.3761 53.2466 88.7703C52.6651 88.1646 52.3744 87.3166 52.3744 86.1778C52.3744 85.2329 52.6651 84.4091 53.1982 83.6822C53.7312 82.9554 54.5308 82.3981 55.5726 81.9862C56.6145 81.5743 57.8259 81.3805 59.2554 81.3805C60.2973 81.3805 61.3391 81.5016 62.381 81.7197C63.4228 81.962 64.2709 82.2769 64.9493 82.6888L63.5198 85.7417C62.2114 85.0148 60.8061 84.6272 59.2554 84.6272C58.5396 84.5831 57.8239 84.7162 57.1717 85.0148C56.7114 85.2571 56.4933 85.6206 56.4933 86.0082C56.4933 86.4928 56.7356 86.8078 57.2202 86.9774C58.0013 87.2299 58.8044 87.4084 59.6189 87.5104C60.8303 87.7043 61.7995 87.9223 62.5991 88.1646C63.3502 88.4069 64.0528 88.7946 64.6101 89.4003C65.1673 90.006 65.4581 90.854 65.4581 91.9443C65.4581 92.865 65.1916 93.6888 64.6343 94.4157C64.077 95.1426 63.2775 95.6756 62.2114 96.0633C61.0053 96.4862 59.7337 96.6913 58.4559 96.669C57.2202 96.669 56.033 96.5236 54.8215 96.2087ZM83.0484 81.5985V96.451H78.9779V94.6822C78.4162 95.3123 77.7208 95.8089 76.9427 96.136C76.1322 96.4878 75.258 96.6693 74.3744 96.669C73.5246 96.7152 72.6743 96.5887 71.8748 96.2972C71.0752 96.0057 70.343 95.5552 69.7224 94.973C68.5836 93.8584 68.0264 92.1866 68.0264 89.9818V81.5985H72.3149V89.3518C72.3149 91.7505 73.3325 92.9377 75.3193 92.9377C76.3612 92.9377 77.185 92.5985 77.8149 91.9443C78.4449 91.2659 78.7599 90.2483 78.7599 88.9399V81.5985H83.0484ZM87.0462 75.9532H91.359V96.451H87.0462V75.9532ZM109.822 90.2483H98.5792C98.7973 91.169 99.2819 91.8717 100.033 92.4289C100.76 92.962 101.729 93.2285 102.844 93.2285C103.532 93.2569 104.219 93.1424 104.861 92.8922C105.504 92.642 106.087 92.2615 106.575 91.7747L108.852 94.2703C107.447 95.8695 105.412 96.669 102.722 96.669C101.051 96.669 99.5726 96.3298 98.2885 95.6999C97.0434 95.0977 95.9989 94.1483 95.281 92.9661C94.5631 91.7839 94.2024 90.4194 94.2422 89.0369C94.1987 87.6745 94.539 86.3273 95.2245 85.1491C95.91 83.971 96.913 83.0093 98.1189 82.3739C99.3303 81.7197 100.663 81.4047 102.141 81.4047C103.595 81.4047 104.903 81.6954 106.09 82.3254C107.277 82.9554 108.198 83.8518 108.852 84.9906C109.759 86.5837 110.092 88.4393 109.797 90.2483H109.822ZM99.7422 85.4752C99.0714 86.0488 98.6393 86.8526 98.5308 87.7285H105.872C105.727 86.7836 105.315 86.0324 104.661 85.4752C103.983 84.9072 103.122 84.6057 102.238 84.6272C101.269 84.6272 100.445 84.9179 99.7665 85.4752H99.7422Z" fill="#314A70"/>
<path d="M21.3596 55.0677C22.0622 54.0501 22.7407 53.0567 23.4675 52.0633C23.6614 51.7968 23.9763 51.5787 24.2429 51.3606C26.3508 52.039 28.4345 52.8144 30.5424 53.3474C32.3354 53.7835 32.3838 53.6624 33.2561 51.9906C35.5578 47.5809 37.8596 43.147 40.1371 38.6888C40.9851 37.017 41.8332 35.3452 42.6327 33.6492C43.0931 32.68 42.875 32.365 41.8332 32.4135C40.6217 32.462 39.4103 32.5589 38.1746 32.6558C38.5865 32.0743 38.9499 31.4686 39.4345 30.9598C40.5006 29.7725 41.6151 28.6338 42.7539 27.4708H44.0865L54.723 26.6954L54.6503 27.3012V62.4818C50.8706 62.6998 47.2847 62.7241 43.1658 62.3364C39.2891 62.0941 35.7274 61.4884 31.875 61.0038C28.5751 60.6447 25.3619 59.7185 22.3772 58.2659C21.2142 57.6844 20.9477 56.9576 21.3596 55.7461C21.4081 55.528 21.3596 55.31 21.3596 55.0919V55.0677Z" fill="#5783AB"/>
<path d="M54.6746 62.4818V26.6954C56.0314 26.7197 57.4367 26.6954 58.7936 26.7681C61.5557 26.962 64.2936 27.2285 67.0314 27.4465C67.6856 28.1734 68.364 28.9245 68.9698 29.6998C69.8178 30.7175 70.5931 31.7593 71.3927 32.7769C69.9389 32.6558 68.4852 32.4862 67.0072 32.4135C65.9896 32.365 65.7958 32.7042 66.2561 33.5765L73.4037 47.6051C74.3729 49.495 75.4147 51.3606 76.3839 53.2505C76.7231 53.9289 77.2561 54.1954 77.983 54.0258L86.342 51.9421C86.7781 52.669 87.19 53.4443 87.6504 54.147C87.8927 54.4862 88.1834 54.7769 88.45 55.0919C88.45 55.2131 88.4015 55.3827 88.45 55.4796C89.2495 57.006 88.4015 57.9025 87.0447 58.5324C83.6261 60.0372 79.9837 60.9703 76.2627 61.2946L66.8861 62.191C65.3596 62.3364 63.8574 62.5545 62.331 62.6272C61.2407 62.6998 60.1262 62.6029 58.9874 62.5545H54.6746L54.6504 62.506L54.6746 62.4818Z" fill="#EAECEC"/>
<path d="M86.366 51.9179L78.007 54.0016C77.2801 54.1712 76.7471 53.9047 76.4079 53.2263C75.4387 51.3364 74.4211 49.4708 73.4277 47.5809L66.2559 33.5523C65.8198 32.68 66.0136 32.3408 66.9828 32.3893C68.4608 32.462 69.9387 32.6316 71.3925 32.7527C71.8528 32.8496 71.9982 32.7769 72.6039 33.6492C76.7713 39.5611 81.5687 45.2307 85.9057 51.0214C86.0995 51.2637 86.2207 51.6029 86.3903 51.8937L86.366 51.9179Z" fill="#5783AB"/>
<path d="M23.8066 51.7241L31.9961 53.7109C32.7229 53.8805 33.2317 53.6382 33.5952 52.9355L36.5511 47.2902C38.974 42.6382 40.7428 38.2769 42.9476 33.5523C43.3837 32.7043 43.1172 32.3408 42.1238 32.4135C40.6701 32.4862 39.6767 32.5104 38.1987 32.6558C37.8258 32.8462 37.5086 33.13 37.278 33.4796C32.9168 39.2219 28.604 45.0126 24.267 50.8034C24.0732 51.0699 23.952 51.4091 23.8066 51.6998V51.7241Z" fill="#EAECEC"/>
<path d="M88.474 55.0677C88.474 55.1888 88.4255 55.3584 88.474 55.4554C89.2735 56.9818 88.4255 57.8783 87.0687 58.5082C83.6501 60.0129 80.0077 60.9461 76.2867 61.2703L66.9101 62.1668C65.3837 62.3364 63.7603 62.4818 62.3066 62.4818C61.2163 62.4818 60.1259 62.5787 59.0356 62.5302H54.6986L54.6744 62.4818C50.9431 62.5787 47.6964 62.5787 43.4806 62.191C39.6039 61.8518 35.7273 61.4642 31.8748 60.9796C28.5764 60.6281 25.3633 59.7101 22.377 58.2659C21.214 57.6844 20.9475 56.9576 21.3594 55.7219C21.4079 55.528 21.3594 55.31 21.3594 55.0919C19.7845 55.6976 18.6215 56.6426 18.2581 58.4113C18.0628 59.3347 18.0859 60.2909 18.3257 61.2038C18.5655 62.1166 19.0153 62.9608 19.6392 63.669C20.0026 64.1051 20.2206 64.4443 19.6634 64.9289C19.4938 65.0743 19.4695 65.7285 19.6392 65.8981C21.1592 67.3324 23.0182 68.3578 25.0422 68.8783C25.6237 69.0236 26.0356 68.8783 26.1568 68.1756C26.2052 68.0302 26.5687 67.788 26.714 67.8122L33.0136 69.3144C33.474 69.4113 33.6436 69.5567 33.3528 70.0413C33.0136 70.6228 33.2559 70.9862 33.8374 71.2527C35.9453 72.1007 38.1744 72.1976 40.3792 72.2946C40.9123 72.2946 41.4938 72.0523 41.2273 71.3254C40.985 70.5743 41.3484 70.5743 41.9299 70.5985C43.9894 70.7924 46.0488 70.962 48.1568 71.0831C48.9079 71.1316 49.1259 71.3254 48.7383 72.0523C48.3506 72.7791 48.6656 73.2153 49.4409 73.2153C53.0268 73.2153 56.6127 73.2637 60.1986 73.191C61.3132 73.191 61.4343 72.8761 61.0224 71.8342C60.8286 71.3254 60.7801 71.1316 61.4585 71.1073C63.675 70.9768 65.8884 70.799 68.0973 70.5743C68.703 70.5258 68.8242 70.6712 68.7273 71.2043C68.5819 71.7615 68.7273 72.1734 69.3814 72.1976C71.6832 72.2461 73.9607 72.0765 76.1171 71.1558C76.6017 70.9377 76.844 70.647 76.529 70.1139C76.1171 69.4598 76.529 69.3628 77.0621 69.2417C79.0556 68.7851 81.0425 68.3004 83.0224 67.788C83.4585 67.691 83.7493 67.6183 83.7977 68.1756C83.8704 68.9025 84.3066 68.9994 84.9123 68.8056C86.8506 68.2483 88.6678 67.3518 90.1458 65.8981C90.2911 65.7527 90.3881 65.1712 90.2669 65.0985C89.4916 64.4443 89.9277 63.9598 90.3881 63.4025C92.3264 61.0765 92.6898 56.6426 88.4497 55.0919L88.474 55.0677Z" fill="#274872"/>
<path d="M64.8282 25.1932C61.67 25.1251 58.5121 25.0443 55.3546 24.951H54.7489L54.6035 24.9752V20.7351C57.6564 20.9774 60.5639 21.2197 63.6167 21.3893H64.7797L64.8282 25.1932Z" fill="#EAECEC"/>
<path d="M45.2012 25.3144C46.8245 25.2417 47.6241 25.2175 49.2717 25.1932L53.8752 25.0721H54.4567C54.4567 25.0721 54.602 24.9267 54.602 24.9752V20.7351C51.5492 20.9774 49.4413 21.2197 46.4126 21.3893H45.2496L45.2012 25.3144Z" fill="#5783AB"/>
<path d="M65.6023 25.2417L64.6331 25.169L54.9415 24.9267H54.9173L45.2256 25.169L44.2565 25.2417C42.7543 25.3628 42.6089 25.5082 42.6331 26.9862C42.6331 27.1558 42.6816 27.3012 42.7058 27.4708H44.0869C47.7212 27.2285 51.0406 26.962 54.6508 26.6954L65.7961 27.4465C66.2323 27.495 66.6926 27.4708 67.153 27.4708C67.1772 27.3012 67.2256 27.1558 67.2256 26.9862C67.2741 25.5324 67.1287 25.3628 65.6023 25.2417Z" fill="#274872"/>
</g>
</g>
</g>
<defs>
<clipPath id="clip0_929_4018">
<rect width="110" height="93.77" fill="white" transform="translate(-0.00976562 8.11)"/>
</clipPath>
<clipPath id="clip1_929_4018">
<rect width="110" height="93.77" fill="white" transform="translate(-0.00976562 8.11)"/>
</clipPath>
<clipPath id="clip2_929_4018">
<rect width="110" height="93.7665" fill="white" transform="translate(-0.00976562 8.11174)"/>
</clipPath>
</defs>
</svg>
