<svg width="111" height="110" viewBox="0 0 111 110" fill="none" xmlns="http://www.w3.org/2000/svg">
<g clip-path="url(#clip0_929_4036)">
<g clip-path="url(#clip1_929_4036)">
<g clip-path="url(#clip2_929_4036)">
<path d="M63.4863 17.1021C64.0649 17.5863 64.6253 18.0941 65.1673 18.6255C66.1914 19.6262 67.1332 20.7077 67.9834 21.8596C69.9314 24.5043 71.3583 27.4954 72.1882 30.6734L77.5989 34.6201L90.9967 45.6768C90.5442 44.454 90.1757 43.2017 89.8935 41.9288C84.8939 36.5706 77.3112 28.4786 72.9602 24.0066C69.162 20.1147 65.7726 18.1139 63.4863 17.1021Z" fill="#6400FF"/>
<path d="M33.0064 44.6399C31.8758 43.5253 30.8686 42.429 29.9687 41.3738C28.6828 43.1256 27.3261 44.6467 25.9375 45.7248L29.0528 50.8728C29.5096 51.4529 29.8408 51.9143 30.1263 52.3071C30.277 52.515 30.4141 52.7045 30.5465 52.8827C30.9476 53.4452 31.3986 53.9703 31.8941 54.4518C32.4262 54.9725 33.0635 55.5618 33.7943 56.1785C35.32 54.3855 36.8526 52.0513 38.3371 49.4248C36.4784 47.9234 34.6991 46.3262 33.0064 44.6399Z" fill="#6400FF"/>
<path d="M53.7178 48.8355C50.3341 47.0107 47.1603 44.8211 44.2531 42.3057C43.239 44.8728 42.1381 47.4172 40.9688 49.7856C44.2673 52.1304 47.7733 54.1685 51.443 55.8747C52.247 53.7095 53.0144 51.2976 53.7178 48.8355Z" fill="#6400FF"/>
<path d="M38.2032 36.429C37.0612 35.1843 36.0197 33.9624 35.081 32.793C33.7715 35.4354 32.2874 37.9877 30.6387 40.4328C31.639 41.5748 32.7079 42.7419 33.8362 43.8588C35.4531 45.44 37.1623 46.9241 38.9546 48.3034C40.2313 45.9623 41.4669 43.4317 42.6295 40.8759C40.9896 39.3685 39.5141 37.8588 38.2032 36.429Z" fill="#6400FF"/>
<path d="M40.3705 50.9664C39.0001 53.6318 37.5315 56.0208 36.0059 57.8983C38.7238 59.8442 42.2274 61.7422 46.2426 62.5004C46.793 62.6055 47.3526 62.7014 47.9167 62.7928C49.0085 61.4498 50.0636 59.3668 51.0526 56.875C47.2648 55.3475 43.6775 53.3632 40.3705 50.9664Z" fill="#6400FF"/>
<path d="M23.6009 31.603L22.5252 29.1432C24.4424 32.3919 26.5951 35.4957 28.9659 38.4298C30.6721 36.1915 32.3622 33.6997 33.9039 31.2855C30.5716 26.9209 28.822 23.6434 28.7992 23.6091L28.6279 23.2209C28.6507 23.2643 30.9256 26.3042 34.4429 30.4496C37.8688 24.9932 40.4383 20.1718 40.5022 20.0462L39.4562 23.0861C39.2095 23.5726 37.7615 27.3411 35.5894 31.7652C36.6629 33.0076 37.83 34.3232 39.0679 35.6707C40.2099 36.9246 41.5917 38.2996 43.1516 39.7179C46.4245 32.3681 49.0488 25.0183 50.2319 21.5833L49.6632 21.2201L48.8204 20.6948L48.1352 20.2746L47.4706 19.8589L47.1668 19.6693C46.7466 19.4028 46.3233 19.1387 45.8969 18.8768L44.8532 18.2373L44.4147 17.9723L43.7957 17.5978C43.6153 17.4881 43.4371 17.3831 43.2635 17.2826C42.5075 16.8372 41.8338 16.4558 41.2765 16.1589C40.7192 15.8619 40.1345 15.5742 39.5407 15.2887C38.9468 15.0032 38.3142 14.7177 37.6838 14.4436C37.2636 14.2586 36.841 14.0782 36.4208 13.9023L37.8574 13.7881L39.2506 13.6785C39.7074 13.6442 40.1505 13.6145 40.5867 13.5848L41.2719 13.5414L42.471 13.4729H42.535C43.3458 13.4295 44.1337 13.3976 44.8966 13.3747L46.0797 13.3313L47.2079 13.3199H47.7629C48.3179 13.3199 48.8638 13.3199 49.4051 13.3427C49.766 13.3519 50.1246 13.3633 50.4809 13.377C50.8394 13.3907 51.1957 13.409 51.5497 13.4272C51.9038 13.4455 52.2875 13.4706 52.6552 13.4958L53.6419 13.5688H53.7309C54.0553 13.594 54.3819 13.6237 54.7108 13.6556H54.8135L55.3023 13.7059C61.3183 14.3226 66.448 16.4169 69.0632 18.3104C70.3546 19.2809 71.5494 20.3739 72.6307 21.5741L72.6558 21.6015C73.019 21.9967 73.3205 22.3438 73.5443 22.6088C73.6539 22.7367 73.7453 22.8372 73.8138 22.9308L73.8983 23.0336L73.9509 23.0998C73.9581 23.1073 73.9643 23.1157 73.9691 23.1249L75.5679 24.8448L82.5271 32.3202L89.4864 39.8253C89.4338 39.4781 89.3882 39.1264 89.347 38.7724L73.1309 20.9575C73.0601 20.8684 72.7449 20.4824 72.1808 19.9068L71.4613 18.8357L64.9703 12.8745C64.3279 12.3151 63.6343 11.8173 62.8988 11.3877C61.7714 9.935 60.3882 8.70044 58.8173 7.74474C57.2343 6.77921 55.5014 6.08449 53.6898 5.68918C53.4112 5.62751 53.1303 5.57041 52.847 5.52245C50.044 5.07166 47.1796 5.17642 44.4169 5.83078L44.0949 5.90387L45.2049 8.01654C42.6491 8.04394 40.7969 8.16043 40.7557 8.16271L40.0865 8.2061L40.5068 8.72685C40.9377 9.292 41.3018 9.90514 41.5917 10.554C38.4307 10.6431 34.9865 10.8646 31.0535 11.1593L29.4912 11.2735C28.6667 10.9903 28.1688 10.8281 28.1688 10.8281C28.1688 10.8281 15.607 7.03443 11.5324 9.79574C7.45786 12.5571 9.9725 16.691 9.9725 16.691L13.4738 23.1889L14.1362 24.4154L23.151 41.1226L24.567 43.4613C25.9065 42.1665 27.1507 40.7765 28.2899 39.3022C24.9964 34.9924 23.6968 31.788 23.6009 31.603Z" fill="#6400FF"/>
<path d="M101.258 63.5785C100.969 63.2153 100.567 62.9601 100.116 62.8545L99.6109 62.738C88.6136 60.1023 81.8782 51.8915 78.8108 47.1705C77.952 45.7796 77.1412 44.3475 76.4012 42.8767L99.4304 57.0829L99.3505 56.9984C97.9166 55.9621 96.6129 54.7566 95.4678 53.408V53.3943V53.3829C95.2965 53.1796 95.1297 52.974 94.9653 52.7662L74.6631 38.3772L71.477 36.1184L63.7275 30.6369L62.4736 29.6845L61.2175 28.7321L60.4067 28.1931L59.5547 27.6518L58.3602 26.8661L58.0222 26.6377L57.3028 26.1649L56.9236 25.9182C56.2384 25.4614 55.5007 24.9887 54.7242 24.4839L54.3336 24.2304L53.5365 23.7165C52.865 23.2803 52.1661 22.8372 51.4809 22.3895L50.8757 22.0104C50.0009 25.2193 47.7763 33.1424 44.709 41.1089C47.6102 43.607 50.7202 45.852 54.0047 47.8191C56.4714 38.93 58.0907 29.7576 58.1158 29.5863L58.157 30.2281C58.0131 30.9361 57.3987 40.0742 55.7314 48.8104C59.3446 50.7906 63.257 52.4145 67.3293 53.3372L64.849 53.0174C61.6358 52.2867 58.5147 51.1981 55.5441 49.7719C55.0759 52.1819 54.4766 54.5646 53.7489 56.9093C57.9157 58.6559 62.2581 59.95 66.7013 60.7692L63.2091 60.3398C59.9015 59.7469 56.6459 58.8938 53.4725 57.7886C52.6983 60.0201 51.8075 61.8998 50.7775 63.1993C59.2281 64.2477 67.8364 64.0878 67.8364 64.0878L78.9501 64.1974L88.5428 64.2226H89.3833L101.808 64.2637L101.258 63.5785Z" fill="#6400FF"/>
<path d="M12.5977 104.69C10.8777 104.708 9.1613 104.53 7.4816 104.16C6.04814 103.846 4.71438 103.183 3.59886 102.23C2.51778 101.298 1.68033 100.012 1.0865 98.3724C0.492671 96.7325 0.199563 94.6259 0.207176 92.0526C0.207176 89.6925 0.490387 87.704 1.05681 86.0869C1.53787 84.6062 2.37007 83.2639 3.48238 82.1745C4.55921 81.1677 5.86529 80.4386 7.28746 80.0504C8.91329 79.6073 10.5929 79.3929 12.2779 79.4132C13.4034 79.4074 14.5278 79.4837 15.6422 79.6416C16.5595 79.7651 17.4614 79.9848 18.3327 80.2971V86.2811C16.5745 85.6527 14.7182 85.3433 12.8512 85.3675C12.0821 85.3485 11.3155 85.4629 10.5855 85.7055C9.98203 85.9234 9.45399 86.3103 9.06438 86.8201C8.62164 87.4358 8.32484 88.1442 8.19648 88.8916C8.00402 89.9363 7.91528 90.9974 7.93154 92.0595C7.90905 93.153 8.01019 94.2456 8.23302 95.3164C8.37444 96.0464 8.6876 96.7322 9.1466 97.3172C9.55489 97.7994 10.0969 98.1499 10.7043 98.3244C11.4397 98.5264 12.2007 98.6195 12.9631 98.6008C13.9044 98.5997 14.8445 98.5349 15.7769 98.4066C16.7478 98.2753 17.7028 98.0457 18.6273 97.7214V103.703C17.7416 104.021 16.8289 104.258 15.9003 104.411C14.8098 104.602 13.7046 104.695 12.5977 104.69Z" fill="#6400FF"/>
<path d="M30.3694 84.9016C31.809 84.8796 33.247 85.0052 34.661 85.2761C35.6976 85.4648 36.6852 85.8618 37.5639 86.4432C38.2949 86.9445 38.8665 87.6453 39.2106 88.4623C39.5725 89.3799 39.7473 90.3607 39.7245 91.3469V104.338H33.6263L33.0942 102.568C32.921 102.842 32.706 103.087 32.457 103.294C32.1247 103.572 31.7558 103.802 31.3607 103.979C30.8451 104.213 30.3039 104.386 29.7482 104.493C29.0197 104.633 28.2789 104.698 27.5373 104.688C25.5289 104.688 23.9416 104.215 22.7752 103.271C21.6089 102.327 21.025 100.829 21.0234 98.7766C21.0234 96.581 21.6721 95.0294 22.9694 94.1219C24.2667 93.2144 26.3085 92.7576 29.095 92.7515H33.0234C33.0192 92.3525 32.9473 91.9571 32.811 91.5821C32.6942 91.3007 32.4889 91.065 32.2263 90.9107C31.8944 90.7272 31.5265 90.6181 31.1482 90.5909C30.6914 90.5452 30.1205 90.5201 29.4124 90.5201C28.0962 90.5141 26.7819 90.6211 25.484 90.8399V85.219C26.3052 85.0935 27.1323 85.0111 27.9621 84.9724C28.8833 84.9236 29.6857 84.9 30.3694 84.9016ZM29.6614 99.6993C30.3795 99.7177 31.0945 99.5975 31.7672 99.3453C32.2518 99.1745 32.6844 98.8819 33.0234 98.4957V97.0088H30.3329C29.267 97.0088 28.5354 97.1093 28.138 97.3103C27.736 97.5113 27.5373 97.8927 27.5373 98.4523C27.5373 98.9472 27.72 99.2776 28.0854 99.4435C28.5877 99.636 29.1241 99.723 29.6614 99.6993Z" fill="#6400FF"/>
<path d="M56.3876 84.865L56.246 90.849H55.7138C55.1549 90.8485 54.5975 90.9075 54.0511 91.0249C53.5264 91.1358 53.0239 91.3334 52.5642 91.6096C52.11 91.883 51.7205 92.2516 51.4222 92.6899C51.0981 93.1884 50.9035 93.7599 50.8558 94.3526V104.336H44.1387V85.219H50.8764V88.5468C51.1099 87.8878 51.431 87.2632 51.8311 86.6899C52.149 86.2357 52.5524 85.8478 53.0187 85.5479C53.4467 85.2798 53.9206 85.0931 54.4165 84.9975C54.9438 84.9003 55.4791 84.8529 56.0153 84.8559L56.3876 84.865Z" fill="#6400FF"/>
<path d="M62.1226 83.2365C61.4951 83.246 60.8677 83.2109 60.2452 83.1315C59.845 83.0913 59.4646 82.9375 59.1489 82.6884C58.8619 82.4156 58.6746 82.0546 58.6167 81.6629C58.5101 81.0491 58.4627 80.4266 58.4751 79.8037C58.4609 79.1915 58.5084 78.5793 58.6167 77.9766C58.6796 77.5964 58.8668 77.2478 59.1489 76.9853C59.4644 76.7387 59.8458 76.5909 60.2452 76.5605C61.4932 76.4417 62.7497 76.4417 63.9977 76.5605C64.4028 76.5933 64.7901 76.7407 65.1146 76.9853C65.4031 77.2425 65.5909 77.5938 65.6445 77.9766C65.7392 78.5808 65.7805 79.1922 65.7678 79.8037C65.779 80.4258 65.7377 81.0477 65.6445 81.6629C65.5962 82.0571 65.4082 82.4209 65.1146 82.6884C64.7899 82.9355 64.4035 83.0888 63.9977 83.1315C63.376 83.211 62.7493 83.2461 62.1226 83.2365ZM58.7583 85.219H65.4937V104.336H58.7583V85.219Z" fill="#6400FF"/>
<path d="M82.1678 84.865C84.4076 84.865 86.0124 85.3789 86.9824 86.4067C87.9523 87.4345 88.4357 89.1041 88.4327 91.4154V104.336H81.711V92.9365C81.721 92.4562 81.6797 91.9761 81.5877 91.5045C81.5303 91.1873 81.3754 90.8958 81.1446 90.6708C80.9008 90.4684 80.6075 90.3344 80.2949 90.2826C79.8624 90.2046 79.4234 90.1686 78.9839 90.1752C78.1366 90.1752 77.5039 90.3168 77.0905 90.6C76.6872 90.8705 76.3927 91.2751 76.2592 91.742V104.345H69.5215V85.2282H76.2477V87.1764C76.8055 86.4495 77.5442 85.8816 78.3901 85.5296C79.3448 85.0881 80.604 84.8665 82.1678 84.865Z" fill="#6400FF"/>
<path d="M100.85 84.9016C102.287 84.8802 103.723 85.0057 105.135 85.2761C106.171 85.4652 107.159 85.8622 108.038 86.4432C108.768 86.9446 109.339 87.6455 109.682 88.4623C110.044 89.3799 110.219 90.3607 110.196 91.3469V104.338H104.107L103.577 102.568C103.404 102.842 103.189 103.087 102.94 103.294C102.607 103.572 102.237 103.802 101.841 103.98C101.326 104.214 100.786 104.386 100.231 104.493C99.5017 104.633 98.7601 104.698 98.0178 104.688C96.0124 104.688 94.4259 104.216 93.258 103.271C92.0901 102.327 91.5054 100.829 91.5039 98.7766C91.5039 96.581 92.1533 95.0294 93.4521 94.1219C94.7509 93.2144 96.792 92.7576 99.5754 92.7515H103.506C103.5 92.3528 103.428 91.9577 103.294 91.5822C103.177 91.3008 102.972 91.065 102.709 90.9107C102.376 90.7269 102.008 90.6178 101.629 90.5909C101.172 90.5452 100.603 90.5201 99.8952 90.5201C98.5782 90.5143 97.2632 90.6213 95.9645 90.8399V85.219C96.7856 85.0936 97.6128 85.0113 98.4426 84.9724C99.3638 84.9236 100.166 84.9 100.85 84.9016ZM100.142 99.6994C100.861 99.7177 101.576 99.5975 102.25 99.3453C102.735 99.1745 103.167 98.8819 103.506 98.4957V97.0088H100.816C99.7536 97.0088 99.0204 97.1093 98.6207 97.3103C98.221 97.5113 98.0178 97.8927 98.0178 98.4523C98.0178 98.9472 98.2012 99.2776 98.5682 99.4436C99.0697 99.6358 99.6053 99.7229 100.142 99.6994Z" fill="#6400FF"/>
</g>
</g>
</g>
<defs>
<clipPath id="clip0_929_4036">
<rect width="110" height="99.39" fill="white" transform="translate(0.199219 5.3)"/>
</clipPath>
<clipPath id="clip1_929_4036">
<rect width="110" height="99.39" fill="white" transform="translate(0.199219 5.3)"/>
</clipPath>
<clipPath id="clip2_929_4036">
<rect width="109.997" height="99.39" fill="white" transform="translate(0.201172 5.3)"/>
</clipPath>
</defs>
</svg>
