<svg width="106" height="110" viewBox="0 0 106 110" fill="none" xmlns="http://www.w3.org/2000/svg">
<g clip-path="url(#clip0_929_3947)">
<path d="M15.1285 109.706C15.1285 109.896 15.0296 109.99 14.8294 109.99H13.2374C13.1048 110.002 12.9726 109.964 12.866 109.884C12.7838 109.801 12.7204 109.702 12.6802 109.592L12.1134 107.94H8.5966L8.02736 109.65C8.00146 109.74 7.95524 109.822 7.89228 109.891C7.85312 109.927 7.80696 109.954 7.75672 109.971C7.70648 109.989 7.65326 109.995 7.60042 109.99H5.97951C5.94773 109.997 5.91485 109.996 5.88364 109.987C5.85243 109.978 5.82381 109.962 5.80017 109.939C5.77653 109.917 5.75858 109.89 5.74781 109.859C5.73705 109.828 5.73378 109.796 5.7383 109.764C5.73498 109.705 5.74488 109.647 5.76725 109.592L9.14415 100.47C9.18669 100.374 9.24729 100.287 9.32264 100.214C9.40757 100.142 9.51754 100.105 9.62897 100.113H11.0931C11.2016 100.099 11.3115 100.123 11.4049 100.18C11.4982 100.237 11.5695 100.324 11.6069 100.426L15.0778 109.493C15.1049 109.561 15.122 109.633 15.1285 109.706ZM11.5104 106.232L10.6131 103.43L10.3574 102.605H10.3285C10.2899 102.737 10.2513 102.872 10.2079 103.01C10.1644 103.147 10.121 103.292 10.0728 103.444L9.1755 106.232H11.5104Z" fill="#00AAE1"/>
<path d="M29.3299 109.99C29.2039 109.993 29.0785 109.971 28.9609 109.925C28.8472 109.876 28.7524 109.791 28.6908 109.684L26.7129 106.652H25.83V109.6C25.8325 109.701 25.803 109.801 25.7456 109.884C25.7077 109.924 25.6612 109.954 25.6097 109.972C25.5582 109.99 25.5032 109.997 25.4489 109.99H23.9679C23.7026 109.99 23.5699 109.853 23.5699 109.578V100.598C23.5551 100.463 23.5875 100.328 23.6616 100.214C23.769 100.133 23.904 100.096 24.0379 100.113H26.2087C26.5127 100.113 26.8262 100.123 27.1494 100.142C27.4746 100.161 27.7975 100.209 28.1143 100.284C28.4226 100.359 28.7212 100.469 29.0043 100.612C29.2855 100.756 29.5387 100.949 29.7521 101.181C30.0082 101.467 30.2043 101.801 30.3285 102.163C30.4851 102.628 30.5462 103.12 30.5081 103.609C30.4699 104.098 30.3334 104.574 30.1066 105.009C29.814 105.534 29.3667 105.955 28.8258 106.215V106.242L31.1607 109.573C31.2113 109.644 31.2406 109.727 31.2451 109.814C31.2477 109.842 31.2423 109.871 31.2295 109.896C31.2167 109.921 31.197 109.942 31.1728 109.957C31.1265 109.985 31.0729 110 31.0184 110L29.3299 109.99ZM28.2204 103.345C28.2291 103.101 28.183 102.858 28.0853 102.634C27.9997 102.447 27.8676 102.285 27.7018 102.163C27.5276 102.036 27.3288 101.946 27.1181 101.9C26.8807 101.846 26.6379 101.819 26.3945 101.821H25.8397V104.956H26.5512C26.9979 104.982 27.4376 104.837 27.7814 104.551C27.9372 104.394 28.0571 104.204 28.1329 103.996C28.2086 103.788 28.2385 103.566 28.2204 103.345Z" fill="#00AAE1"/>
<path d="M48.9001 109.99C48.7096 109.99 48.5866 109.942 48.5311 109.848C48.4628 109.711 48.4281 109.56 48.4298 109.407L48.273 104.525H48.2465L46.0973 109.677C46.0812 109.733 46.0538 109.785 46.0169 109.83C45.98 109.875 45.9343 109.913 45.8826 109.94C45.7967 109.974 45.7049 109.991 45.6125 109.99H45.0867C44.9745 109.994 44.8627 109.975 44.7586 109.932C44.6507 109.871 44.566 109.776 44.5174 109.662L42.0547 104.525H42.0257L41.9413 109.549C41.9413 109.749 41.8979 109.872 41.8135 109.92C41.7019 109.972 41.5794 109.996 41.4565 109.99H40.2891C39.9586 109.99 39.8066 109.838 39.8066 109.534L40.1902 100.569C40.1866 100.504 40.1961 100.439 40.218 100.379C40.24 100.318 40.274 100.262 40.318 100.214C40.4063 100.143 40.5181 100.107 40.6316 100.113H41.6567C41.7851 100.104 41.913 100.137 42.0209 100.207C42.1147 100.287 42.1896 100.387 42.2404 100.499L45.3761 106.929H45.4051L48.2513 100.499C48.2973 100.388 48.3703 100.29 48.4636 100.214C48.5725 100.14 48.7033 100.104 48.835 100.113H49.8288C49.9349 100.102 50.0412 100.13 50.1279 100.193C50.1958 100.269 50.232 100.368 50.2292 100.47L50.6971 109.549C50.7164 109.843 50.5886 109.99 50.3136 109.99H48.9001Z" fill="#00AAE1"/>
<path d="M68.4228 109.706C68.4228 109.896 68.3239 109.99 68.1261 109.99H66.5317C66.3998 110.002 66.2682 109.964 66.1627 109.884C66.079 109.803 66.0154 109.703 65.977 109.592L65.4077 107.94H61.8909L61.3241 109.65C61.2972 109.74 61.2511 109.822 61.189 109.891C61.1508 109.926 61.1062 109.952 61.0578 109.969C61.0094 109.986 60.958 109.993 60.9068 109.99H59.2835C59.2527 109.995 59.2212 109.992 59.1917 109.982C59.1622 109.972 59.1353 109.956 59.1133 109.934C59.0913 109.912 59.0747 109.885 59.0649 109.855C59.0551 109.826 59.0523 109.794 59.0567 109.764C59.0528 109.705 59.0619 109.647 59.0833 109.592L62.4602 100.47C62.5027 100.374 62.5633 100.287 62.6387 100.214C62.7238 100.142 62.8336 100.106 62.945 100.113H64.4115C64.5196 100.1 64.629 100.124 64.7219 100.181C64.8147 100.237 64.8856 100.324 64.9229 100.426L68.3842 109.493C68.4084 109.562 68.4214 109.633 68.4228 109.706ZM64.8047 106.232L63.8978 103.43L63.6421 102.605H63.6131C63.577 102.737 63.536 102.872 63.4925 103.01C63.4491 103.147 63.4057 103.292 63.3575 103.444L62.4602 106.232H64.8047Z" fill="#00AAE1"/>
<path d="M85.4456 105.082C85.4642 105.837 85.3263 106.587 85.0404 107.286C84.7929 107.873 84.4161 108.396 83.9381 108.816C83.4599 109.227 82.8988 109.53 82.293 109.706C81.6345 109.9 80.951 109.996 80.2645 109.99H77.37C77.2533 109.996 77.1372 109.969 77.0347 109.913C76.9551 109.86 76.9141 109.739 76.9141 109.549V100.569C76.9034 100.446 76.9358 100.323 77.0058 100.221C77.0582 100.179 77.1188 100.147 77.1839 100.128C77.249 100.109 77.3173 100.104 77.3845 100.113H79.6325C80.4382 100.105 81.2423 100.185 82.0301 100.354C82.6936 100.492 83.3196 100.771 83.8657 101.172C84.384 101.57 84.789 102.098 85.0404 102.701C85.3353 103.459 85.4731 104.269 85.4456 105.082ZM83.0336 105.067C83.0336 104.004 82.7747 103.238 82.2569 102.769C81.7391 102.299 80.9744 102.064 79.963 102.064H79.1646V108.061H80.1753C80.5261 108.06 80.8755 108.015 81.2149 107.926C81.5517 107.833 81.8644 107.668 82.1314 107.443C82.4195 107.194 82.6423 106.879 82.7803 106.524C82.9549 106.059 83.0385 105.564 83.0263 105.067H83.0336Z" fill="#00AAE1"/>
<path d="M102.351 109.706C102.351 109.896 102.252 109.99 102.051 109.99H100.464C100.332 110.002 100.199 109.964 100.093 109.884C100.011 109.801 99.9473 109.702 99.9071 109.592L99.3378 107.94H95.8186L95.2494 109.65C95.2225 109.74 95.1764 109.822 95.1143 109.891C95.0751 109.927 95.029 109.954 94.9787 109.971C94.9285 109.989 94.8753 109.995 94.8224 109.99H93.2015C93.1706 109.995 93.1392 109.992 93.1095 109.982C93.0799 109.972 93.053 109.956 93.0308 109.934C93.0086 109.912 92.9918 109.885 92.9817 109.855C92.9716 109.826 92.9684 109.795 92.9724 109.764C92.9691 109.705 92.979 109.647 93.0013 109.592L96.3782 100.47C96.4208 100.374 96.4814 100.287 96.5567 100.214C96.6416 100.142 96.7516 100.105 96.8631 100.113H98.3272C98.4357 100.099 98.5456 100.123 98.639 100.18C98.7323 100.237 98.8035 100.324 98.841 100.426L102.3 109.493C102.327 109.561 102.344 109.633 102.351 109.706ZM98.7324 106.232L97.8351 103.43L97.5698 102.605H97.5408C97.5023 102.737 97.4637 102.872 97.4202 103.01C97.3768 103.147 97.331 103.292 97.2852 103.444L96.3879 106.232H98.7324Z" fill="#00AAE1"/>
<path d="M53.0984 17.2005L37.6177 35.976L28.0684 38.7619L53.2166 0L78.3672 38.7619L68.8178 35.976L53.0984 17.2005Z" fill="white"/>
<path d="M25.6789 59.5902L10.1983 78.3633L0.646484 81.1516L25.7971 42.3873L50.9478 81.1516L41.3984 78.3633L25.6789 59.5902Z" fill="white"/>
<path d="M80.4621 59.5902L64.9791 78.3633L55.4297 81.1516L80.5803 42.3873L105.731 81.1516L96.1816 78.3633L80.4621 59.5902Z" fill="white"/>
<path d="M53.1001 27.2853L41.7754 38.0769C41.7754 38.0769 46.3969 47.1559 53.1001 50.3495C59.8032 47.1559 64.4368 38.0769 64.4368 38.0769L53.1001 27.2853Z" fill="#383838"/>
<path d="M25.7977 69.6195L14.4609 80.4111C14.4609 80.4111 19.0849 89.4902 25.7977 92.6837C32.5008 89.4902 37.1344 80.4111 37.1344 80.4111L25.7977 69.6195Z" fill="#383838"/>
<path d="M80.5809 69.6195L69.2441 80.4111C69.2441 80.4111 73.8681 89.4902 80.5809 92.6837C87.284 89.4902 91.9176 80.4111 91.9176 80.4111L80.5809 69.6195Z" fill="#383838"/>
</g>
<defs>
<clipPath id="clip0_929_3947">
<rect width="105.084" height="110" fill="white" transform="translate(0.646484)"/>
</clipPath>
</defs>
</svg>
