<svg width="111" height="110" viewBox="0 0 111 110" fill="none" xmlns="http://www.w3.org/2000/svg">
<g clip-path="url(#clip0_929_4223)">
<g clip-path="url(#clip1_929_4223)">
<g clip-path="url(#clip2_929_4223)">
<path d="M93.3689 2.3443H18.0381V77.6751H93.3689V2.3443Z" fill="white"/>
<path d="M46.2325 34.0395L33.2606 26.8502C32.6042 26.4908 32.1822 26.1626 31.9634 25.8813C31.7351 25.5634 31.6196 25.1783 31.6352 24.7872C31.6443 24.2498 31.8608 23.7366 32.2394 23.3551C32.6181 22.9735 33.1296 22.7531 33.6669 22.7399C34.0108 22.7399 34.5265 22.9274 35.2298 23.3025L54.547 34.0551L35.2298 44.8077C34.5265 45.1985 34.0108 45.4016 33.6669 45.4016C33.4007 45.4033 33.137 45.35 32.8923 45.2451C32.6476 45.1402 32.4271 44.986 32.2447 44.7921C32.0477 44.6022 31.8919 44.3738 31.787 44.121C31.6822 43.8683 31.6305 43.5966 31.6352 43.323C31.6196 42.9319 31.7351 42.5469 31.9634 42.229C32.1822 41.9477 32.6042 41.6195 33.2606 41.26L46.2325 34.0395Z" fill="white"/>
<path d="M77.0993 57.4515H55.1096C54.1406 57.4515 53.4529 57.2639 53.0466 56.9045C52.8451 56.7247 52.686 56.5025 52.5806 56.2539C52.4752 56.0053 52.4262 55.7364 52.437 55.4666C52.4279 55.1947 52.4777 54.9241 52.5829 54.6732C52.6881 54.4224 52.8462 54.1972 53.0466 54.0131C53.4529 53.638 54.1406 53.4505 55.1096 53.4505H77.1149C78.0683 53.4505 78.7403 53.638 79.1623 54.0131C79.5457 54.387 79.7649 54.8979 79.7716 55.4334C79.7784 55.9689 79.5721 56.4851 79.1982 56.8685L79.1623 56.9045C78.7559 57.2639 78.0683 57.4515 77.0993 57.4515Z" fill="white"/>
</g>
<path d="M91.0242 4.68864V75.3308H20.382V4.68864H91.0242ZM95.7128 0H15.6934V80.0195H95.7128V0Z" fill="#FF0000"/>
</g>
<mask id="mask0_929_4223" style="mask-type:luminance" maskUnits="userSpaceOnUse" x="2" y="89" width="108" height="21">
<path d="M109.018 89.1266H2.58984V110H109.018V89.1266Z" fill="white"/>
</mask>
<g mask="url(#mask0_929_4223)">
<g clip-path="url(#clip3_929_4223)">
<path d="M11.9984 100.052C11.717 100.175 11.4638 100.29 11.2402 100.395C10.9512 100.526 10.6543 100.637 10.3512 100.73C10.0203 100.833 9.68353 100.915 9.34271 100.978C8.94635 101.049 8.5442 101.083 8.14148 101.08C7.37732 101.09 6.61681 100.973 5.89093 100.734C5.22485 100.512 4.61926 100.138 4.12143 99.6429C3.61416 99.1204 3.22975 98.4914 2.99616 97.8016C2.70436 96.9695 2.56152 96.0924 2.57418 95.2107C2.56055 94.3566 2.69523 93.5066 2.97225 92.6985C3.21396 91.9993 3.60626 91.3616 4.12143 90.8306C4.61506 90.3316 5.21246 89.9474 5.87124 89.7053C6.60035 89.438 7.37199 89.3055 8.14851 89.3143C8.76467 89.3145 9.37858 89.3886 9.97708 89.5351C10.6775 89.7191 11.3553 89.9799 11.9984 90.3129V92.1035H11.8858C11.3327 91.6246 10.7057 91.2384 10.0291 90.96C9.4006 90.7196 8.7328 90.5984 8.05989 90.6027C7.53082 90.5957 7.00539 90.6912 6.51264 90.884C6.0366 91.0761 5.6101 91.3733 5.26499 91.7533C4.89207 92.1723 4.61126 92.6649 4.44073 93.1993C4.23568 93.8496 4.13689 94.5288 4.14816 95.2107C4.13269 95.9104 4.24224 96.6073 4.47168 97.2685C4.653 97.7887 4.93715 98.2671 5.30719 98.6751C5.65309 99.0451 6.07951 99.3305 6.55343 99.5092C7.03504 99.689 7.54587 99.7778 8.05989 99.7709C8.75857 99.7752 9.45185 99.6483 10.1037 99.3967C10.7611 99.1321 11.3654 98.7509 11.8872 98.2714H11.9984V100.052Z" fill="white"/>
<path d="M21.2709 96.6172C21.2709 98.0041 20.9151 99.0994 20.2033 99.903C19.4916 100.707 18.5384 101.108 17.3437 101.107C16.1378 101.107 15.1809 100.706 14.4729 99.903C13.7649 99.1004 13.409 98.0051 13.4053 96.6172C13.4053 95.2294 13.7597 94.1327 14.4687 93.3272C15.1776 92.5217 16.1359 92.118 17.3437 92.1161C18.5384 92.1161 19.4911 92.5189 20.2019 93.3244C20.9127 94.1299 21.2691 95.2275 21.2709 96.6172ZM19.7912 96.6172C19.7912 95.5145 19.5755 94.6949 19.1442 94.1585C18.7128 93.6221 18.1127 93.354 17.3437 93.354C16.5654 93.354 15.9615 93.6221 15.532 94.1585C15.1026 94.6949 14.8883 95.5145 14.8892 96.6172C14.8892 97.6863 15.1054 98.4955 15.5377 99.045C15.97 99.5945 16.572 99.8702 17.3437 99.8721C18.1061 99.8721 18.7044 99.5988 19.1385 99.0521C19.5727 98.5054 19.7903 97.6938 19.7912 96.6172Z" fill="white"/>
<path d="M30.6094 100.871H29.1761V96.0222C29.1775 95.654 29.1549 95.2862 29.1086 94.9209C29.0819 94.638 28.9961 94.3639 28.8568 94.1163C28.7293 93.9031 28.5371 93.7361 28.3082 93.6395C28.0115 93.5254 27.6948 93.4723 27.3771 93.4833C26.9523 93.4917 26.5341 93.5904 26.1505 93.7731C25.7148 93.9707 25.3028 94.217 24.9226 94.5073V100.865H23.4893V92.3553H24.9226V93.3005C25.3437 92.9473 25.8131 92.656 26.3165 92.4354C26.7797 92.2297 27.2809 92.1233 27.7878 92.1232C28.7077 92.1232 29.411 92.4003 29.8977 92.9545C30.3844 93.5087 30.6258 94.3057 30.6221 95.3457L30.6094 100.871Z" fill="white"/>
<path d="M37.791 100.795C37.5011 100.872 37.2071 100.933 36.9105 100.978C36.6311 101.02 36.3491 101.042 36.0665 101.045C35.1972 101.045 34.5361 100.811 34.0832 100.342C33.6303 99.8731 33.4043 99.1229 33.4052 98.0914V93.5608H32.4375V92.3553H33.4052V89.9078H34.8386V92.3553H37.7924V93.5608H34.8386V97.4401C34.8386 97.8874 34.8484 98.2377 34.8695 98.4881C34.8888 98.7351 34.9612 98.975 35.0819 99.1913C35.1855 99.3826 35.347 99.5363 35.5433 99.6302C35.8286 99.7398 36.134 99.7878 36.4393 99.7709C36.6866 99.7699 36.9326 99.7353 37.1707 99.6682C37.3531 99.6215 37.533 99.5652 37.7094 99.4994H37.7854L37.791 100.795Z" fill="white"/>
<path d="M46.1388 100.871H44.7125V99.9635C44.5859 100.051 44.4143 100.172 44.1977 100.326C44.0006 100.47 43.79 100.594 43.5689 100.696C43.3053 100.822 43.0296 100.92 42.7461 100.989C42.389 101.073 42.0228 101.113 41.656 101.107C41.297 101.115 40.94 101.052 40.6056 100.921C40.2712 100.79 39.9661 100.594 39.7078 100.345C39.4449 100.095 39.2376 99.7934 39.0997 99.4584C38.9617 99.1234 38.8962 98.7629 38.9075 98.4008C38.9075 97.7547 39.0481 97.2324 39.3295 96.8339C39.6298 96.4169 40.0397 96.0912 40.5138 95.8929C41.1091 95.6449 41.7383 95.4879 42.3804 95.4273C43.1071 95.3476 43.8873 95.2866 44.7209 95.2444V95.0236C44.7306 94.7445 44.6716 94.4673 44.5493 94.2162C44.4342 94.0067 44.262 93.834 44.0528 93.7183C43.826 93.593 43.5772 93.5128 43.32 93.482C42.6044 93.3764 41.8754 93.406 41.1707 93.5692C40.6813 93.6779 40.2008 93.8231 39.7332 94.0038H39.6572V92.5381C39.9385 92.4622 40.3408 92.3778 40.8697 92.2864C41.3857 92.1952 41.9085 92.1482 42.4324 92.1457C42.9578 92.1369 43.4826 92.184 43.9979 92.2864C44.4144 92.3736 44.8081 92.5466 45.1542 92.7941C45.4734 93.0271 45.7257 93.34 45.8856 93.7014C46.0656 94.1385 46.1514 94.6087 46.1374 95.0813L46.1388 100.871ZM44.7125 98.7862V96.4034C44.275 96.4288 43.7616 96.4667 43.1652 96.5174C42.6907 96.5498 42.22 96.6241 41.7587 96.7396C41.3857 96.8354 41.0425 97.0225 40.76 97.284C40.6294 97.4185 40.5283 97.5789 40.4631 97.7547C40.398 97.9305 40.3702 98.118 40.3816 98.3052C40.3816 98.7918 40.5223 99.1604 40.8233 99.4065C41.1243 99.6527 41.5674 99.7736 42.1722 99.7736C42.6478 99.7836 43.1196 99.6875 43.5535 99.4923C43.9643 99.2998 44.353 99.063 44.7125 98.7862Z" fill="white"/>
<path d="M50.4389 90.9304H48.8213V89.4436H50.4389V90.9304ZM50.3474 100.871H48.9141V92.3553H50.3474V100.871Z" fill="white"/>
<path d="M60.3038 100.871H58.8705V96.0223C58.8721 95.654 58.8491 95.2861 58.8015 94.9209C58.777 94.6386 58.6936 94.3645 58.5568 94.1163C58.43 93.9025 58.2376 93.7352 58.0082 93.6395C57.7119 93.5255 57.3957 93.4724 57.0784 93.4834C56.6532 93.4917 56.2346 93.5905 55.8505 93.7731C55.4132 93.9703 54.9999 94.2167 54.6183 94.5074V100.865H53.1836V92.3553H54.6183V93.3005C55.0374 92.9469 55.5043 92.6542 56.0052 92.4312C56.4687 92.2243 56.9704 92.117 57.4779 92.1161C58.3978 92.1161 59.1011 92.3932 59.5878 92.9474C60.0745 93.5016 60.316 94.2987 60.3122 95.3387L60.3038 100.871Z" fill="white"/>
<path d="M70.1917 96.7579H63.9169C63.9069 97.2251 63.9872 97.6897 64.1532 98.1265C64.2893 98.4793 64.5028 98.7971 64.7778 99.0565C65.0529 99.316 65.3825 99.5106 65.7426 99.6259C66.1306 99.7512 66.5362 99.813 66.9439 99.8088C67.5437 99.8048 68.1374 99.6874 68.6937 99.4628C69.2802 99.2307 69.698 99.0042 69.9469 98.7792H70.0229V100.353C69.5414 100.556 69.0471 100.726 68.5432 100.864C68.0285 101.002 67.4978 101.071 66.965 101.069C65.5518 101.069 64.4486 100.687 63.6553 99.9213C62.8619 99.1561 62.4648 98.0698 62.4639 96.6623C62.4639 95.2697 62.8436 94.1646 63.6032 93.3469C64.3628 92.5292 65.3633 92.119 66.6049 92.1161C67.7527 92.1161 68.6383 92.4519 69.2619 93.1233C69.8855 93.7947 70.1968 94.7474 70.1959 95.9815L70.1917 96.7579ZM68.7949 95.6594C68.7893 94.9092 68.6018 94.3273 68.2323 93.9138C67.8628 93.5002 67.2936 93.2944 66.5247 93.2963C65.7567 93.2963 65.1472 93.5227 64.6961 93.9757C64.2416 94.4256 63.9666 95.0256 63.9225 95.6636L68.7949 95.6594Z" fill="white"/>
<path d="M77.6774 93.918H77.6014C77.3976 93.8675 77.1909 93.8295 76.9825 93.8041C76.7457 93.779 76.5076 93.7673 76.2694 93.7689C75.8261 93.77 75.3887 93.8705 74.9894 94.0629C74.5636 94.2666 74.164 94.5212 73.7994 94.821V100.869H72.3633V92.3553H73.7966V93.6128C74.2554 93.226 74.7616 92.8994 75.3031 92.6408C75.7216 92.4551 76.1744 92.3593 76.6323 92.3595C76.813 92.3569 76.9938 92.3635 77.1738 92.3792C77.2864 92.3919 77.4551 92.4158 77.6774 92.4509V93.918Z" fill="white"/>
<path d="M87.3914 97.6314C87.3888 98.0862 87.283 98.5344 87.0819 98.9423C86.8798 99.3685 86.5841 99.7435 86.2169 100.039C85.7913 100.375 85.3099 100.633 84.7948 100.802C84.1625 101 83.5023 101.095 82.8397 101.083C82.1001 101.091 81.362 101.015 80.6397 100.855C79.956 100.691 79.2896 100.461 78.6494 100.17V98.2784H78.7563C79.3459 98.7658 80.0201 99.1405 80.7452 99.384C81.4258 99.6302 82.1427 99.761 82.8664 99.7708C83.8041 99.7708 84.5323 99.5955 85.0508 99.2448C85.2921 99.0986 85.4911 98.8919 85.628 98.6452C85.765 98.3985 85.8351 98.1203 85.8315 97.8382C85.8315 97.336 85.7091 96.9661 85.4629 96.7256C85.2168 96.485 84.8412 96.3036 84.3377 96.1629C83.9278 96.0565 83.5121 95.9734 83.0928 95.914C82.6484 95.8478 82.1772 95.7649 81.6863 95.6622C80.6801 95.4484 79.9341 95.0836 79.4484 94.5678C78.9626 94.0521 78.7202 93.3797 78.7212 92.5508C78.7212 91.6018 79.1225 90.823 79.9252 90.2144C80.7279 89.6059 81.7467 89.302 82.9817 89.303C84.3436 89.2925 85.6932 89.5616 86.9469 90.0935V91.8939H86.8288C86.3221 91.4904 85.745 91.1842 85.1268 90.9909C84.4295 90.7528 83.6974 90.6326 82.9606 90.635C82.1523 90.635 81.5029 90.8029 81.0125 91.1386C80.5221 91.4743 80.2768 91.9061 80.2768 92.434C80.2768 92.9081 80.3992 93.278 80.6426 93.5481C80.8859 93.8181 81.3135 94.0108 81.931 94.1585C82.2559 94.2289 82.7187 94.3161 83.3193 94.4173C83.9199 94.5186 84.4263 94.6227 84.8441 94.7296C85.688 94.9547 86.3233 95.2927 86.75 95.7438C87.1767 96.1948 87.3905 96.824 87.3914 97.6314Z" fill="white"/>
<path d="M97.8963 97.6314C97.8923 98.086 97.7866 98.5339 97.5869 98.9424C97.3848 99.3685 97.0891 99.7435 96.7218 100.04C96.2962 100.375 95.8149 100.633 95.2998 100.802C94.6675 101 94.0072 101.095 93.3446 101.083C92.6027 101.092 91.8622 101.015 91.1377 100.855C90.4532 100.693 89.7858 100.466 89.1445 100.177V98.2785H89.25C89.8403 98.7655 90.5149 99.1403 91.2403 99.384C91.9204 99.6303 92.6369 99.761 93.3601 99.7708C94.2978 99.7708 95.026 99.5955 95.5445 99.2448C95.7858 99.0986 95.9848 98.8919 96.1217 98.6452C96.2587 98.3985 96.3288 98.1203 96.3252 97.8382C96.3252 97.336 96.2014 96.9661 95.9552 96.7256C95.7091 96.485 95.3335 96.3036 94.83 96.1629C94.4219 96.0568 94.0082 95.9736 93.5908 95.914C93.1463 95.8479 92.6779 95.7649 92.1842 95.6622C91.1771 95.4484 90.4311 95.0836 89.9463 94.5679C89.4615 94.0521 89.2195 93.3802 89.2205 92.5522C89.2205 91.6051 89.6228 90.8263 90.4273 90.2159C91.2319 89.6054 92.2508 89.3011 93.4839 89.303C94.222 89.2971 94.9584 89.3736 95.6796 89.5309C96.2847 89.6646 96.8765 89.8529 97.4476 90.0935V91.8939H97.3421C96.834 91.491 96.2562 91.1849 95.6374 90.9909C94.9401 90.7528 94.208 90.6326 93.4712 90.635C92.6629 90.635 92.0135 90.8029 91.5231 91.1386C91.0326 91.4743 90.7874 91.9061 90.7874 92.4341C90.7874 92.9081 90.9098 93.278 91.1531 93.5481C91.3965 93.8181 91.8269 94.0235 92.4416 94.1656C92.7665 94.2359 93.2293 94.3231 93.8285 94.4244C94.4277 94.5257 94.9369 94.6298 95.3532 94.7367C96.1972 94.9617 96.8325 95.2998 97.2592 95.7508C97.6858 96.2019 97.8982 96.8287 97.8963 97.6314Z" fill="white"/>
<path d="M109.002 100.871H107.493V95.3133H101.829V100.871H100.319V89.5196H101.829V93.9715H107.493V89.5196H109.002V100.871Z" fill="white"/>
<path d="M6.09087 109.789H2.82617V104.676H3.514V109.177H6.09087V109.789Z" fill="#58595B"/>
<path d="M9.73515 109.789H9.08671V109.381C9.02904 109.419 8.94605 109.474 8.85181 109.544C8.76352 109.608 8.66932 109.664 8.57049 109.71C8.45191 109.765 8.32796 109.809 8.20055 109.839C8.03619 109.879 7.86748 109.898 7.6984 109.896C7.36961 109.904 7.05063 109.783 6.81084 109.558C6.69143 109.446 6.59719 109.31 6.53438 109.159C6.47157 109.008 6.44162 108.845 6.44653 108.682C6.43532 108.433 6.50168 108.187 6.63642 107.978C6.77385 107.791 6.96024 107.645 7.17515 107.556C7.44459 107.445 7.72898 107.375 8.0191 107.347C8.34965 107.31 8.70552 107.282 9.08389 107.264V107.167C9.08807 107.041 9.06101 106.916 9.00512 106.802C8.95329 106.707 8.87579 106.629 8.78148 106.576C8.67865 106.519 8.56598 106.483 8.44952 106.469C8.31481 106.451 8.179 106.441 8.04301 106.441C7.85037 106.444 7.65852 106.466 7.47053 106.508C7.24829 106.556 7.03009 106.621 6.81787 106.703H6.78411V106.041C6.91071 106.006 7.09497 105.968 7.3355 105.928C7.56778 105.887 7.80304 105.866 8.03879 105.866C8.28235 105.861 8.52568 105.883 8.7646 105.93C8.95392 105.969 9.13311 106.046 9.29066 106.158C9.43556 106.263 9.55047 106.404 9.62402 106.568C9.70583 106.764 9.74467 106.976 9.73796 107.189L9.73515 109.789ZM9.08671 108.845V107.776C8.88697 107.788 8.65348 107.805 8.38341 107.828C8.16943 107.843 7.95718 107.877 7.74904 107.929C7.57962 107.972 7.42348 108.056 7.29471 108.174C7.17826 108.307 7.11647 108.48 7.12168 108.657C7.1269 108.834 7.19874 109.003 7.32284 109.129C7.50219 109.254 7.71943 109.313 7.93752 109.296C8.15371 109.298 8.36768 109.253 8.56486 109.164C8.74982 109.077 8.92479 108.97 9.08671 108.845Z" fill="#58595B"/>
<path d="M14.2034 109.789H13.5452V109.367C13.3524 109.521 13.1424 109.652 12.9192 109.758C12.7082 109.852 12.4794 109.9 12.2483 109.898C12.0717 109.909 11.8949 109.881 11.7303 109.816C11.5656 109.752 11.4169 109.652 11.2946 109.524C11.071 109.278 10.957 108.914 10.957 108.441V105.96H11.6097V108.14C11.6085 108.305 11.6179 108.469 11.6378 108.632C11.6512 108.758 11.6915 108.879 11.756 108.988C11.8121 109.086 11.8964 109.165 11.9979 109.215C12.1362 109.268 12.2844 109.292 12.4325 109.284C12.6229 109.278 12.8102 109.234 12.9825 109.153C13.1833 109.066 13.3723 108.954 13.5452 108.819V105.96H14.1978L14.2034 109.789Z" fill="#58595B"/>
<path d="M18.7275 109.789H18.0763V107.604C18.0765 107.439 18.0662 107.273 18.0453 107.109C18.0326 106.981 17.9933 106.858 17.93 106.746C17.8708 106.651 17.784 106.576 17.681 106.531C17.5463 106.48 17.403 106.456 17.2591 106.461C17.0643 106.464 16.8725 106.508 16.6964 106.591C16.4969 106.681 16.3082 106.793 16.1338 106.925V109.789H15.4854V105.96H16.1366V106.382C16.3281 106.223 16.5406 106.091 16.7682 105.989C16.9796 105.898 17.2073 105.85 17.4377 105.849C17.8569 105.849 18.1762 105.973 18.3956 106.223C18.615 106.473 18.7247 106.832 18.7247 107.302L18.7275 109.789Z" fill="#58595B"/>
<path d="M22.8507 109.548C22.6501 109.643 22.4428 109.724 22.2303 109.789C22.0282 109.847 21.8189 109.875 21.6086 109.874C21.3466 109.878 21.086 109.836 20.8378 109.752C20.6126 109.676 20.4073 109.55 20.2372 109.384C20.0614 109.207 19.9277 108.994 19.8462 108.759C19.7476 108.475 19.7 108.176 19.7055 107.876C19.7055 107.248 19.8795 106.756 20.2274 106.399C20.4079 106.219 20.6237 106.079 20.8612 105.987C21.0987 105.895 21.3528 105.853 21.6072 105.864C21.8309 105.866 22.0534 105.898 22.2683 105.96C22.471 106.017 22.6678 106.094 22.8563 106.188V106.905H22.8211C22.6334 106.759 22.426 106.639 22.205 106.551C22.008 106.472 21.7982 106.431 21.5861 106.428C21.4203 106.42 21.2549 106.45 21.1022 106.515C20.9495 106.58 20.8135 106.679 20.7042 106.804C20.4904 107.05 20.3835 107.411 20.3835 107.887C20.3835 108.362 20.488 108.718 20.6972 108.953C20.806 109.079 20.9423 109.178 21.0955 109.242C21.2486 109.307 21.4146 109.335 21.5805 109.326C21.7171 109.326 21.8532 109.31 21.9856 109.277C22.1131 109.243 22.2366 109.196 22.3541 109.136C22.4459 109.091 22.5346 109.04 22.62 108.984C22.689 108.941 22.7552 108.894 22.8183 108.843H22.8535L22.8507 109.548Z" fill="#58595B"/>
<path d="M26.9263 109.789H26.2737V107.604C26.2746 107.439 26.2642 107.273 26.2427 107.109C26.2302 106.982 26.1914 106.858 26.1288 106.746C26.0694 106.65 25.982 106.575 25.8784 106.531C25.7437 106.48 25.6003 106.456 25.4564 106.461C25.2617 106.464 25.0699 106.508 24.8938 106.591C24.6943 106.681 24.5056 106.793 24.3312 106.925V109.789H23.6855V104.444H24.3382V106.382C24.5288 106.221 24.7415 106.089 24.9698 105.989C25.1808 105.897 25.4088 105.849 25.6393 105.849C25.8166 105.838 25.9942 105.865 26.1596 105.93C26.3251 105.995 26.4744 106.095 26.5972 106.223C26.8166 106.473 26.9263 106.832 26.9263 107.302V109.789Z" fill="#58595B"/>
<path d="M33.546 109.548C33.346 109.644 33.1391 109.724 32.9271 109.789C32.7246 109.847 32.5147 109.876 32.3039 109.874C32.0423 109.878 31.782 109.837 31.5345 109.752C31.3082 109.678 31.1025 109.552 30.9339 109.383C30.7577 109.208 30.6235 108.994 30.5415 108.759C30.4429 108.475 30.3953 108.176 30.4008 107.876C30.4008 107.248 30.5752 106.756 30.9241 106.399C31.1043 106.219 31.3199 106.079 31.5572 105.987C31.7945 105.895 32.0483 105.853 32.3025 105.864C32.5244 105.866 32.745 105.898 32.958 105.96C33.1606 106.017 33.3575 106.094 33.546 106.188V106.905H33.5108C33.3236 106.759 33.1167 106.639 32.8961 106.551C32.6986 106.472 32.4883 106.431 32.2758 106.428C32.1117 106.42 31.9479 106.449 31.7965 106.513C31.6451 106.577 31.5099 106.674 31.4009 106.797C31.1852 107.043 31.0779 107.404 31.0788 107.88C31.0797 108.355 31.1848 108.711 31.3939 108.946C31.5029 109.071 31.639 109.17 31.7918 109.234C31.9446 109.299 32.1101 109.328 32.2758 109.319C32.4115 109.319 32.5466 109.302 32.6781 109.268C32.8057 109.235 32.9292 109.188 33.0466 109.127C33.1381 109.081 33.2267 109.03 33.3139 108.976C33.3822 108.933 33.4479 108.886 33.5108 108.835H33.546V109.548Z" fill="#58595B"/>
<path d="M37.6854 107.87C37.6854 108.495 37.5231 108.988 37.1987 109.35C37.0303 109.521 36.8297 109.657 36.6086 109.751C36.3874 109.845 36.1499 109.894 35.9097 109.896C35.6695 109.898 35.4312 109.853 35.2086 109.763C34.9859 109.672 34.7832 109.539 34.612 109.371L34.5923 109.351C34.2688 108.99 34.1075 108.497 34.1084 107.871C34.1093 107.246 34.2706 106.752 34.5923 106.389C34.9324 106.043 35.3958 105.847 35.8806 105.843C36.3654 105.839 36.8319 106.028 37.1776 106.368L37.1987 106.389C37.5241 106.76 37.6863 107.254 37.6854 107.87ZM37.0116 107.87C37.0116 107.373 36.9136 107.004 36.7176 106.762C36.5183 106.544 36.2407 106.414 35.9459 106.401C35.6511 106.388 35.363 106.492 35.1451 106.691C35.1211 106.714 35.0972 106.736 35.0761 106.76C34.882 107.005 34.785 107.375 34.785 107.87C34.785 108.351 34.8834 108.715 35.0804 108.963C35.1828 109.079 35.3088 109.172 35.4501 109.236C35.5914 109.3 35.7447 109.333 35.8997 109.333C36.0547 109.333 36.208 109.3 36.3493 109.236C36.4906 109.172 36.6166 109.079 36.719 108.963C36.9141 108.722 37.0116 108.358 37.0116 107.87Z" fill="#58595B"/>
<path d="M41.9295 109.789H41.2782V107.604C41.278 107.439 41.2672 107.273 41.2459 107.109C41.2345 106.981 41.1956 106.858 41.132 106.746C41.0729 106.65 40.9854 106.575 40.8816 106.531C40.7468 106.48 40.6035 106.456 40.4596 106.461C40.2649 106.464 40.073 106.508 39.897 106.591C39.6975 106.681 39.5087 106.793 39.3343 106.925V109.789H38.6943V105.96H39.347V106.382C39.5385 106.223 39.751 106.091 39.9786 105.989C40.1896 105.897 40.4176 105.849 40.6481 105.849C41.0673 105.849 41.3866 105.973 41.606 106.223C41.8254 106.473 41.9351 106.832 41.9351 107.302L41.9295 109.789Z" fill="#58595B"/>
<path d="M45.2037 109.758C45.0715 109.79 44.9378 109.817 44.8028 109.836C44.6748 109.856 44.5455 109.866 44.416 109.867C44.0207 109.867 43.7211 109.762 43.5144 109.551C43.3076 109.34 43.2049 109.002 43.2049 108.538V106.494H42.7646V105.96H43.2049V104.857H43.8576V105.96H45.2037V106.499H43.8576V108.246C43.8531 108.403 43.8578 108.561 43.8716 108.718C43.8789 108.83 43.9121 108.939 43.9687 109.036C44.0146 109.124 44.0882 109.195 44.1783 109.237C44.3084 109.286 44.4473 109.308 44.5862 109.3C44.6984 109.299 44.8099 109.284 44.9181 109.254C45.003 109.233 45.0866 109.207 45.1685 109.177H45.2037V109.758Z" fill="#58595B"/>
<path d="M49.0032 109.789H48.3534V109.381C48.2957 109.419 48.2127 109.474 48.1199 109.544C48.0316 109.608 47.9374 109.664 47.8386 109.71C47.7186 109.766 47.5933 109.811 47.4644 109.842C47.3018 109.881 47.1351 109.9 46.9679 109.898C46.6388 109.906 46.32 109.784 46.0803 109.558C45.9609 109.446 45.8667 109.31 45.8039 109.159C45.7411 109.008 45.7111 108.845 45.716 108.682C45.705 108.433 45.7709 108.188 45.9045 107.978C46.0426 107.791 46.2294 107.645 46.4446 107.556C46.7141 107.445 46.9985 107.375 47.2886 107.347C47.6191 107.31 47.975 107.282 48.3534 107.264V107.167C48.3574 107.041 48.3308 106.916 48.276 106.802C48.2242 106.707 48.1467 106.629 48.0524 106.576C47.9515 106.518 47.8409 106.48 47.726 106.463C47.5913 106.445 47.4555 106.435 47.3195 106.435C47.1269 106.438 46.935 106.461 46.7471 106.503C46.5252 106.55 46.3075 106.615 46.0958 106.697H46.0606V106.041C46.1872 106.006 46.3715 105.968 46.612 105.927C46.8471 105.886 47.0852 105.866 47.3238 105.866C47.5632 105.863 47.8023 105.885 48.0369 105.933C48.2257 105.972 48.4044 106.049 48.5616 106.161C48.7065 106.266 48.8214 106.407 48.8949 106.57C48.9778 106.767 49.0172 106.979 49.0103 107.192L49.0032 109.789ZM48.3534 108.845V107.776C48.1551 107.788 47.9202 107.805 47.6501 107.828C47.4342 107.843 47.2201 107.877 47.0101 107.929C46.8407 107.972 46.6845 108.056 46.5558 108.174C46.4391 108.307 46.3771 108.48 46.382 108.657C46.387 108.834 46.4586 109.002 46.5825 109.129C46.7618 109.254 46.9791 109.313 47.1972 109.296C47.4135 109.299 47.6278 109.254 47.8245 109.164C48.0117 109.077 48.189 108.97 48.3534 108.845Z" fill="#58595B"/>
<path d="M50.9609 105.311H50.2295V104.635H50.9609V105.311ZM50.9159 109.789H50.2576V105.96H50.9103L50.9159 109.789Z" fill="#58595B"/>
<path d="M55.4481 109.789H54.7969V107.604C54.7971 107.439 54.7868 107.273 54.7659 107.109C54.7531 106.981 54.7139 106.858 54.6506 106.746C54.5914 106.651 54.5045 106.576 54.4016 106.531C54.2669 106.48 54.1235 106.456 53.9797 106.461C53.7849 106.464 53.5931 106.508 53.417 106.591C53.2175 106.681 53.0288 106.793 52.8544 106.925V109.789H52.2031V105.96H52.8544V106.382C53.0459 106.223 53.2584 106.091 53.4859 105.989C53.6974 105.898 53.9251 105.85 54.1555 105.849C54.5746 105.849 54.8939 105.973 55.1134 106.223C55.3328 106.473 55.4425 106.832 55.4425 107.302L55.4481 109.789Z" fill="#58595B"/>
<path d="M59.9493 107.937H57.0939C57.0883 108.148 57.1246 108.357 57.2008 108.554C57.264 108.719 57.3652 108.867 57.4962 108.985C57.6179 109.097 57.7617 109.181 57.9182 109.233C58.095 109.289 58.2797 109.317 58.4653 109.315C58.7382 109.313 59.0082 109.26 59.2615 109.158C59.4671 109.088 59.66 108.984 59.8326 108.852H59.8663V109.555C59.6475 109.647 59.4229 109.724 59.194 109.786C58.9587 109.849 58.716 109.88 58.4724 109.879C57.8291 109.879 57.3269 109.706 56.9659 109.361C56.6049 109.016 56.4248 108.526 56.4258 107.892C56.4258 107.265 56.5983 106.767 56.9434 106.399C57.1185 106.215 57.331 106.07 57.5666 105.975C57.8021 105.879 58.0553 105.835 58.3092 105.846C58.8311 105.846 59.2347 105.998 59.5175 106.3C59.8002 106.603 59.9395 107.032 59.9395 107.587L59.9493 107.937ZM59.3135 107.448C59.3288 107.164 59.2364 106.886 59.0547 106.667C58.8859 106.48 58.6276 106.386 58.2797 106.386C58.1273 106.378 57.9748 106.401 57.8315 106.454C57.6882 106.506 57.5569 106.587 57.4456 106.691C57.2389 106.893 57.1137 107.163 57.0939 107.451L59.3135 107.448Z" fill="#58595B"/>
<path d="M63.356 106.663H63.3208C63.2284 106.639 63.1344 106.622 63.0395 106.613C62.9316 106.601 62.8231 106.596 62.7146 106.597C62.513 106.597 62.314 106.642 62.1322 106.729C61.9391 106.822 61.7574 106.937 61.5907 107.071V109.79H60.9395V105.96H61.5907V106.522C61.7992 106.348 62.0294 106.201 62.2757 106.085C62.4686 106.001 62.6771 105.958 62.8876 105.96C62.9697 105.957 63.052 105.96 63.1337 105.968L63.363 106.001L63.356 106.663Z" fill="#58595B"/>
<path d="M66.7388 108.683C66.7399 108.852 66.7001 109.019 66.6226 109.169C66.5452 109.319 66.4326 109.448 66.2943 109.545C66.013 109.769 65.6065 109.881 65.1001 109.881C64.8336 109.884 64.5681 109.85 64.311 109.78C64.1038 109.726 63.9022 109.652 63.709 109.559V108.834H63.7441C63.9535 108.988 64.1849 109.11 64.4306 109.195C64.6625 109.284 64.9081 109.331 65.1564 109.336C65.3888 109.347 65.6204 109.299 65.8287 109.195C65.9046 109.154 65.9676 109.093 66.0106 109.019C66.0536 108.944 66.0749 108.859 66.0721 108.773C66.0763 108.709 66.0666 108.646 66.0438 108.586C66.021 108.527 65.9855 108.473 65.9398 108.428C65.7884 108.325 65.6152 108.257 65.4335 108.23L65.0706 108.158C64.9215 108.13 64.7892 108.101 64.6641 108.068C64.388 108.015 64.1351 107.878 63.9397 107.676C63.7952 107.496 63.7199 107.27 63.7273 107.039C63.726 106.884 63.7597 106.731 63.8257 106.591C63.8966 106.446 63.9989 106.318 64.1253 106.217C64.2723 106.1 64.4404 106.013 64.6205 105.96C64.8381 105.895 65.0643 105.863 65.2914 105.866C65.5283 105.867 65.7642 105.895 65.9947 105.95C66.1987 105.995 66.397 106.064 66.5855 106.154V106.84H66.5447C66.3578 106.71 66.1538 106.606 65.9384 106.532C65.7128 106.451 65.475 106.409 65.2351 106.407C65.0248 106.401 64.8164 106.45 64.6303 106.548C64.5201 106.608 64.4384 106.71 64.4031 106.83C64.3677 106.951 64.3817 107.08 64.4418 107.191C64.4654 107.235 64.4963 107.275 64.5332 107.309C64.6741 107.409 64.8355 107.477 65.0059 107.507C65.1254 107.534 65.2605 107.562 65.4096 107.589C65.5587 107.615 65.6909 107.642 65.7823 107.665C66.0458 107.712 66.2899 107.835 66.4856 108.018C66.6545 108.197 66.7455 108.437 66.7388 108.683Z" fill="#58595B"/>
<path d="M73.4666 107.87C73.4666 108.495 73.3049 108.988 72.9813 109.35C72.8114 109.521 72.6094 109.657 72.3869 109.75C72.1643 109.843 71.9256 109.892 71.6844 109.893C71.4431 109.894 71.2041 109.847 70.9809 109.756C70.7576 109.664 70.5546 109.53 70.3834 109.36L70.3735 109.35C70.05 108.989 69.8887 108.495 69.8897 107.87C69.8906 107.245 70.0514 106.751 70.3721 106.39C70.712 106.045 71.1753 105.848 71.6601 105.844C72.1449 105.84 72.6116 106.028 72.9574 106.368L72.9799 106.39C73.3044 106.761 73.4666 107.254 73.4666 107.87ZM72.7943 107.87C72.7943 107.373 72.6958 107.004 72.4989 106.762C72.2995 106.544 72.022 106.414 71.7271 106.401C71.4323 106.388 71.1443 106.492 70.9263 106.691C70.9024 106.714 70.8785 106.736 70.8574 106.76C70.6619 107.002 70.5634 107.372 70.5648 107.869C70.5662 108.365 70.6633 108.713 70.8588 108.962C70.9534 109.07 71.0686 109.159 71.1977 109.223C71.3269 109.287 71.4675 109.325 71.6113 109.335C71.7552 109.344 71.8995 109.325 72.0359 109.278C72.1723 109.232 72.2981 109.158 72.406 109.063C72.4405 109.033 72.4729 109 72.5031 108.966C72.7 108.724 72.7999 108.351 72.7999 107.873L72.7943 107.87Z" fill="#58595B"/>
<path d="M77.7224 109.789H77.0698V107.604C77.0707 107.439 77.0603 107.273 77.0388 107.109C77.026 106.981 76.9867 106.858 76.9235 106.746C76.8643 106.651 76.7774 106.576 76.6745 106.531C76.5398 106.48 76.3964 106.456 76.2525 106.461C76.0578 106.464 75.8659 106.508 75.6899 106.591C75.4904 106.681 75.3017 106.793 75.1273 106.925V109.789H74.4746V105.96H75.1273V106.382C75.3178 106.221 75.5305 106.089 75.7588 105.989C75.9698 105.897 76.1978 105.849 76.4284 105.849C76.6055 105.837 76.7829 105.865 76.9481 105.93C77.1134 105.994 77.2625 106.094 77.3848 106.223C77.6057 106.473 77.7154 106.832 77.7154 107.302L77.7224 109.789Z" fill="#58595B"/>
<path d="M84.6192 109.789H83.9679V109.386C83.7906 109.537 83.5931 109.662 83.3814 109.758C83.1723 109.846 82.9473 109.891 82.7203 109.89C82.5086 109.896 82.2987 109.851 82.108 109.759C81.9174 109.667 81.7516 109.53 81.6245 109.361C81.3516 109.009 81.2161 108.52 81.218 107.894C81.2139 107.599 81.2615 107.305 81.3587 107.026C81.4442 106.789 81.5746 106.57 81.7427 106.382C81.8941 106.214 82.0791 106.079 82.2858 105.987C82.4924 105.894 82.7162 105.846 82.9425 105.846C83.1251 105.843 83.3072 105.865 83.484 105.911C83.656 105.959 83.8224 106.025 83.9806 106.108V104.445H84.6318L84.6192 109.789ZM83.9679 108.845V106.643C83.8163 106.573 83.658 106.519 83.4953 106.482C83.3459 106.451 83.1936 106.435 83.041 106.437C82.879 106.429 82.7173 106.459 82.569 106.524C82.4207 106.59 82.29 106.69 82.1872 106.815C81.9799 107.068 81.8763 107.426 81.8763 107.887C81.8763 108.341 81.9551 108.689 82.1126 108.925C82.197 109.045 82.3111 109.141 82.4438 109.203C82.5765 109.266 82.7232 109.292 82.8694 109.281C83.0634 109.28 83.2551 109.238 83.432 109.158C83.623 109.077 83.8031 108.971 83.9679 108.845Z" fill="#58595B"/>
<path d="M89.1472 107.937H86.2918C86.2874 108.148 86.3242 108.357 86.4001 108.554C86.4622 108.718 86.5614 108.866 86.6899 108.985C86.8116 109.097 86.9554 109.181 87.1119 109.233C87.288 109.29 87.4725 109.318 87.6576 109.315C87.9305 109.313 88.2005 109.26 88.4538 109.158C88.6594 109.088 88.8522 108.984 89.0248 108.852H89.06V109.555C88.8421 109.647 88.6185 109.724 88.3905 109.786C88.1571 109.849 87.9163 109.88 87.6745 109.879C87.0322 109.879 86.5305 109.706 86.1695 109.361C85.8084 109.016 85.6279 108.526 85.6279 107.892C85.6279 107.265 85.8009 106.767 86.147 106.399C86.3219 106.215 86.5342 106.07 86.7695 105.975C87.0048 105.88 87.2577 105.836 87.5114 105.846C88.0346 105.846 88.4378 105.997 88.721 106.3C89.0023 106.601 89.143 107.032 89.143 107.587L89.1472 107.937ZM88.5171 107.448C88.5308 107.164 88.4363 106.885 88.2526 106.667C88.082 106.48 87.8236 106.386 87.4776 106.386C87.325 106.378 87.1724 106.401 87.0288 106.454C86.8853 106.506 86.7538 106.587 86.6421 106.691C86.4367 106.893 86.3118 107.163 86.2904 107.451L88.5171 107.448Z" fill="#58595B"/>
<path d="M95.7902 109.789H95.139V107.604C95.139 107.44 95.1305 107.281 95.1165 107.127C95.108 107 95.0755 106.875 95.0208 106.76C94.9687 106.664 94.8888 106.586 94.7916 106.537C94.6554 106.48 94.5085 106.454 94.3611 106.461C94.1703 106.465 93.983 106.513 93.814 106.601C93.6218 106.698 93.4395 106.813 93.2696 106.944C93.2696 106.998 93.2823 107.058 93.2865 107.129C93.2907 107.199 93.2865 107.269 93.2865 107.335V109.787H92.6367V107.604C92.6404 107.443 92.6329 107.282 92.6142 107.122C92.6055 106.995 92.5735 106.871 92.5199 106.756C92.4677 106.661 92.3877 106.584 92.2906 106.535C92.1544 106.479 92.0074 106.454 91.8602 106.461C91.6739 106.462 91.4904 106.507 91.3243 106.591C91.1349 106.684 90.9554 106.796 90.7884 106.925V109.789H90.1357V105.96H90.7884V106.382C90.9738 106.225 91.1785 106.094 91.3975 105.989C91.6001 105.895 91.8211 105.847 92.0445 105.849C92.2792 105.841 92.5115 105.898 92.7154 106.015C92.8954 106.121 93.0387 106.28 93.1262 106.47C93.3441 106.28 93.5869 106.12 93.8477 105.995C94.0693 105.898 94.3092 105.85 94.551 105.854C94.9768 105.854 95.2909 105.982 95.4934 106.238C95.696 106.493 95.7959 106.85 95.7959 107.307L95.7902 109.789Z" fill="#58595B"/>
<path d="M100.051 109.789H99.4044V109.381C99.3467 109.419 99.2637 109.474 99.1709 109.544C99.0826 109.608 98.9884 109.664 98.8896 109.71C98.7716 109.766 98.6481 109.811 98.5211 109.842C98.3585 109.881 98.1917 109.9 98.0245 109.898C97.6951 109.905 97.3762 109.782 97.137 109.555C97.0176 109.443 96.9233 109.307 96.8605 109.156C96.7977 109.005 96.7678 108.842 96.7727 108.679C96.7617 108.431 96.8275 108.185 96.9612 107.975C97.0993 107.788 97.2861 107.642 97.5013 107.554C97.7707 107.442 98.0551 107.372 98.3452 107.344C98.6758 107.307 99.0302 107.281 99.41 107.261V107.167C99.414 107.041 99.3875 106.916 99.3327 106.802C99.2808 106.707 99.2033 106.629 99.109 106.576C99.0056 106.52 98.8925 106.483 98.7757 106.469C98.6409 106.451 98.5051 106.441 98.3691 106.441C98.1765 106.444 97.9846 106.466 97.7967 106.508C97.5748 106.557 97.3567 106.622 97.144 106.703H97.1103V106.041C97.2368 106.006 97.4211 105.968 97.6616 105.927C97.8967 105.886 98.1348 105.866 98.3734 105.866C98.6123 105.863 98.8509 105.885 99.0851 105.933C99.2744 105.972 99.4536 106.049 99.6112 106.161C99.7561 106.266 99.871 106.407 99.9445 106.57C100.026 106.767 100.065 106.979 100.058 107.192L100.051 109.789ZM99.403 108.845V107.776C99.2047 107.788 98.9698 107.805 98.6997 107.828C98.4838 107.842 98.2696 107.875 98.0597 107.928C97.8901 107.97 97.7338 108.054 97.6054 108.172C97.4887 108.306 97.4267 108.478 97.4317 108.655C97.4366 108.832 97.5082 109.001 97.6321 109.127C97.8114 109.253 98.0287 109.312 98.2468 109.295C98.463 109.296 98.6769 109.251 98.8741 109.163C99.0633 109.076 99.2426 108.97 99.4086 108.845H99.403Z" fill="#58595B"/>
<path d="M104.553 109.789H103.9V107.604C103.901 107.439 103.89 107.273 103.869 107.109C103.856 106.982 103.818 106.858 103.755 106.746C103.696 106.65 103.608 106.575 103.505 106.531C103.37 106.48 103.227 106.456 103.083 106.461C102.888 106.464 102.696 106.508 102.52 106.591C102.32 106.681 102.132 106.793 101.957 106.925V109.789H101.305V105.96H101.957V106.382C102.148 106.221 102.361 106.089 102.589 105.989C102.8 105.897 103.028 105.849 103.258 105.849C103.678 105.849 103.997 105.973 104.216 106.223C104.436 106.473 104.545 106.832 104.545 107.302L104.553 109.789Z" fill="#58595B"/>
<path d="M108.955 109.789H108.302V109.386C108.126 109.538 107.928 109.663 107.716 109.758C107.506 109.846 107.281 109.891 107.054 109.89C106.843 109.897 106.634 109.852 106.443 109.761C106.253 109.67 106.087 109.534 105.96 109.365C105.689 109.014 105.553 108.525 105.552 107.898C105.547 107.603 105.594 107.309 105.693 107.03C105.776 106.792 105.904 106.572 106.07 106.382C106.222 106.214 106.407 106.079 106.614 105.987C106.821 105.894 107.045 105.846 107.271 105.846C107.453 105.843 107.635 105.865 107.811 105.911C107.983 105.959 108.15 106.025 108.308 106.108V104.445H108.96L108.955 109.789ZM108.302 108.845V106.643C108.151 106.574 107.993 106.52 107.831 106.482C107.681 106.451 107.528 106.435 107.375 106.437C107.213 106.428 107.051 106.458 106.903 106.524C106.755 106.59 106.624 106.689 106.521 106.815C106.317 107.067 106.215 107.424 106.216 107.887C106.218 108.35 106.293 108.689 106.451 108.925C106.535 109.045 106.65 109.141 106.782 109.203C106.915 109.266 107.062 109.292 107.208 109.281C107.402 109.28 107.593 109.238 107.77 109.158C107.96 109.077 108.138 108.971 108.301 108.845H108.302Z" fill="#58595B"/>
</g>
</g>
</g>
<defs>
<clipPath id="clip0_929_4223">
<rect width="106.443" height="110" fill="white" transform="translate(2.57422)"/>
</clipPath>
<clipPath id="clip1_929_4223">
<rect width="80.0195" height="80.0195" fill="white" transform="translate(15.6934)"/>
</clipPath>
<clipPath id="clip2_929_4223">
<rect width="75.3308" height="75.3308" fill="white" transform="translate(18.0381 2.3443)"/>
</clipPath>
<clipPath id="clip3_929_4223">
<rect width="106.428" height="20.5981" fill="white" transform="translate(2.57422 89.303)"/>
</clipPath>
</defs>
</svg>
