<svg width="111" height="110" viewBox="0 0 111 110" fill="none" xmlns="http://www.w3.org/2000/svg">
<g clip-path="url(#clip0_929_4155)">
<path d="M33.125 83.7461V83.7676C33.1465 84.541 32.9102 85.1641 32.416 85.6152C31.9219 86.0664 31.2559 86.2813 30.3965 86.2813C29.5156 86.2813 28.8066 86.002 28.2695 85.4434C27.7324 84.8848 27.4531 84.1543 27.4531 83.252V81.791C27.4531 80.8887 27.7109 80.1582 28.248 79.5996C28.7852 79.041 29.4727 78.7402 30.332 78.7402C31.2344 78.7402 31.9219 78.9551 32.4375 79.3848C32.9531 79.8145 33.1895 80.4375 33.168 81.2324V81.2539H31.7285C31.7285 80.7813 31.6211 80.4375 31.3848 80.2012C31.1484 79.9648 30.8047 79.8574 30.332 79.8574C29.9023 79.8574 29.5586 80.0293 29.3008 80.3945C29.043 80.7598 28.9355 81.2109 28.9355 81.7695V83.2305C28.9355 83.7891 29.0645 84.2617 29.3223 84.6055C29.5801 84.9492 29.9453 85.1426 30.418 85.1426C30.8477 85.1426 31.1914 85.0352 31.4063 84.7988C31.6211 84.5625 31.7285 84.2187 31.7285 83.7461H33.125ZM35.6172 86.1738H34.1563V78.3105H35.6172V86.1738ZM40.1719 85.3574C40 85.6582 39.7852 85.873 39.5273 86.0234C39.2695 86.1738 38.9687 86.2598 38.625 86.2598C38.0449 86.2598 37.5938 86.0664 37.2715 85.6797C36.9492 85.293 36.7773 84.6914 36.7773 83.875V80.7168H38.2383V83.875C38.2383 84.3477 38.3027 84.6699 38.4316 84.8633C38.5605 85.0566 38.7539 85.1211 39.0332 85.1211C39.2695 85.1211 39.4629 85.0781 39.6348 85.0137C39.8066 84.9492 39.9355 84.8203 40.043 84.6699V80.7168H41.5039V86.1738H40.2793L40.1719 85.3574ZM45.6074 84.6484C45.6074 84.4766 45.5215 84.3477 45.3711 84.2402C45.2207 84.1328 44.9199 84.0254 44.5117 83.9395C43.8672 83.8106 43.3945 83.6172 43.0508 83.3594C42.707 83.1016 42.5566 82.7578 42.5566 82.3066C42.5566 81.834 42.75 81.4473 43.1582 81.1035C43.5664 80.7598 44.082 80.6094 44.748 80.6094C45.4355 80.6094 45.9941 80.7813 46.4023 81.1035C46.8105 81.4258 47.0254 81.834 47.0039 82.3281V82.3496H45.5859C45.5859 82.1348 45.5215 81.9629 45.3711 81.8125C45.2207 81.6621 45.0273 81.5977 44.7695 81.5977C44.5332 81.5977 44.3398 81.6621 44.2109 81.7695C44.082 81.877 43.9961 82.0273 43.9961 82.1992C43.9961 82.3711 44.0605 82.5 44.2109 82.6074C44.3613 82.7148 44.6406 82.8008 45.0703 82.8867C45.7363 83.0156 46.2305 83.209 46.5527 83.4883C46.875 83.7676 47.0469 84.1113 47.0469 84.5625C47.0469 85.0566 46.832 85.4434 46.4238 85.7656C46.0156 86.0879 45.457 86.2383 44.7695 86.2383C44.0391 86.2383 43.4805 86.0449 43.0508 85.6797C42.6211 85.3145 42.4277 84.8848 42.4492 84.4336V84.4121H43.8027C43.8027 84.7129 43.9102 84.9063 44.082 85.0566C44.2539 85.207 44.4902 85.25 44.791 85.25C45.0703 85.25 45.2637 85.1855 45.4141 85.0781C45.5645 84.9707 45.6074 84.8418 45.6074 84.6484ZM49.7324 79.3848V80.7168H50.6562V81.748H49.7324V84.5195C49.7324 84.7344 49.7754 84.8848 49.8613 84.9707C49.9473 85.0566 50.0762 85.0996 50.2051 85.0996C50.291 85.0996 50.3555 85.0996 50.3984 85.0781C50.4414 85.0566 50.5273 85.0566 50.5918 85.0352L50.7207 86.0879C50.5703 86.1309 50.4199 86.1738 50.291 86.1953C50.1621 86.2168 49.9902 86.2383 49.8398 86.2383C49.3242 86.2383 48.9375 86.1094 48.6797 85.8301C48.4219 85.5508 48.2715 85.0996 48.2715 84.498V81.7266H47.4766V80.6953H48.2715V79.3633H49.7324V79.3848ZM53.9219 86.2813C53.1055 86.2813 52.4824 86.0234 52.0098 85.5293C51.5371 85.0352 51.3223 84.3906 51.3223 83.5957V83.4023C51.3223 82.5859 51.5371 81.9199 51.9883 81.4043C52.4395 80.8887 53.041 80.6309 53.8145 80.6309C54.5449 80.6309 55.1035 80.8457 55.4902 81.2969C55.877 81.748 56.0703 82.3496 56.0703 83.1016V83.8535H52.8262L52.8047 83.875C52.8262 84.2402 52.9336 84.541 53.1484 84.7773C53.3633 85.0137 53.6426 85.1211 54.0508 85.1211C54.373 85.1211 54.6523 85.0781 54.8887 85.0137C55.125 84.9492 55.3613 84.8418 55.5977 84.7129L56.0059 85.6152C55.791 85.7871 55.4902 85.9375 55.125 86.0664C54.7598 86.1953 54.373 86.2813 53.9219 86.2813ZM53.8359 81.748C53.5352 81.748 53.3203 81.8555 53.1484 82.0488C52.9766 82.2422 52.8906 82.5215 52.8691 82.8652V82.8867H54.6523V82.7793C54.6523 82.457 54.5879 82.1992 54.459 82.0273C54.3301 81.8555 54.1152 81.748 53.8359 81.748ZM59.8301 81.9844L59.293 81.9629C59.0781 81.9629 58.8848 82.0059 58.7559 82.0918C58.627 82.1777 58.498 82.3066 58.4336 82.4785V86.1523H56.9727V80.6953H58.3477L58.4121 81.5117C58.541 81.2324 58.7129 80.9961 58.9062 80.8457C59.0996 80.6953 59.3359 80.6094 59.6152 80.6094C59.6797 80.6094 59.7656 80.6094 59.8086 80.6309C59.8516 80.6523 59.9375 80.6523 60.002 80.6738L59.8301 81.9844ZM65.502 83.5957C65.502 84.4121 65.3086 85.0566 64.9434 85.5293C64.5781 86.002 64.041 86.2598 63.375 86.2598C63.0957 86.2598 62.8379 86.2168 62.6231 86.1094C62.4082 86.002 62.2148 85.8516 62.0645 85.6367V88.2578H60.6035V80.7168H61.9355L62.0215 81.3613C62.1934 81.125 62.3867 80.9316 62.6016 80.8027C62.8164 80.6738 63.0957 80.6094 63.3965 80.6094C64.0625 80.6094 64.5996 80.8672 64.9648 81.4043C65.3301 81.9414 65.5234 82.6289 65.5234 83.4883V83.5957H65.502ZM64.041 83.4883C64.041 82.9727 63.9551 82.5645 63.7832 82.2422C63.6113 81.9199 63.3535 81.7695 62.9883 81.7695C62.7734 81.7695 62.5801 81.8125 62.4297 81.8984C62.2793 81.9844 62.1504 82.1133 62.0645 82.2852V84.6699C62.1504 84.8203 62.2793 84.9492 62.4297 85.0137C62.5801 85.0781 62.7734 85.1426 63.0098 85.1426C63.375 85.1426 63.6328 85.0137 63.7832 84.7344C63.9336 84.4551 64.041 84.0684 64.041 83.5957V83.4883ZM68.7676 86.2813C67.9512 86.2813 67.3281 86.0234 66.8555 85.5293C66.3828 85.0352 66.168 84.3906 66.168 83.5957V83.4023C66.168 82.5859 66.3828 81.9199 66.834 81.4043C67.2852 80.8887 67.8867 80.6309 68.6602 80.6309C69.3906 80.6309 69.9492 80.8457 70.3359 81.2969C70.7227 81.748 70.916 82.3496 70.916 83.1016V83.8535H67.6719L67.6504 83.875C67.6719 84.2402 67.7793 84.541 67.9941 84.7773C68.209 85.0137 68.4883 85.1211 68.8965 85.1211C69.2188 85.1211 69.4981 85.0781 69.7344 85.0137C69.9707 84.9492 70.207 84.8418 70.4434 84.7129L70.8516 85.6152C70.6367 85.7871 70.3359 85.9375 69.9707 86.0664C69.6055 86.1953 69.2188 86.2813 68.7676 86.2813ZM68.6816 81.748C68.3809 81.748 68.166 81.8555 67.9941 82.0488C67.8223 82.2422 67.7363 82.5215 67.7148 82.8652V82.8867H69.4981V82.7793C69.4981 82.457 69.4336 82.1992 69.3047 82.0273C69.1758 81.8555 68.9609 81.748 68.6816 81.748ZM71.582 83.4883C71.582 82.6289 71.7754 81.9414 72.1406 81.4043C72.5059 80.8672 73.043 80.6094 73.709 80.6094C73.9883 80.6094 74.2246 80.6738 74.4395 80.7813C74.6543 80.8887 74.8477 81.0605 75.0195 81.2754V78.2891H76.502V86.1523H75.2559L75.127 85.4863C74.9551 85.7441 74.7617 85.9375 74.5254 86.0664C74.2891 86.1953 74.0313 86.2598 73.709 86.2598C73.043 86.2598 72.5273 86.0234 72.1406 85.5293C71.7539 85.0352 71.582 84.3906 71.582 83.5957V83.4883ZM73.043 83.5957C73.043 84.0684 73.1289 84.4551 73.2793 84.7129C73.4297 84.9707 73.709 85.1211 74.0742 85.1211C74.2891 85.1211 74.4609 85.0781 74.6328 84.9922C74.8047 84.9063 74.9121 84.7773 75.0195 84.627V82.3066C74.9121 82.1348 74.7832 82.0059 74.6328 81.8984C74.4824 81.791 74.2891 81.748 74.0957 81.748C73.7305 81.748 73.4727 81.8984 73.3008 82.2207C73.1289 82.543 73.043 82.9512 73.043 83.4668V83.5957ZM79.166 79.4063H77.7051V78.3105H79.166V79.4063ZM79.166 86.1738H77.7051V80.7168H79.166V86.1738ZM83.5918 86.1738C83.5488 86.0449 83.4844 85.916 83.4629 85.7871C83.4414 85.6582 83.3984 85.5078 83.377 85.3574C83.2266 85.6152 83.0332 85.8516 82.7754 86.0234C82.5176 86.1953 82.2383 86.2813 81.8945 86.2813C81.3145 86.2813 80.8848 86.1309 80.584 85.8301C80.2832 85.5293 80.1113 85.1426 80.1113 84.627C80.1113 84.0898 80.3262 83.6816 80.7344 83.3809C81.1426 83.0801 81.7441 82.9297 82.5391 82.9297H83.3555V82.5C83.3555 82.2422 83.291 82.0273 83.1406 81.8984C82.9902 81.7695 82.7969 81.6836 82.5176 81.6836C82.2813 81.6836 82.0879 81.748 81.959 81.8555C81.8301 81.9629 81.7656 82.1348 81.7656 82.3281H80.3477V82.3066C80.3262 81.8555 80.5195 81.4473 80.9492 81.125C81.3789 80.8027 81.9375 80.6309 82.6035 80.6309C83.2481 80.6309 83.7852 80.8027 84.1934 81.125C84.6016 81.4473 84.7949 81.9199 84.7949 82.543V84.7988C84.7949 85.0566 84.8164 85.293 84.8594 85.5293C84.9023 85.7656 84.9668 85.9805 85.0527 86.1953H83.5918V86.1738ZM82.2383 85.1855C82.4961 85.1855 82.7109 85.1211 82.9258 84.9922C83.1406 84.8633 83.2695 84.7129 83.334 84.541V83.7891H82.5176C82.1953 83.7891 81.959 83.875 81.8086 84.0254C81.6582 84.1758 81.5723 84.3691 81.5723 84.584C81.5723 84.7773 81.6367 84.9062 81.7441 85.0352C81.8516 85.1641 82.0234 85.1855 82.2383 85.1855Z" fill="#1B1C1D"/>
<path d="M75.8574 41.4004C74.2461 42.3242 72.7422 43.4414 71.3672 44.6875C70.25 43.6777 69.2402 42.5605 68.2949 41.3789C69.9062 39.8965 71.6895 38.6074 73.5801 37.4902L75.8574 41.4004ZM65.2012 44.6875C63.0742 47.2871 61.3984 50.209 60.1953 53.3457C59.6582 54.7637 59.2285 56.2246 58.8848 57.707C58.4121 59.8555 58.1758 62.0469 58.1758 64.2383H62.6875C62.6875 62.3691 62.8809 60.5215 63.2891 58.7168C63.6113 57.2559 64.0625 55.7949 64.6211 54.3984C65.5449 52.0996 66.791 49.9512 68.3164 47.9961C67.1992 46.9648 66.1465 45.8691 65.2012 44.6875ZM47.0898 58.7168C47.498 60.543 47.6914 62.3906 47.6914 64.2383H52.2031C52.2031 62.0469 51.9668 59.8555 51.4941 57.707C50.0117 57.9219 48.5293 58.2441 47.0898 58.7168ZM48.0352 48.834C47.1973 47.373 46.252 45.998 45.1777 44.6875C44.2109 43.5059 43.1797 42.4102 42.041 41.3789C40.4297 39.8965 38.6465 38.6074 36.7559 37.4902L34.5 41.4004C36.1113 42.3242 37.6152 43.4414 38.9902 44.6875C40.1074 45.6973 41.1172 46.8145 42.0625 47.9961C43.5879 49.9512 44.834 52.0996 45.7578 54.3984C47.1973 53.9473 48.6797 53.582 50.1836 53.3457C49.6035 51.7773 48.873 50.2734 48.0352 48.834ZM47.0898 30.6582C45.3281 30.0996 43.6094 29.3477 41.998 28.4238L39.7422 32.334C41.6328 33.4297 43.6523 34.3105 45.7578 34.9766C46.3164 33.5801 46.7676 32.1406 47.0898 30.6582ZM64.6211 34.9766C66.7051 34.3105 68.7246 33.4297 70.6367 32.334L68.3809 28.4238C66.7695 29.3477 65.0723 30.0996 63.2891 30.6582C61.8496 31.1094 60.3887 31.4531 58.8848 31.6465C57.6602 31.8184 56.4355 31.9043 55.1895 31.9043C53.9648 31.9043 52.7188 31.8184 51.4941 31.6465C51.1719 33.1289 50.7207 34.5898 50.1836 36.0078C51.8379 36.2656 53.5137 36.416 55.168 36.416H55.1895C56.8652 36.416 58.541 36.2871 60.1953 36.0078C61.6992 35.793 63.1816 35.4277 64.6211 34.9766Z" fill="#1B1C1D"/>
<path d="M51.043 44.6875L53.1055 41.0996H57.252L59.3145 44.6875L57.252 48.2754H53.127L51.043 44.6875ZM63.2891 30.6582C62.8809 28.832 62.6875 26.9844 62.6875 25.1367H58.1758C58.1758 27.3281 58.4121 29.5195 58.8848 31.668C60.3672 31.4531 61.8496 31.1309 63.2891 30.6582ZM71.3887 44.6875C70.2715 43.6777 69.2617 42.5605 68.3164 41.3789C66.791 39.4238 65.5449 37.2754 64.6211 34.9766C63.1816 35.4277 61.6992 35.793 60.1953 36.0293C61.3984 39.166 63.0742 42.0879 65.2012 44.6875C66.168 45.8691 67.1992 46.9648 68.3379 47.9961C69.9492 49.4785 71.7324 50.7676 73.623 51.8848L75.8789 47.9746C74.2676 47.0508 72.7637 45.9336 71.3887 44.6875ZM45.1777 44.6875C47.3047 42.0879 48.9805 39.166 50.1836 36.0293C50.7207 34.6113 51.1504 33.1504 51.4941 31.668C51.9668 29.5195 52.2031 27.3281 52.2031 25.1367H47.6914C47.6914 27.0059 47.498 28.8535 47.0898 30.6582C46.7676 32.1191 46.3164 33.5801 45.7578 34.9766C44.834 37.2754 43.5879 39.4238 42.0625 41.3789C43.1797 42.4102 44.2324 43.5059 45.1777 44.6875ZM38.9902 44.6875C37.6152 45.9336 36.1113 47.0508 34.5 47.9746L36.7559 51.8848C38.6465 50.7891 40.4297 49.4785 42.041 47.9961C41.1387 46.8145 40.1074 45.6973 38.9902 44.6875ZM55.1895 52.9375C53.5137 52.9375 51.8379 53.0664 50.2051 53.3457C48.7012 53.582 47.2187 53.9473 45.7793 54.3984C43.6953 55.0645 41.6758 55.9453 39.7637 57.041L42.0195 60.9512C43.6309 60.0273 45.3281 59.2754 47.1113 58.7168C48.5508 58.2656 50.0117 57.9219 51.5156 57.7285C52.7402 57.5566 53.9648 57.4707 55.2109 57.4707C56.457 57.4707 57.6816 57.5566 58.9062 57.7285C59.2285 56.2461 59.6797 54.7852 60.2168 53.3672C58.541 53.0879 56.8652 52.9375 55.1895 52.9375ZM63.2891 58.7168C65.0508 59.2754 66.7695 60.0273 68.3809 60.9512L70.6367 57.041C68.7461 55.9453 66.7266 55.0645 64.6211 54.3984C64.0625 55.7949 63.6113 57.2344 63.2891 58.7168Z" fill="#33DE72"/>
</g>
<defs>
<clipPath id="clip0_929_4155">
<rect width="110" height="110" fill="white" transform="translate(0.189453)"/>
</clipPath>
</defs>
</svg>
