<svg width="110" height="94" viewBox="0 0 110 94" fill="none" xmlns="http://www.w3.org/2000/svg">
<g clip-path="url(#clip0_929_4132)">
<g clip-path="url(#clip1_929_4132)">
<g clip-path="url(#clip2_929_4132)">
<path d="M11.1753 93.7876H3.22086C2.36508 93.7876 1.54435 93.4476 0.939227 92.8425C0.334099 92.2374 -0.00585847 91.4167 -0.00585847 90.5609V82.1593C-0.00617603 81.7354 0.0770516 81.3155 0.239067 80.9238C0.401083 80.532 0.638711 80.176 0.938371 79.8761C1.23803 79.5762 1.59385 79.3383 1.98549 79.176C2.37713 79.0137 2.79692 78.9302 3.22086 78.9302H11.1753V81.0064H2.95741C2.8292 81.0064 2.70625 81.0573 2.61559 81.148C2.52493 81.2386 2.474 81.3616 2.474 81.4898V91.1845C2.474 91.3127 2.52493 91.4356 2.61559 91.5263C2.70625 91.6169 2.8292 91.6679 2.95741 91.6679H11.1753V93.7876Z" fill="white"/>
<path d="M16.2963 93.7876H13.9688V78.9302H16.2963V93.7876Z" fill="white"/>
<path d="M26.5137 93.7876H22.047C21.1913 93.7876 20.3705 93.4476 19.7654 92.8425C19.1603 92.2374 18.8203 91.4166 18.8203 90.5609V82.0626H21.0585V91.3343C21.0585 91.4625 21.1094 91.5855 21.2001 91.6761C21.2907 91.7668 21.4137 91.8177 21.5419 91.8177H26.9294C27.0576 91.8177 27.1806 91.7668 27.2712 91.6761C27.3619 91.5855 27.4128 91.4625 27.4128 91.3343V82.0626H29.7404V90.5609C29.7404 91.4166 29.4004 92.2374 28.7953 92.8425C28.1902 93.4476 27.3695 93.7876 26.5137 93.7876Z" fill="white"/>
<path d="M39.523 93.7876H31.5469V91.8201H39.9243C40.0525 91.8201 40.1754 91.7692 40.2661 91.6785C40.3567 91.5879 40.4077 91.4649 40.4077 91.3367V89.3524C40.4077 89.2241 40.3567 89.1012 40.2661 89.0105C40.1754 88.9199 40.0525 88.869 39.9243 88.869H34.776C34.3518 88.869 33.9317 88.7853 33.5397 88.6229C33.1478 88.4605 32.7917 88.2224 32.4918 87.9223C32.1919 87.6222 31.9541 87.2659 31.792 86.8739C31.6298 86.4818 31.5466 86.0617 31.5469 85.6374V85.2918C31.5469 84.4358 31.8868 83.6148 32.4918 83.0093C33.0969 82.4038 33.9176 82.0633 34.7736 82.0626H42.6458V84.1219H34.2709C34.1427 84.1219 34.0197 84.1729 33.929 84.2635C33.8384 84.3542 33.7875 84.4771 33.7875 84.6053V86.4133C33.7875 86.5415 33.8384 86.6644 33.929 86.7551C34.0197 86.8457 34.1427 86.8967 34.2709 86.8967H39.523C40.3788 86.8967 41.1995 87.2366 41.8047 87.8417C42.4098 88.4469 42.7498 89.2676 42.7498 90.1234V90.5609C42.7498 91.4166 42.4098 92.2374 41.8047 92.8425C41.1995 93.4476 40.3788 93.7876 39.523 93.7876Z" fill="white"/>
<path d="M43.8477 82.0626H45.1528C45.2811 82.0626 45.404 82.0117 45.4947 81.9211C45.5853 81.8304 45.6363 81.7074 45.6363 81.5792V79.2879H47.8744V81.5792C47.8744 81.7074 47.9253 81.8304 48.016 81.9211C48.1067 82.0117 48.2296 82.0626 48.3578 82.0626H52.4402V84.2162H48.3578C48.2296 84.2162 48.1067 84.2671 48.016 84.3578C47.9253 84.4485 47.8744 84.5714 47.8744 84.6996V91.2497C47.8744 91.3779 47.9253 91.5009 48.016 91.5916C48.1067 91.6822 48.2296 91.7331 48.3578 91.7331H52.3507V93.79H48.8654C48.0094 93.79 47.1884 93.4501 46.5829 92.8451C45.9774 92.24 45.6369 91.4193 45.6363 90.5633V84.6996C45.6363 84.5714 45.5853 84.4485 45.4947 84.3578C45.404 84.2671 45.2811 84.2162 45.1528 84.2162H43.8477V82.0626Z" fill="white"/>
<path d="M65.4106 93.7876H57.3595C56.5038 93.7876 55.683 93.4476 55.0779 92.8425C54.4728 92.2374 54.1328 91.4166 54.1328 90.5609V85.2918C54.1328 84.4358 54.4727 83.6148 55.0777 83.0093C55.6828 82.4038 56.5035 82.0633 57.3595 82.0626H62.1936C63.0496 82.0633 63.8703 82.4038 64.4754 83.0093C65.0804 83.6148 65.4203 84.4358 65.4203 85.2918V85.4585C65.4203 86.3145 65.0804 87.1355 64.4754 87.741C63.8703 88.3465 63.0496 88.687 62.1936 88.6877H56.8544C56.7262 88.6877 56.6032 88.7386 56.5126 88.8293C56.4219 88.9199 56.371 89.0429 56.371 89.1711V91.2449C56.371 91.3731 56.4219 91.496 56.5126 91.5867C56.6032 91.6774 56.7262 91.7283 56.8544 91.7283H65.4106V93.7876ZM63.1725 86.1498V84.6996C63.1725 84.5714 63.1215 84.4484 63.0309 84.3578C62.9402 84.2671 62.8173 84.2162 62.6891 84.2162H56.8544C56.7262 84.2162 56.6032 84.2671 56.5126 84.3578C56.4219 84.4484 56.371 84.5714 56.371 84.6996V86.1498C56.371 86.278 56.4219 86.401 56.5126 86.4916C56.6032 86.5823 56.7262 86.6332 56.8544 86.6332H62.6891C62.7525 86.6332 62.8154 86.6207 62.8741 86.5964C62.9327 86.5721 62.986 86.5365 63.0309 86.4916C63.0758 86.4467 63.1114 86.3934 63.1357 86.3348C63.16 86.2761 63.1725 86.2133 63.1725 86.1498Z" fill="white"/>
<path d="M74.9692 84.2162H70.1738C70.0456 84.2162 69.9226 84.2671 69.832 84.3578C69.7413 84.4484 69.6904 84.5714 69.6904 84.6996V93.7876H67.3652V85.2918C67.3649 84.8678 67.4481 84.448 67.6102 84.0562C67.7722 83.6644 68.0098 83.3084 68.3095 83.0086C68.6091 82.7087 68.9649 82.4708 69.3566 82.3085C69.7482 82.1462 70.168 82.0626 70.592 82.0626H74.9716L74.9692 84.2162Z" fill="white"/>
<path d="M87.0547 93.7876H84.8165V84.6996C84.8165 84.5714 84.7656 84.4484 84.6749 84.3578C84.5843 84.2671 84.4613 84.2162 84.3331 84.2162H79.2163C79.0881 84.2162 78.9651 84.2671 78.8745 84.3578C78.7838 84.4484 78.7329 84.5714 78.7329 84.6996V93.7876H76.502V85.2918C76.5016 84.8678 76.5849 84.448 76.7469 84.0562C76.9089 83.6644 77.1465 83.3084 77.4462 83.0086C77.7458 82.7087 78.1017 82.4708 78.4933 82.3085C78.8849 82.1462 79.3047 82.0626 79.7287 82.0626H83.8376C84.6936 82.0633 85.5143 82.4038 86.1194 83.0093C86.7245 83.6148 87.0643 84.4358 87.0643 85.2918L87.0547 93.7876Z" fill="white"/>
<path d="M100.465 93.7876H92.4142C91.5584 93.7876 90.7377 93.4476 90.1326 92.8425C89.5275 92.2374 89.1875 91.4166 89.1875 90.5609V85.2918C89.1875 84.4358 89.5274 83.6148 90.1324 83.0093C90.7375 82.4038 91.5582 82.0633 92.4142 82.0626H97.2362C97.6602 82.0626 98.0801 82.1461 98.4719 82.3084C98.8637 82.4707 99.2197 82.7086 99.5195 83.0084C99.8194 83.3083 100.057 83.6642 100.22 84.056C100.382 84.4478 100.465 84.8677 100.465 85.2918V85.4585C100.465 85.8826 100.382 86.3025 100.22 86.6943C100.057 87.0861 99.8194 87.442 99.5195 87.7419C99.2197 88.0417 98.8637 88.2796 98.4719 88.4419C98.0801 88.6041 97.6602 88.6877 97.2362 88.6877H91.9187C91.7905 88.6877 91.6676 88.7386 91.5769 88.8293C91.4863 88.9199 91.4353 89.0429 91.4353 89.1711V91.2449C91.4353 91.3731 91.4863 91.496 91.5769 91.5867C91.6676 91.6774 91.7905 91.7283 91.9187 91.7283H100.475L100.465 93.7876ZM98.2272 86.1498V84.6996C98.2272 84.5714 98.1762 84.4484 98.0856 84.3578C97.9949 84.2671 97.872 84.2162 97.7437 84.2162H91.9091C91.7809 84.2162 91.6579 84.2671 91.5672 84.3578C91.4766 84.4484 91.4257 84.5714 91.4257 84.6996V86.1498C91.4257 86.278 91.4766 86.401 91.5672 86.4916C91.6579 86.5823 91.7809 86.6332 91.9091 86.6332H97.7437C97.872 86.6332 97.9949 86.5823 98.0856 86.4916C98.1762 86.401 98.2272 86.278 98.2272 86.1498Z" fill="white"/>
<path d="M101.398 82.0626H102.704C102.832 82.0626 102.955 82.0117 103.045 81.9211C103.136 81.8304 103.187 81.7074 103.187 81.5792V79.2879H105.425V81.5792C105.425 81.7074 105.476 81.8304 105.567 81.9211C105.657 82.0117 105.78 82.0626 105.909 82.0626H109.989V84.2162H105.909C105.78 84.2162 105.657 84.2671 105.567 84.3578C105.476 84.4485 105.425 84.5714 105.425 84.6996V91.2497C105.425 91.3779 105.476 91.5009 105.567 91.5916C105.657 91.6822 105.78 91.7331 105.909 91.7331H109.899V93.79H106.414C105.558 93.79 104.737 93.4501 104.132 92.8449C103.527 92.2398 103.187 91.4191 103.187 90.5633V84.6996C103.187 84.5714 103.136 84.4485 103.045 84.3578C102.955 84.2671 102.832 84.2162 102.704 84.2162H101.398V82.0626Z" fill="white"/>
<path d="M28.27 41.0386L19.3851 46.1699C19.041 46.368 18.7553 46.6532 18.5567 46.997C18.3581 47.3407 18.2537 47.7307 18.2539 48.1277V58.3879C18.2537 58.7849 18.3581 59.1749 18.5567 59.5186C18.7553 59.8624 19.041 60.1476 19.3851 60.3457L28.27 65.4746C28.6136 65.673 29.0033 65.7774 29.4 65.7774C29.7967 65.7774 30.1864 65.673 30.5299 65.4746L40.0216 59.9952C40.3656 59.7971 40.7557 59.6929 41.1528 59.6931H54.8693C55.4693 59.6931 56.0448 59.4548 56.469 59.0305C56.8933 58.6062 57.1317 58.0308 57.1317 57.4308V49.0848C57.1317 48.4848 56.8933 47.9094 56.469 47.4851C56.0448 47.0608 55.4693 46.8225 54.8693 46.8225H41.1528C40.7555 46.8218 40.3655 46.7168 40.0216 46.5179L30.5324 41.0386C30.1884 40.8402 29.7983 40.7358 29.4012 40.7358C29.0041 40.7358 28.614 40.8402 28.27 41.0386Z" fill="url(#paint0_linear_929_4132)"/>
<path d="M80.2827 40.7316L74.3803 31.24C74.0693 30.7423 73.5774 30.3846 73.0081 30.2422C72.4387 30.0998 71.8364 30.1836 71.3276 30.4762L64.1007 34.648C63.8372 34.7998 63.607 35.0032 63.4238 35.2459C63.2406 35.4887 63.1082 35.7659 63.0344 36.0609C62.9607 36.356 62.9471 36.6628 62.9945 36.9632C63.0419 37.2636 63.1493 37.5514 63.3104 37.8094L69.0919 47.1077C69.3164 47.4654 69.4354 47.8793 69.4351 48.3017V59.2218C69.4349 59.6188 69.5393 60.0088 69.7379 60.3525C69.9365 60.6962 70.2222 60.9815 70.5663 61.1796L79.4512 66.3109C79.7948 66.5093 80.1845 66.6137 80.5812 66.6137C80.9779 66.6137 81.3676 66.5093 81.7111 66.3109L90.5961 61.1796C90.9401 60.9815 91.2259 60.6962 91.4245 60.3525C91.6231 60.0088 91.7275 59.6188 91.7273 59.2218V48.9543C91.7275 48.5573 91.6231 48.1673 91.4245 47.8236C91.2259 47.4799 90.9401 47.1946 90.5961 46.9965L81.0706 41.4954C80.749 41.3097 80.4783 41.0473 80.2827 40.7316Z" fill="url(#paint1_linear_929_4132)"/>
<path d="M55.4751 25.3134L65.0054 19.8099C65.349 19.6113 65.6343 19.3259 65.8328 18.9823C66.0313 18.6387 66.1361 18.2489 66.1366 17.8521V7.59669C66.136 7.19955 66.0313 6.80951 65.8328 6.46553C65.6343 6.12156 65.349 5.83569 65.0054 5.63648L56.1229 0.502734C55.7789 0.30441 55.3888 0.200012 54.9917 0.200012C54.5946 0.200012 54.2045 0.30441 53.8605 0.502734L44.9756 5.63165C44.6313 5.83127 44.3456 6.1179 44.147 6.46279C43.9485 6.80769 43.8441 7.19873 43.8444 7.59669V18.5095C43.8452 18.9372 43.7245 19.3563 43.4964 19.718L37.4345 29.3499C37.2721 29.6073 37.1633 29.8949 37.1148 30.1954C37.0663 30.4959 37.079 30.8031 37.1521 31.0986C37.2253 31.3941 37.3573 31.6717 37.5404 31.9149C37.7235 32.1581 37.9538 32.3618 38.2176 32.5137L45.4445 36.6855C45.951 36.9786 46.5514 37.0637 47.1194 36.9231C47.6874 36.7824 48.1787 36.4269 48.4899 35.9314L54.6944 26.0724C54.8886 25.7593 55.1567 25.4987 55.4751 25.3134Z" fill="url(#paint2_linear_929_4132)"/>
</g>
</g>
</g>
<defs>
<linearGradient id="paint0_linear_929_4132" x1="18.2539" y1="53.2566" x2="57.1317" y2="53.2566" gradientUnits="userSpaceOnUse">
<stop offset="0.29" stop-color="#0966FA"/>
<stop offset="1" stop-color="#2AD2FF"/>
</linearGradient>
<linearGradient id="paint1_linear_929_4132" x1="86.289" y1="63.79" x2="68.2266" y2="33.0745" gradientUnits="userSpaceOnUse">
<stop offset="0.29" stop-color="#0966FA"/>
<stop offset="1" stop-color="#2AD2FF"/>
</linearGradient>
<linearGradient id="paint2_linear_929_4132" x1="60.6354" y1="3.31373" x2="42.2057" y2="34.0316" gradientUnits="userSpaceOnUse">
<stop offset="0.29" stop-color="#0966FA"/>
<stop offset="1" stop-color="#2AD2FF"/>
</linearGradient>
<clipPath id="clip0_929_4132">
<rect width="110" height="93.59" fill="white" transform="translate(-0.00976562 0.200012)"/>
</clipPath>
<clipPath id="clip1_929_4132">
<rect width="110" height="93.59" fill="white" transform="translate(-0.00976562 0.200012)"/>
</clipPath>
<clipPath id="clip2_929_4132">
<rect width="109.994" height="93.59" fill="white" transform="translate(-0.00585938 0.200012)"/>
</clipPath>
</defs>
</svg>
