<svg width="111" height="64" viewBox="0 0 111 64" fill="none" xmlns="http://www.w3.org/2000/svg">
<g clip-path="url(#clip0_929_3794)">
<g clip-path="url(#clip1_929_3794)">
<g clip-path="url(#clip2_929_3794)">
<path d="M5.33586 54.1286L2.00562 63.6475H0.604492L5.27495 50.9153H5.43739L10.1079 63.6475H8.64582L5.33586 54.1286ZM7.529 59.9923H2.93972L3.22403 58.8958H7.20407L7.529 59.9923Z" fill="#006BCF"/>
<path d="M15.9561 63.81C15.279 63.81 14.6631 63.7056 14.1082 63.4971C13.5529 63.2887 13.0757 62.9828 12.6766 62.5792C12.2771 62.1756 11.969 61.6746 11.7527 61.0759C11.536 60.4772 11.4277 59.7943 11.4277 59.0274C11.4277 58.2472 11.5394 57.5546 11.7628 56.9492C11.9861 56.3438 12.2908 55.8361 12.6766 55.4256C13.0624 55.0153 13.5158 54.7025 14.0371 54.4874C14.5581 54.2723 15.1099 54.1644 15.6921 54.1644C16.2201 54.1644 16.7141 54.2522 17.1745 54.4275C17.6345 54.6025 18.034 54.8691 18.3726 55.2263C18.7108 55.5836 18.9782 56.0389 19.1747 56.5916C19.3708 57.1443 19.4691 57.7983 19.4691 58.5532C19.4691 58.6611 19.4656 58.7724 19.459 58.8869C19.452 59.0018 19.4418 59.1128 19.4285 59.2207H12.8289C12.8558 59.8095 12.9574 60.3213 13.1335 60.756C13.3093 61.1908 13.5396 61.5455 13.8239 61.8196C14.1082 62.0937 14.4363 62.2978 14.8087 62.4317C15.1809 62.5655 15.5769 62.6322 15.9967 62.6322C16.3216 62.6322 16.6262 62.5951 16.9105 62.5205C17.1948 62.4463 17.4619 62.3311 17.7126 62.1753C17.963 62.0199 18.1898 61.8269 18.3929 61.5965L19.2051 62.3885C18.9478 62.7001 18.6534 62.9641 18.3218 63.1804C17.9899 63.3971 17.6279 63.5562 17.2354 63.6577C16.8426 63.7592 16.4162 63.81 15.9561 63.81ZM12.8898 58.0836H17.9868C17.9868 57.6536 17.929 57.2671 17.8141 56.9245C17.6989 56.5818 17.5365 56.2861 17.3267 56.0373C17.1167 55.7886 16.8664 55.6005 16.5754 55.4728C16.2842 55.3453 15.9561 55.2812 15.5906 55.2812C15.2657 55.2812 14.9576 55.3351 14.6667 55.4427C14.3754 55.5502 14.1082 55.7216 13.8645 55.9567C13.6208 56.1921 13.4143 56.4844 13.2452 56.8337C13.0757 57.1833 12.9574 57.6 12.8898 58.0836Z" fill="#006BCF"/>
<path d="M23.0029 54.3674H24.5259L24.465 57.0885L24.2823 56.784C24.3634 56.3645 24.5056 55.992 24.7086 55.667C24.9117 55.3421 25.1554 55.068 25.4397 54.8447C25.724 54.6212 26.0353 54.4521 26.3738 54.3369C26.7121 54.2221 27.0642 54.1644 27.4297 54.1644C27.9171 54.1644 28.367 54.249 28.7801 54.4182C29.1929 54.5876 29.5619 54.8415 29.8868 55.1796L29.237 56.3169L29.1558 56.4996L29.0136 56.4184C28.9864 56.3102 28.9458 56.2087 28.8918 56.1138C28.8375 56.0192 28.7223 55.9041 28.5466 55.7685C28.3299 55.6335 28.1303 55.542 27.9476 55.4944C27.7648 55.4471 27.5582 55.4234 27.3282 55.4234C26.9897 55.4234 26.6511 55.4874 26.3129 55.6153C25.9743 55.7435 25.6663 55.9422 25.3889 56.2115C25.1113 56.4808 24.8914 56.8245 24.729 57.242C24.5665 57.6597 24.4853 58.158 24.4853 58.7371V63.6475H23.0029L23.0029 54.3674Z" fill="#006BCF"/>
<path d="M35.0241 63.81C33.9681 63.81 33.1558 63.5708 32.5872 63.0916C32.0187 62.6129 31.7344 62.0024 31.7344 61.2602C31.7344 60.7615 31.8562 60.3128 32.0999 59.9149C32.3435 59.517 32.6786 59.1797 33.1051 58.9031C33.5315 58.6265 34.029 58.4141 34.5976 58.2657C35.1662 58.1171 35.7684 58.0429 36.4049 58.0429C36.6349 58.0429 36.8684 58.0464 37.1055 58.0531C37.3421 58.0601 37.5928 58.0734 37.8568 58.0936C38.1208 58.114 38.3949 58.1444 38.6792 58.1851L38.7198 59.3019C38.4761 59.2613 38.229 59.2309 37.9786 59.2106C37.728 59.1902 37.4811 59.1735 37.2374 59.1598C36.9937 59.1464 36.7567 59.1394 36.5267 59.1394C36.0393 59.1394 35.5926 59.1801 35.1865 59.2607C34.7804 59.3415 34.4281 59.4628 34.1306 59.6242C33.8326 59.7858 33.6026 59.9942 33.4402 60.25C33.2777 60.5057 33.1965 60.8154 33.1965 61.1787C33.1965 61.4617 33.2472 61.7006 33.3488 61.8958C33.4503 62.0909 33.5889 62.2457 33.765 62.36C33.9408 62.4745 34.1473 62.5585 34.3844 62.6125C34.6211 62.6664 34.8819 62.693 35.1662 62.693C35.6941 62.693 36.1644 62.6093 36.5775 62.4415C36.9903 62.2737 37.3421 62.0287 37.6334 61.7064C37.9244 61.3843 38.1443 60.9883 38.2934 60.5181C38.4422 60.0481 38.5167 59.5111 38.5167 58.9069C38.5167 57.9941 38.4082 57.2823 38.1919 56.7722C37.9752 56.262 37.6537 55.8996 37.2273 55.6848C36.8009 55.47 36.2557 55.3624 35.5926 55.3624C35.1459 55.3624 34.7058 55.4471 34.2727 55.6162C33.8392 55.7858 33.4468 56.0462 33.0949 56.3981L32.3842 55.4639C32.8173 55.0309 33.3183 54.7059 33.8869 54.4892C34.4554 54.2729 35.0577 54.1643 35.6941 54.1643C36.3033 54.1643 36.8583 54.239 37.3593 54.3877C37.86 54.5368 38.2899 54.7837 38.6487 55.1289C39.0073 55.4742 39.2849 55.9381 39.4813 56.5199C39.6774 57.1022 39.7758 57.8332 39.7758 58.713V63.6475H38.1919V62.1651C38.0158 62.5036 37.8025 62.7813 37.5522 62.9976C37.3015 63.2143 37.0344 63.3803 36.7501 63.4952C36.4658 63.6104 36.1745 63.6912 35.8769 63.7388C35.579 63.7861 35.2947 63.81 35.0241 63.81Z" fill="#006BCF"/>
<path d="M44.9332 58.9666L43.7148 60.1113V63.6475H42.2324V50.1436H43.8976V50.2852C43.8163 50.3664 43.7656 50.454 43.7453 50.5483C43.7249 50.6428 43.7148 50.8046 43.7148 51.0337V58.5988L48.365 54.2659C48.4462 54.2795 48.5274 54.2932 48.6087 54.3066C48.6899 54.3201 48.7743 54.3303 48.8625 54.3369C48.9504 54.344 49.0453 54.3506 49.1468 54.3573C49.2483 54.3642 49.3463 54.3674 49.4412 54.3674H49.9692L46.0704 58.0674L50.619 63.6475L48.7305 63.7288L44.9332 58.9666Z" fill="#006BCF"/>
<path d="M53.0762 63.6475V62.4697H55.452V55.5452H53.198V54.3674H56.9141V62.4697H59.0869V63.6475H53.0762ZM56.1018 52.4179C55.8175 52.4179 55.5739 52.3164 55.3708 52.1134C55.1677 51.9103 55.0662 51.6667 55.0662 51.3824C55.0662 51.0848 55.1643 50.834 55.3606 50.631C55.5567 50.4279 55.8039 50.3264 56.1018 50.3264C56.3861 50.3264 56.633 50.4315 56.843 50.6412C57.0528 50.8513 57.1578 51.0981 57.1578 51.3824C57.1578 51.6667 57.0528 51.9103 56.843 52.1134C56.633 52.3164 56.3861 52.4179 56.1018 52.4179Z" fill="#006BCF"/>
<path d="M72.1846 63.6475V50.9965H73.3014L76.4286 57.1901L79.6167 50.9763H80.693V63.6475H79.3528V54.1035L76.6113 59.2004H76.0631L73.5045 54.1644V63.6475H72.1846Z" fill="#006BCF"/>
<path d="M87.0284 63.81C86.3513 63.81 85.7354 63.7056 85.1804 63.4971C84.6252 63.2887 84.148 62.9828 83.7488 62.5792C83.3494 62.1756 83.0413 61.6746 82.8249 61.0759C82.6082 60.4772 82.5 59.7943 82.5 59.0274C82.5 58.2472 82.6117 57.5546 82.8351 56.9492C83.0584 56.3438 83.3631 55.8361 83.7488 55.4256C84.1347 55.0153 84.5881 54.7025 85.1094 54.4874C85.6304 54.2723 86.1821 54.1644 86.7643 54.1644C87.2923 54.1644 87.7863 54.2522 88.2467 54.4275C88.7068 54.6025 89.1063 54.8691 89.4449 55.2263C89.783 55.5836 90.0505 56.0389 90.2469 56.5916C90.443 57.1443 90.5414 57.7983 90.5414 58.5532C90.5414 58.6611 90.5379 58.7724 90.5313 58.8869C90.5242 59.0018 90.5141 59.1128 90.5008 59.2207H83.9011C83.9281 59.8095 84.0296 60.3213 84.2058 60.756C84.3815 61.1908 84.6119 61.5455 84.8962 61.8196C85.1804 62.0937 85.5086 62.2978 85.881 62.4317C86.2532 62.5655 86.6492 62.6322 87.0689 62.6322C87.3939 62.6322 87.6985 62.5951 87.9828 62.5205C88.2671 62.4463 88.5342 62.3311 88.7849 62.1753C89.0352 62.0199 89.2621 61.8269 89.4651 61.5965L90.2774 62.3885C90.0201 62.7001 89.7256 62.9641 89.3941 63.1804C89.0622 63.3971 88.7002 63.5562 88.3077 63.6577C87.9148 63.7592 87.4884 63.81 87.0284 63.81ZM83.9621 58.0836H89.059C89.059 57.6536 89.0012 57.2671 88.8864 56.9245C88.7712 56.5818 88.6088 56.2861 88.399 56.0373C88.189 55.7886 87.9386 55.6005 87.6477 55.4728C87.3564 55.3453 87.0284 55.2812 86.6628 55.2812C86.338 55.2812 86.0299 55.3351 85.7389 55.4427C85.4477 55.5502 85.1804 55.7216 84.9368 55.9567C84.6931 56.1921 84.4866 56.4844 84.3175 56.8337C84.148 57.1833 84.0296 57.6 83.9621 58.0836Z" fill="#006BCF"/>
<path d="M95.2836 63.6475C94.8166 63.5393 94.3765 63.3768 93.9638 63.1601C93.5506 62.9437 93.1683 62.6728 92.8164 62.3479L93.6287 60.9671L93.7505 60.7843L93.8724 60.8655C93.8994 60.9741 93.9298 61.0857 93.9638 61.2006C93.9974 61.3158 94.0888 61.4544 94.2379 61.6168C94.5222 61.9011 94.8639 62.1346 95.2634 62.3174C95.6625 62.5002 96.1737 62.5915 96.7965 62.5915C97.2972 62.5915 97.7205 62.5316 98.0657 62.411C98.4109 62.2905 98.678 62.1198 98.8678 61.899C99.0572 61.678 99.1521 61.4205 99.1521 61.126C99.1521 60.9242 99.1115 60.7462 99.0302 60.5914C98.949 60.4365 98.817 60.2919 98.6342 60.1573C98.4515 60.0228 98.211 59.8885 97.9133 59.754C97.6154 59.6195 97.2499 59.4849 96.8168 59.3504C96.1127 59.1487 95.4969 58.9133 94.9689 58.6442C94.4409 58.3751 94.0348 58.0626 93.7505 57.7059C93.4663 57.3493 93.3241 56.9426 93.3241 56.4851C93.3241 56.0141 93.4526 55.6074 93.7099 55.2641C93.9669 54.921 94.3495 54.652 94.8573 54.4569C95.3649 54.262 95.9909 54.1643 96.7356 54.1643C97.1687 54.1643 97.5612 54.1948 97.9133 54.2558C98.2652 54.3166 98.5902 54.4081 98.8881 54.5299C99.1857 54.6517 99.4599 54.804 99.7105 54.9868C99.9608 55.1696 100.201 55.3827 100.431 55.6264L99.5988 56.6417L99.4567 56.8042L99.3551 56.7027C99.3415 56.5944 99.311 56.4894 99.2638 56.3879C99.2162 56.2864 99.1181 56.1614 98.9693 56.0123C98.6577 55.7685 98.3059 55.5827 97.9133 55.4539C97.5205 55.3253 97.1417 55.2609 96.7762 55.2609C96.2346 55.2609 95.7675 55.3545 95.375 55.5417C94.9822 55.7289 94.7861 56.0164 94.7861 56.4041C94.7861 56.6059 94.8573 56.8045 94.9994 56.9993C95.1415 57.1944 95.402 57.3895 95.7811 57.5848C96.16 57.7799 96.7016 57.9782 97.4057 58.1799C98.1774 58.4221 98.7967 58.6677 99.2638 58.9165C99.7308 59.1655 100.069 59.4514 100.279 59.774C100.489 60.097 100.594 60.4803 100.594 60.9242C100.594 61.4357 100.455 61.9132 100.178 62.357C99.8999 62.8013 99.4769 63.1544 98.9084 63.4165C98.3398 63.6786 97.6221 63.81 96.7559 63.81C96.2412 63.81 95.7507 63.7557 95.2836 63.6475Z" fill="#006BCF"/>
<path d="M103.294 50.1436H104.898V50.2865C104.817 50.368 104.766 50.4562 104.746 50.5515C104.726 50.6466 104.715 50.8094 104.715 51.0403V56.0326C104.959 55.6538 105.247 55.3253 105.578 55.0478C105.91 54.7703 106.262 54.5536 106.634 54.3979C107.007 54.2424 107.382 54.1644 107.761 54.1644C108.316 54.1644 108.807 54.2929 109.234 54.5495C109.66 54.8063 109.992 55.2181 110.229 55.7854C110.465 56.3527 110.584 57.1025 110.584 58.0346V63.6475H109.163V58.0768C109.163 57.4289 109.088 56.9124 108.939 56.5275C108.79 56.1427 108.587 55.8657 108.33 55.6968C108.073 55.5281 107.782 55.4437 107.457 55.4437C107.213 55.4437 106.962 55.4842 106.705 55.5652C106.448 55.6465 106.201 55.768 105.964 55.9297C105.727 56.0919 105.514 56.2912 105.325 56.5275C105.135 56.7639 104.986 57.0308 104.878 57.3278C104.769 57.6247 104.715 57.9556 104.715 58.3203V63.6475H103.294L103.294 50.1436Z" fill="#006BCF"/>
<g opacity="0.61">
<mask id="mask0_929_3794" style="mask-type:luminance" maskUnits="userSpaceOnUse" x="43" y="6" width="22" height="5">
<path d="M54.282 10.1477C51.159 10.1477 48.0356 10.122 44.9131 10.1654C44.1137 10.1765 43.9022 9.92819 43.9104 9.14767C43.9332 6.97233 43.8979 6.97196 46.1114 6.97196C51.9436 6.97197 57.7759 6.99408 63.6078 6.94915C64.5256 6.94208 64.7288 7.22648 64.7093 8.08435C64.6623 10.1469 64.7032 10.1478 62.6352 10.1479C59.8508 10.1479 57.0664 10.1479 54.282 10.1477Z" fill="white"/>
</mask>
<g mask="url(#mask0_929_3794)">
<path d="M64.7105 6.94208H43.9102V10.1765H64.7105V6.94208Z" fill="#00B7CD"/>
<path d="M64.7283 6.94208H64.71V10.1765H64.7283V6.94208Z" fill="#00B7CD"/>
</g>
<mask id="mask1_929_3794" style="mask-type:luminance" maskUnits="userSpaceOnUse" x="43" y="32" width="22" height="4">
<path d="M54.1848 35.6297C51.0985 35.6297 48.0117 35.6043 44.926 35.6473C44.1434 35.6582 43.9014 35.4477 43.9094 34.6483C43.9312 32.459 43.8933 32.4586 46.0899 32.4586C51.9239 32.4586 57.758 32.4783 63.5917 32.4377C64.481 32.4315 64.735 32.6677 64.7115 33.5567C64.6567 35.6285 64.7032 35.6297 62.6535 35.6297C59.8306 35.6297 57.0077 35.6297 54.1848 35.6297Z" fill="white"/>
</mask>
<g mask="url(#mask1_929_3794)">
<path d="M64.713 32.4315H43.9092V35.6582H64.713V32.4315Z" fill="#00B7CD"/>
</g>
<mask id="mask2_929_3794" style="mask-type:luminance" maskUnits="userSpaceOnUse" x="40" y="0" width="4" height="19">
<path d="M43.2065 10.2268C43.2065 12.8562 43.1907 15.4858 43.2184 18.115C43.2248 18.7255 43.0807 18.9523 42.4166 18.968C40.0233 19.0245 40.024 19.0526 40.024 16.6681C40.024 12.0103 40.0222 7.35242 40.0251 2.69457C40.026 1.32699 40.5226 0.646755 41.5272 0.609527C42.5678 0.570967 43.1991 1.33279 43.204 2.6766C43.2133 5.1933 43.2067 7.71007 43.2065 10.2268Z" fill="white"/>
</mask>
<g mask="url(#mask2_929_3794)">
<path d="M43.2186 0.570967H40.0234V19.0526H43.2186V0.570967Z" fill="#00B7CD"/>
</g>
<mask id="mask3_929_3794" style="mask-type:luminance" maskUnits="userSpaceOnUse" x="40" y="23" width="4" height="19">
<path d="M40.0242 32.3761C40.0242 29.8201 40.0557 27.2635 40.0058 24.7085C39.99 23.8971 40.1643 23.6045 41.0451 23.6244C43.2059 23.6732 43.207 23.6242 43.207 25.8171C43.207 30.4028 43.2074 34.9885 43.206 39.5742C43.2059 39.9122 43.2478 40.2627 43.1743 40.5856C42.9677 41.4939 42.4311 42.0829 41.4336 41.9808C40.5118 41.8865 40.0349 41.2998 40.0305 40.3823C40.0177 37.7136 40.026 35.0448 40.0242 32.3761Z" fill="white"/>
</mask>
<g mask="url(#mask3_929_3794)">
<path d="M43.2178 23.6045H40.0049V42.0829H43.2178V23.6045Z" fill="#00B7CD"/>
</g>
<mask id="mask4_929_3794" style="mask-type:luminance" maskUnits="userSpaceOnUse" x="65" y="23" width="4" height="20">
<path d="M68.5855 32.3527C68.5855 34.9437 68.5951 37.5347 68.5814 40.1256C68.5747 41.3743 68.0077 42.0227 67.0029 42.0014C66.0352 41.981 65.5165 41.3649 65.5146 40.1565C65.5062 34.9746 65.5292 29.7925 65.4923 24.6108C65.4864 23.788 65.7656 23.621 66.5233 23.6305C68.5858 23.6565 68.5862 23.6226 68.5863 25.7063C68.5863 27.9218 68.5863 30.1373 68.5855 32.3527Z" fill="white"/>
</mask>
<g mask="url(#mask4_929_3794)">
<path d="M68.5888 23.621H65.4922V42.0227H68.5888V23.621Z" fill="#00B7CD"/>
</g>
<mask id="mask5_929_3794" style="mask-type:luminance" maskUnits="userSpaceOnUse" x="65" y="0" width="4" height="19">
<path d="M65.5105 10.1363C65.5105 7.57697 65.5026 5.01766 65.5139 2.45842C65.5193 1.22993 66.0134 0.639421 67.0054 0.61059C68.0021 0.581618 68.574 1.18062 68.5774 2.37423C68.5922 7.60566 68.5738 12.8372 68.5981 18.0686C68.6013 18.7522 68.4007 18.9608 67.7076 18.9677C65.5098 18.9896 65.5101 19.0197 65.5101 16.7979C65.51 14.5774 65.5101 12.3568 65.5105 10.1363Z" fill="white"/>
</mask>
<g mask="url(#mask5_929_3794)">
<path d="M68.5982 0.581618H65.5078V19.0197H68.5982V0.581618Z" fill="#00B7CD"/>
</g>
<mask id="mask6_929_3794" style="mask-type:luminance" maskUnits="userSpaceOnUse" x="52" y="0" width="4" height="6">
<path d="M55.8799 3.51838C55.8799 6.03214 55.8812 6.01311 53.3968 5.84824C52.8497 5.81193 52.6877 5.62705 52.702 5.10655C52.7311 4.0543 52.6835 2.99975 52.7192 1.9479C52.7566 0.847327 53.4264 0.170002 54.3669 0.202354C55.2935 0.234228 55.8464 0.862204 55.8764 1.93887C55.8911 2.46499 55.879 2.99185 55.8799 3.51838Z" fill="white"/>
</mask>
<g mask="url(#mask6_929_3794)">
<path d="M55.8837 0.17H52.7012V6.03214H55.8837V0.17Z" fill="#00B7CD"/>
</g>
<mask id="mask7_929_3794" style="mask-type:luminance" maskUnits="userSpaceOnUse" x="52" y="36" width="4" height="7">
<path d="M55.8772 39.1371C55.8772 39.6978 55.8881 40.2588 55.8747 40.8191C55.8528 41.7403 55.3738 42.2974 54.4614 42.3866C53.4648 42.484 52.8469 41.9036 52.7594 40.9908C52.6423 39.7683 52.7243 38.5271 52.7103 37.294C52.706 36.9085 52.8883 36.7608 53.2557 36.7646C53.9284 36.7714 54.6021 36.7852 55.2738 36.7578C55.801 36.7363 55.8943 37.021 55.8823 37.4552C55.8668 38.0154 55.8785 38.5765 55.8772 39.1371Z" fill="white"/>
</mask>
<g mask="url(#mask7_929_3794)">
<path d="M55.8833 36.7363H52.6953V42.484H55.8833V36.7363Z" fill="#00B7CD"/>
</g>
<mask id="mask8_929_3794" style="mask-type:luminance" maskUnits="userSpaceOnUse" x="69" y="6" width="7" height="5">
<path d="M72.1493 10.1479C72.1119 10.1479 72.0745 10.1479 72.0371 10.1479C69.5639 10.1478 69.5778 10.149 69.7862 7.61863C69.825 7.14762 69.9572 6.95494 70.4441 6.96557C71.5659 6.99006 72.6905 6.93484 73.8103 6.98878C74.8061 7.03675 75.4906 7.76621 75.4638 8.62259C75.4365 9.49174 74.7383 10.1098 73.7204 10.1436C73.1973 10.1611 72.673 10.1467 72.1493 10.1479Z" fill="white"/>
</mask>
<g mask="url(#mask8_929_3794)">
<path d="M75.4645 6.93484H69.7012V10.1611H75.4645V6.93484Z" fill="#00B7CD"/>
<path d="M75.49 6.93484H75.4639V10.1611H75.49V6.93484Z" fill="#00B7CD"/>
</g>
<mask id="mask9_929_3794" style="mask-type:luminance" maskUnits="userSpaceOnUse" x="69" y="32" width="7" height="4">
<path d="M72.1079 35.6297C69.6489 35.6297 69.6753 35.6309 69.78 33.1743C69.8068 32.5446 70.0518 32.4356 70.59 32.4506C71.6375 32.4797 72.6868 32.4413 73.7345 32.4651C74.7381 32.488 75.4478 33.1423 75.4621 34.0051C75.4763 34.869 74.7768 35.5658 73.7923 35.6234C73.2327 35.6562 72.6695 35.6294 72.1079 35.6297Z" fill="white"/>
</mask>
<g mask="url(#mask9_929_3794)">
<path d="M75.4623 32.4356H69.7451V35.6562H75.4623V32.4356Z" fill="#00B7CD"/>
</g>
<mask id="mask10_929_3794" style="mask-type:luminance" maskUnits="userSpaceOnUse" x="33" y="32" width="6" height="4">
<path d="M36.5068 35.6255C35.9076 35.6255 35.3007 35.6862 34.7109 35.6116C33.7829 35.4942 33.1697 34.9569 33.2185 33.9716C33.266 33.0136 33.8364 32.4808 34.8231 32.4635C35.4222 32.4531 36.0216 32.4588 36.6208 32.4588C39.0135 32.4584 39.1041 32.5809 38.8074 35.0601C38.756 35.4896 38.6134 35.6492 38.1921 35.6332C37.6311 35.6119 37.0686 35.6279 36.5068 35.6255Z" fill="white"/>
</mask>
<g mask="url(#mask10_929_3794)">
<path d="M38.9276 32.4531H33.2158V35.6862H38.9276V32.4531Z" fill="#00B7CD"/>
</g>
<mask id="mask11_929_3794" style="mask-type:luminance" maskUnits="userSpaceOnUse" x="33" y="6" width="6" height="5">
<path d="M36.4241 10.1416C35.8631 10.1416 35.3013 10.1592 34.7411 10.1375C33.8692 10.1037 33.3356 9.62837 33.2296 8.77521C33.1149 7.85248 33.5971 7.16438 34.4732 7.06827C35.7664 6.9264 37.0832 6.99857 38.39 6.98206C38.6739 6.97847 38.7834 7.15755 38.7858 7.40935C38.7928 8.15731 38.7841 8.90545 38.794 9.65335C38.7995 10.0618 38.5633 10.1499 38.2196 10.1459C37.6212 10.1389 37.0226 10.144 36.4241 10.1416Z" fill="white"/>
</mask>
<g mask="url(#mask11_929_3794)">
<path d="M38.7941 6.9264H33.2129V10.1592H38.7941V6.9264Z" fill="#00B7CD"/>
</g>
</g>
<path d="M28.6816 10.7036C29.4831 10.2758 29.8342 10.9977 30.255 11.3817C32.1638 13.1234 34.1665 14.6848 36.5885 15.6984C41.1939 17.6257 45.7801 17.0117 50.3739 15.7523C54.5898 14.5966 58.6433 12.9054 62.9191 11.9405C66.6842 11.0909 70.4192 10.9103 74.1048 12.3178C74.3572 12.4141 74.6321 12.4678 74.8637 12.5991C75.4755 12.9461 75.8516 13.4878 75.5421 14.1674C75.2387 14.8335 74.611 14.5639 74.1148 14.3873C72.3569 13.7617 70.5571 13.4229 68.6867 13.3869C65.2485 13.3207 61.9876 14.1865 58.7473 15.1883C54.8314 16.399 51.0026 17.8833 46.9557 18.6765C40.0363 20.0327 34.3284 17.9166 29.6057 12.8325C29.2443 12.4435 28.9872 11.9577 28.6816 11.5168C28.6816 11.2457 28.6816 10.9746 28.6816 10.7036Z" fill="#006BCF"/>
<path d="M68.505 19.3388C64.9841 19.3236 61.6337 20.2189 58.313 21.2703C54.1033 22.6031 49.9775 24.239 45.5568 24.8102C42.5044 25.2046 39.5245 24.9289 36.6406 23.8159C35.9012 23.5305 35.3014 23.0173 35.5874 22.1912C35.8832 21.3368 36.6134 21.7221 37.2015 21.9313C41.8181 23.573 46.3698 22.8625 50.9027 21.5518C55.0597 20.3498 59.0841 18.7214 63.3214 17.7704C70.3482 16.1933 76.363 17.895 81.323 23.1657C81.4468 23.2973 81.592 23.412 81.6987 23.5558C82.1532 24.1684 82.8708 24.9992 82.2869 25.5583C81.7322 26.0895 81.1555 25.1084 80.7153 24.6873C77.2909 21.4118 73.3423 19.3778 68.505 19.3388Z" fill="#006BCF"/>
<path d="M43.3442 31.369C38.819 31.3426 35.253 30.0135 32.1374 27.4645C31.8281 27.2114 31.5465 26.9048 31.3194 26.5764C31.0605 26.2021 30.8309 25.702 31.1786 25.331C31.5809 24.9017 32.0187 25.2853 32.3607 25.5552C37.5428 29.6463 43.3158 29.9365 49.432 28.3029C53.9217 27.1037 58.2215 25.2908 62.7552 24.2436C67.5143 23.1444 72.1572 23.1584 76.5282 25.7095C76.8002 25.8682 77.1034 26.0033 77.3199 26.2212C77.767 26.6711 78.2885 27.2129 77.8303 27.8617C77.3911 28.4837 76.8412 27.9702 76.3991 27.7234C71.5632 25.0234 66.5247 25.3288 61.4129 26.6884C56.8813 27.8937 52.5507 29.7628 47.9551 30.7595C46.2726 31.1244 44.5702 31.2962 43.3442 31.369Z" fill="#006BCF"/>
<path d="M45.3382 12.7948C44.4538 12.8054 44.0869 12.2055 44.4856 11.4444C44.734 10.9701 45.14 10.722 45.6638 10.6336C50.4908 9.81888 54.9933 7.89023 59.6687 6.55471C60.8378 6.22073 62.0236 5.94312 63.2069 5.66125C63.6407 5.55792 64.1278 5.42346 64.3941 5.96546C64.6519 6.49029 64.422 6.94165 64.0642 7.31234C63.8852 7.49776 63.6262 7.66453 63.3779 7.71581C58.1093 8.80358 53.1779 11.0263 47.9613 12.2835C47.0857 12.4946 46.1919 12.6304 45.3382 12.7948Z" fill="#006BCF"/>
<path d="M42.2353 42.4687C37.427 42.5225 33.5451 40.7508 30.1895 37.6763C30.1229 37.6154 30.0523 37.5574 29.9944 37.4889C29.5015 36.906 28.7408 36.1485 29.3336 35.5241C29.9069 34.92 30.4902 35.8588 30.963 36.2592C35.9038 40.4438 41.5532 41.0937 47.6383 39.6736C48.194 39.5439 48.9739 39.0183 49.231 39.9405C49.4707 40.7999 48.8853 41.4138 48.0577 41.638C46.093 42.1702 44.0923 42.4911 42.2353 42.4687Z" fill="#006BCF"/>
</g>
</g>
</g>
<defs>
<clipPath id="clip0_929_3794">
<rect width="110" height="63.64" fill="white" transform="translate(0.594727 0.17)"/>
</clipPath>
<clipPath id="clip1_929_3794">
<rect width="110" height="63.64" fill="white" transform="translate(0.594727 0.17)"/>
</clipPath>
<clipPath id="clip2_929_3794">
<rect width="109.98" height="63.64" fill="white" transform="translate(0.604492 0.17)"/>
</clipPath>
</defs>
</svg>
