<svg width="832" height="568" viewBox="0 0 832 568" fill="none" xmlns="http://www.w3.org/2000/svg">
<path d="M854 63.6725V140.934C854 149.505 844.149 156.454 831.996 156.454L139.004 156.454C126.851 156.454 117 149.505 117 140.934V63.6725C117 55.101 126.851 48.1524 139.004 48.1524L831.996 48.1524C844.149 48.1524 854 55.101 854 63.6725Z" fill="url(#paint0_linear_1546_2034)"/>
<path d="M131.377 568H202.933C206.745 568 210.401 566.365 213.097 563.454C215.793 560.544 217.307 556.596 217.307 552.48V48.182H131.377C127.565 48.182 123.909 49.8171 121.213 52.7275C118.518 55.638 117.003 59.5854 117.003 63.7015L117.003 552.48C117.003 556.596 118.518 560.544 121.213 563.454C123.909 566.365 127.565 568 131.377 568Z" fill="url(#paint1_linear_1546_2034)"/>
<path d="M337.677 552.417V475.244C337.677 471.128 336.162 467.181 333.466 464.27C330.771 461.36 327.115 459.725 323.303 459.725H117V552.417C117 554.456 117.372 556.474 118.094 558.357C118.817 560.239 119.875 561.95 121.21 563.391C122.545 564.833 124.129 565.976 125.873 566.756C127.617 567.536 129.486 567.937 131.374 567.937H323.283C325.172 567.94 327.043 567.54 328.79 566.762C330.536 565.983 332.123 564.84 333.46 563.399C334.796 561.957 335.857 560.246 336.58 558.361C337.304 556.477 337.677 554.457 337.677 552.417Z" fill="url(#paint2_linear_1546_2034)"/>
<path d="M237.358 567.997H323.288C327.1 567.997 330.756 566.362 333.452 563.451C336.147 560.541 337.662 556.593 337.662 552.477V193.663C337.662 189.547 336.147 185.6 333.452 182.689C330.756 179.779 327.1 178.144 323.288 178.144H251.752C247.939 178.144 244.283 179.779 241.588 182.689C238.892 185.6 237.378 189.547 237.378 193.663L237.378 567.997H237.358Z" fill="url(#paint3_linear_1546_2034)"/>
<path d="M598.457 270.944V193.707C598.457 189.591 596.943 185.644 594.247 182.733C591.551 179.823 587.895 178.187 584.083 178.187H251.674C247.862 178.187 244.206 179.823 241.51 182.733C238.814 185.644 237.3 189.591 237.3 193.707V286.421H584.083C587.888 286.421 591.538 284.792 594.233 281.89C596.928 278.989 598.447 275.053 598.457 270.944Z" fill="url(#paint4_linear_1546_2034)"/>
<path d="M512.523 416.389H584.06C587.872 416.389 591.528 414.754 594.224 411.843C596.919 408.933 598.434 404.985 598.434 400.869V193.667C598.434 189.551 596.919 185.604 594.224 182.694C591.528 179.783 587.872 178.148 584.06 178.148H498.149V400.869C498.149 404.985 499.664 408.933 502.359 411.843C505.055 414.754 508.711 416.389 512.523 416.389Z" fill="url(#paint5_linear_1546_2034)"/>
<path d="M598.434 400.847V308.07H372.141C368.329 308.07 364.673 309.705 361.977 312.615C359.282 315.526 357.767 319.473 357.767 323.589V400.847C357.767 404.963 359.282 408.911 361.977 411.821C364.673 414.732 368.329 416.367 372.141 416.367H584.06C587.872 416.367 591.528 414.732 594.224 411.821C596.919 408.911 598.434 404.963 598.434 400.847Z" fill="url(#paint6_linear_1546_2034)"/>
<path d="M372.103 568H443.639C447.451 568 451.107 566.365 453.803 563.454C456.498 560.544 458.013 556.597 458.013 552.481V308.091H372.103C368.29 308.091 364.634 309.726 361.939 312.637C359.243 315.547 357.729 319.495 357.729 323.611V552.481C357.729 556.597 359.243 560.544 361.939 563.454C364.634 566.365 368.29 568 372.103 568Z" fill="url(#paint7_linear_1546_2034)"/>
<ellipse cx="186" cy="344.906" rx="5" ry="3.97357" fill="#1362F3"/>
<path d="M193.75 344.906C193.75 348.229 190.337 351.014 186 351.014C181.663 351.014 178.25 348.229 178.25 344.906C178.25 341.583 181.663 338.798 186 338.798C190.337 338.798 193.75 341.583 193.75 344.906Z" stroke="#1362F3" stroke-width="0.5"/>
<path d="M185.5 344.906L161.5 320.667H89.5" stroke="#1362F3"/>
<circle cx="27" cy="322.412" r="1.875" fill="#1362F3"/>
<circle cx="27" cy="322.412" r="2.90625" stroke="#1362F3" stroke-width="0.1875"/>
<path d="M35.3576 316.666V326.912H34.4919V316.666H35.3576ZM42.8947 325.434V316.103H43.7392V326.912H42.951L42.8947 325.434ZM37.6095 323.182V323.034C37.6095 322.443 37.6776 321.911 37.8136 321.437C37.9497 320.958 38.1444 320.55 38.3977 320.212C38.6558 319.87 38.9654 319.61 39.3267 319.431C39.6879 319.248 40.0961 319.157 40.5512 319.157C40.9969 319.157 41.391 319.23 41.7335 319.375C42.076 319.52 42.3692 319.729 42.6132 320.001C42.8618 320.273 43.0612 320.597 43.2114 320.972C43.3662 321.348 43.4788 321.765 43.5492 322.225V324.104C43.4929 324.536 43.3897 324.932 43.2395 325.293C43.0894 325.65 42.89 325.962 42.6413 326.229C42.3927 326.492 42.0924 326.696 41.7405 326.842C41.3934 326.982 40.9922 327.053 40.5371 327.053C40.0867 327.053 39.6809 326.959 39.3196 326.771C38.9584 326.584 38.6511 326.319 38.3977 325.976C38.1444 325.629 37.9497 325.218 37.8136 324.745C37.6776 324.271 37.6095 323.75 37.6095 323.182ZM38.454 323.034V323.182C38.454 323.628 38.4986 324.041 38.5878 324.421C38.6769 324.801 38.813 325.132 38.9959 325.413C39.1789 325.695 39.4111 325.915 39.6926 326.075C39.9741 326.234 40.3072 326.314 40.692 326.314C41.1752 326.314 41.581 326.222 41.9094 326.039C42.2379 325.852 42.5006 325.605 42.6976 325.301C42.8947 324.991 43.0378 324.653 43.1269 324.287V322.098C43.0706 321.85 42.9885 321.596 42.8806 321.338C42.7727 321.08 42.6249 320.843 42.4372 320.628C42.2543 320.407 42.0197 320.231 41.7335 320.1C41.452 319.964 41.1095 319.896 40.706 319.896C40.3166 319.896 39.9812 319.976 39.6997 320.135C39.4182 320.295 39.1836 320.517 38.9959 320.804C38.813 321.085 38.6769 321.416 38.5878 321.796C38.4986 322.176 38.454 322.589 38.454 323.034ZM48.8976 327.053C48.4003 327.053 47.9429 326.961 47.5253 326.778C47.1125 326.595 46.7512 326.337 46.4416 326.004C46.1366 325.671 45.8997 325.277 45.7308 324.822C45.5666 324.362 45.4845 323.86 45.4845 323.316V323.013C45.4845 322.427 45.5713 321.897 45.7449 321.423C45.9184 320.949 46.1577 320.543 46.4627 320.205C46.7676 319.868 47.1148 319.61 47.5042 319.431C47.8983 319.248 48.3112 319.157 48.7428 319.157C49.2261 319.157 49.6553 319.244 50.0307 319.417C50.406 319.586 50.7204 319.828 50.9737 320.142C51.2317 320.452 51.4264 320.82 51.5578 321.247C51.6892 321.669 51.7549 322.136 51.7549 322.647V323.161H45.9912V322.443H50.9174V322.345C50.908 321.918 50.8212 321.519 50.657 321.148C50.4975 320.773 50.2582 320.468 49.9392 320.234C49.6202 319.999 49.2214 319.882 48.7428 319.882C48.3863 319.882 48.0578 319.957 47.7576 320.107C47.462 320.257 47.2063 320.473 46.9905 320.754C46.7794 321.031 46.6152 321.362 46.4979 321.747C46.3853 322.127 46.329 322.549 46.329 323.013V323.316C46.329 323.738 46.39 324.132 46.5119 324.498C46.6386 324.86 46.8169 325.179 47.0468 325.455C47.2814 325.732 47.5582 325.948 47.8772 326.103C48.1962 326.258 48.5481 326.335 48.9328 326.335C49.3832 326.335 49.782 326.253 50.1292 326.089C50.4764 325.92 50.7884 325.655 51.0652 325.293L51.593 325.702C51.4288 325.946 51.2224 326.171 50.9737 326.377C50.7297 326.584 50.4365 326.748 50.094 326.87C49.7515 326.992 49.3527 327.053 48.8976 327.053ZM58.0464 325.547V321.62C58.0464 321.259 57.9713 320.947 57.8212 320.684C57.671 320.421 57.4505 320.219 57.1596 320.079C56.8688 319.938 56.5098 319.868 56.0829 319.868C55.6888 319.868 55.3369 319.938 55.0273 320.079C54.7223 320.215 54.4807 320.4 54.3024 320.635C54.1288 320.865 54.042 321.12 54.042 321.402L53.1975 321.395C53.1975 321.109 53.2679 320.832 53.4087 320.564C53.5494 320.297 53.7488 320.058 54.0068 319.846C54.2649 319.635 54.5722 319.469 54.9288 319.347C55.29 319.22 55.6865 319.157 56.1181 319.157C56.6623 319.157 57.1409 319.248 57.5537 319.431C57.9713 319.614 58.2974 319.889 58.5319 320.255C58.7665 320.621 58.8838 321.08 58.8838 321.634V325.315C58.8838 325.577 58.9026 325.849 58.9401 326.131C58.9823 326.412 59.041 326.645 59.1161 326.828V326.912H58.2223C58.166 326.743 58.1214 326.532 58.0886 326.279C58.0604 326.021 58.0464 325.777 58.0464 325.547ZM58.2434 322.479L58.2575 323.126H56.6037C56.172 323.126 55.785 323.166 55.4425 323.246C55.1047 323.321 54.8185 323.433 54.5839 323.583C54.3493 323.729 54.1687 323.905 54.042 324.111C53.9201 324.318 53.8591 324.552 53.8591 324.815C53.8591 325.087 53.9271 325.336 54.0631 325.561C54.2039 325.786 54.4009 325.967 54.6543 326.103C54.9123 326.234 55.2173 326.3 55.5692 326.3C56.0383 326.3 56.4512 326.213 56.8078 326.039C57.169 325.866 57.4669 325.638 57.7015 325.357C57.9361 325.075 58.0933 324.768 58.173 324.435L58.539 324.921C58.478 325.155 58.3654 325.397 58.2012 325.645C58.0417 325.889 57.8329 326.119 57.5748 326.335C57.3168 326.546 57.0118 326.72 56.66 326.856C56.3128 326.987 55.9187 327.053 55.4777 327.053C54.9804 327.053 54.5464 326.959 54.1757 326.771C53.8098 326.584 53.5236 326.328 53.3172 326.004C53.1154 325.676 53.0146 325.305 53.0146 324.892C53.0146 324.517 53.0943 324.182 53.2538 323.886C53.4134 323.586 53.6432 323.332 53.9435 323.126C54.2485 322.915 54.6144 322.755 55.0414 322.647C55.473 322.535 55.9562 322.479 56.4911 322.479H58.2434ZM64.0212 319.298V319.987H60.2069V319.298H64.0212ZM61.6073 317.341H62.4448V325.061C62.4448 325.413 62.4917 325.678 62.5855 325.856C62.6794 326.035 62.8013 326.154 62.9515 326.215C63.1016 326.276 63.2635 326.307 63.4371 326.307C63.5637 326.307 63.6857 326.3 63.803 326.286C63.9203 326.267 64.0259 326.248 64.1197 326.229L64.1549 326.94C64.0517 326.973 63.918 326.999 63.7537 327.018C63.5895 327.041 63.4253 327.053 63.2611 327.053C62.9374 327.053 62.6512 326.994 62.4026 326.877C62.1539 326.755 61.9592 326.549 61.8184 326.258C61.6777 325.962 61.6073 325.561 61.6073 325.054V317.341ZM66.7236 319.298V326.912H65.8861V319.298H66.7236ZM65.7383 317.095C65.7383 316.935 65.7876 316.802 65.8861 316.694C65.9893 316.581 66.1301 316.525 66.3083 316.525C66.4866 316.525 66.6274 316.581 66.7306 316.694C66.8385 316.802 66.8925 316.935 66.8925 317.095C66.8925 317.25 66.8385 317.383 66.7306 317.496C66.6274 317.604 66.4866 317.658 66.3083 317.658C66.1301 317.658 65.9893 317.604 65.8861 317.496C65.7876 317.383 65.7383 317.25 65.7383 317.095ZM68.5603 323.224V322.992C68.5603 322.439 68.6401 321.927 68.7996 321.458C68.9591 320.989 69.1867 320.583 69.4822 320.241C69.7825 319.898 70.1414 319.633 70.559 319.445C70.9765 319.253 71.441 319.157 71.9524 319.157C72.4685 319.157 72.9353 319.253 73.3529 319.445C73.7704 319.633 74.1293 319.898 74.4296 320.241C74.7299 320.583 74.9597 320.989 75.1193 321.458C75.2788 321.927 75.3585 322.439 75.3585 322.992V323.224C75.3585 323.778 75.2788 324.289 75.1193 324.759C74.9597 325.223 74.7299 325.627 74.4296 325.969C74.134 326.312 73.7774 326.579 73.3599 326.771C72.9423 326.959 72.4779 327.053 71.9665 327.053C71.4504 327.053 70.9836 326.959 70.566 326.771C70.1485 326.579 69.7895 326.312 69.4893 325.969C69.189 325.627 68.9591 325.223 68.7996 324.759C68.6401 324.289 68.5603 323.778 68.5603 323.224ZM69.3978 322.992V323.224C69.3978 323.642 69.4541 324.038 69.5667 324.414C69.6793 324.784 69.8435 325.115 70.0593 325.406C70.2751 325.692 70.5426 325.917 70.8616 326.082C71.1806 326.246 71.5489 326.328 71.9665 326.328C72.3793 326.328 72.7429 326.246 73.0573 326.082C73.3763 325.917 73.6437 325.692 73.8596 325.406C74.0754 325.115 74.2372 324.784 74.3451 324.414C74.4577 324.038 74.514 323.642 74.514 323.224V322.992C74.514 322.579 74.4577 322.188 74.3451 321.817C74.2372 321.446 74.073 321.116 73.8525 320.825C73.6367 320.534 73.3693 320.304 73.0502 320.135C72.7312 319.966 72.3653 319.882 71.9524 319.882C71.5395 319.882 71.1736 319.966 70.8546 320.135C70.5402 320.304 70.2728 320.534 70.0523 320.825C69.8365 321.116 69.6723 321.446 69.5597 321.817C69.4517 322.188 69.3978 322.579 69.3978 322.992ZM77.9413 320.923V326.912H77.1038V319.298H77.9061L77.9413 320.923ZM77.7513 322.633L77.3783 322.422C77.4064 321.972 77.4979 321.55 77.6527 321.155C77.8076 320.761 78.0164 320.414 78.2791 320.114C78.5465 319.814 78.8585 319.579 79.2151 319.41C79.5763 319.241 79.9751 319.157 80.4114 319.157C80.7915 319.157 81.1316 319.208 81.4319 319.312C81.7321 319.415 81.9878 319.579 82.199 319.804C82.4101 320.029 82.5696 320.318 82.6775 320.67C82.7901 321.022 82.8464 321.451 82.8464 321.958V326.912H82.0019V321.951C82.0019 321.425 81.9292 321.015 81.7837 320.719C81.6383 320.419 81.4319 320.205 81.1644 320.079C80.897 319.952 80.5803 319.889 80.2144 319.889C79.8109 319.889 79.4567 319.978 79.1517 320.156C78.8515 320.33 78.5981 320.557 78.3917 320.839C78.1899 321.116 78.0351 321.413 77.9272 321.733C77.8193 322.047 77.7607 322.347 77.7513 322.633Z" fill="white"/>
<circle cx="3" cy="8.5" r="1.875" fill="#F15A24"/>
<circle cx="3" cy="8.5" r="2.90625" stroke="#F15A24" stroke-width="0.1875"/>
<path d="M13.7855 8.82678H10.8649V8.08785H13.7855C14.3954 8.08785 14.8904 7.98932 15.2704 7.79227C15.6551 7.59053 15.9343 7.31842 16.1078 6.97593C16.2861 6.63344 16.3753 6.24872 16.3753 5.82178C16.3753 5.40422 16.2861 5.01951 16.1078 4.66764C15.9343 4.31576 15.6551 4.03426 15.2704 3.82314C14.8904 3.60732 14.3954 3.49942 13.7855 3.49942H11.1675V13H10.3019V2.75344H13.7855C14.5361 2.75344 15.1672 2.88246 15.6786 3.1405C16.1946 3.39854 16.584 3.75746 16.8468 4.21724C17.1095 4.67702 17.2409 5.20717 17.2409 5.80771C17.2409 6.43639 17.1095 6.97827 16.8468 7.43336C16.584 7.88376 16.197 8.2286 15.6856 8.46787C15.1742 8.70714 14.5408 8.82678 13.7855 8.82678ZM19.9222 2.19045V13H19.0847V2.19045H19.9222ZM26.8541 11.6347V7.70782C26.8541 7.34657 26.779 7.03457 26.6289 6.77184C26.4787 6.50911 26.2582 6.30737 25.9673 6.16662C25.6765 6.02587 25.3175 5.95549 24.8906 5.95549C24.4965 5.95549 24.1446 6.02587 23.835 6.16662C23.53 6.30267 23.2884 6.48799 23.1101 6.72258C22.9365 6.95247 22.8497 7.20816 22.8497 7.48966L22.0052 7.48262C22.0052 7.19643 22.0756 6.91963 22.2164 6.6522C22.3571 6.38478 22.5565 6.1455 22.8146 5.93438C23.0726 5.72326 23.3799 5.5567 23.7365 5.43472C24.0977 5.30805 24.4942 5.24471 24.9258 5.24471C25.47 5.24471 25.9486 5.3362 26.3614 5.51917C26.779 5.70214 27.1051 5.9766 27.3396 6.34255C27.5742 6.7085 27.6915 7.16828 27.6915 7.7219V11.4025C27.6915 11.6652 27.7103 11.9373 27.7478 12.2188C27.79 12.5003 27.8487 12.7326 27.9238 12.9156V13H27.03C26.9737 12.8311 26.9291 12.62 26.8963 12.3666C26.8681 12.1086 26.8541 11.8646 26.8541 11.6347ZM27.0511 8.56639L27.0652 9.21384H25.4114C24.9797 9.21384 24.5927 9.25372 24.2502 9.33348C23.9124 9.40854 23.6262 9.52114 23.3916 9.67128C23.157 9.81672 22.9764 9.99265 22.8497 10.1991C22.7278 10.4055 22.6668 10.6401 22.6668 10.9028C22.6668 11.1749 22.7348 11.4236 22.8709 11.6488C23.0116 11.874 23.2087 12.0546 23.462 12.1907C23.72 12.3221 24.025 12.3877 24.3769 12.3877C24.846 12.3877 25.2589 12.3009 25.6155 12.1274C25.9767 11.9538 26.2746 11.7262 26.5092 11.4447C26.7438 11.1632 26.901 10.8559 26.9807 10.5228L27.3467 11.0084C27.2857 11.243 27.1731 11.4846 27.0089 11.7333C26.8494 11.9772 26.6406 12.2071 26.3826 12.4229C26.1245 12.6341 25.8196 12.8076 25.4677 12.9437C25.1205 13.0751 24.7264 13.1407 24.2854 13.1407C23.7881 13.1407 23.3541 13.0469 22.9835 12.8593C22.6175 12.6716 22.3313 12.4159 22.1249 12.0922C21.9231 11.7638 21.8223 11.3931 21.8223 10.9802C21.8223 10.6049 21.902 10.2695 22.0615 9.97389C22.2211 9.67362 22.451 9.42027 22.7512 9.21384C23.0562 9.00272 23.4221 8.8432 23.8491 8.73529C24.2807 8.62269 24.7639 8.56639 25.2988 8.56639H27.0511ZM30.788 7.01111V13H29.9505V5.38546H30.7528L30.788 7.01111ZM30.598 8.72122L30.225 8.51009C30.2532 8.0597 30.3446 7.63745 30.4995 7.24335C30.6543 6.84925 30.8631 6.50207 31.1258 6.2018C31.3932 5.90154 31.7052 5.66696 32.0618 5.49806C32.423 5.32916 32.8218 5.24471 33.2582 5.24471C33.6382 5.24471 33.9783 5.29632 34.2786 5.39953C34.5789 5.50275 34.8346 5.66696 35.0457 5.89216C35.2568 6.11735 35.4163 6.40589 35.5242 6.75776C35.6368 7.10964 35.6931 7.53892 35.6931 8.04562V13H34.8486V8.03858C34.8486 7.51312 34.7759 7.1026 34.6305 6.80703C34.485 6.50676 34.2786 6.29329 34.0112 6.16662C33.7437 6.03994 33.4271 5.9766 33.0611 5.9766C32.6576 5.9766 32.3034 6.06575 31.9985 6.24403C31.6982 6.41762 31.4448 6.64516 31.2384 6.92666C31.0367 7.20347 30.8818 7.50139 30.7739 7.82042C30.666 8.13476 30.6074 8.43503 30.598 8.72122ZM38.7122 7.01111V13H37.8747V5.38546H38.677L38.7122 7.01111ZM38.5222 8.72122L38.1492 8.51009C38.1774 8.0597 38.2688 7.63745 38.4237 7.24335C38.5785 6.84925 38.7873 6.50207 39.05 6.2018C39.3174 5.90154 39.6294 5.66696 39.986 5.49806C40.3472 5.32916 40.746 5.24471 41.1824 5.24471C41.5624 5.24471 41.9025 5.29632 42.2028 5.39953C42.503 5.50275 42.7587 5.66696 42.9699 5.89216C43.181 6.11735 43.3405 6.40589 43.4484 6.75776C43.561 7.10964 43.6173 7.53892 43.6173 8.04562V13H42.7728V8.03858C42.7728 7.51312 42.7001 7.1026 42.5547 6.80703C42.4092 6.50676 42.2028 6.29329 41.9354 6.16662C41.6679 6.03994 41.3513 5.9766 40.9853 5.9766C40.5818 5.9766 40.2276 6.06575 39.9226 6.24403C39.6224 6.41762 39.369 6.64516 39.1626 6.92666C38.9609 7.20347 38.806 7.50139 38.6981 7.82042C38.5902 8.13476 38.5316 8.43503 38.5222 8.72122ZM46.7349 5.38546V13H45.8975V5.38546H46.7349ZM45.7497 3.18273C45.7497 3.02321 45.7989 2.8895 45.8975 2.78159C46.0007 2.66899 46.1414 2.61269 46.3197 2.61269C46.498 2.61269 46.6387 2.66899 46.742 2.78159C46.8499 2.8895 46.9038 3.02321 46.9038 3.18273C46.9038 3.33755 46.8499 3.47127 46.742 3.58386C46.6387 3.69177 46.498 3.74573 46.3197 3.74573C46.1414 3.74573 46.0007 3.69177 45.8975 3.58386C45.7989 3.47127 45.7497 3.33755 45.7497 3.18273ZM49.8736 7.01111V13H49.0362V5.38546H49.8384L49.8736 7.01111ZM49.6836 8.72122L49.3106 8.51009C49.3388 8.0597 49.4303 7.63745 49.5851 7.24335C49.7399 6.84925 49.9487 6.50207 50.2114 6.2018C50.4789 5.90154 50.7908 5.66696 51.1474 5.49806C51.5087 5.32916 51.9075 5.24471 52.3438 5.24471C52.7238 5.24471 53.0639 5.29632 53.3642 5.39953C53.6645 5.50275 53.9202 5.66696 54.1313 5.89216C54.3424 6.11735 54.5019 6.40589 54.6098 6.75776C54.7224 7.10964 54.7787 7.53892 54.7787 8.04562V13H53.9342V8.03858C53.9342 7.51312 53.8615 7.1026 53.7161 6.80703C53.5706 6.50676 53.3642 6.29329 53.0968 6.16662C52.8294 6.03994 52.5127 5.9766 52.1467 5.9766C51.7432 5.9766 51.389 6.06575 51.0841 6.24403C50.7838 6.41762 50.5305 6.64516 50.324 6.92666C50.1223 7.20347 49.9675 7.50139 49.8596 7.82042C49.7516 8.13476 49.693 8.43503 49.6836 8.72122ZM61.971 5.38546H62.7522V12.8663C62.7522 13.5278 62.6255 14.0955 62.3722 14.5694C62.1235 15.0432 61.7693 15.4068 61.3095 15.6602C60.8544 15.9135 60.3172 16.0402 59.6979 16.0402C59.3836 16.0402 59.0599 15.9909 58.7268 15.8924C58.3983 15.7986 58.0864 15.6531 57.7908 15.4561C57.4999 15.2637 57.2512 15.0244 57.0448 14.7383L57.5163 14.2245C57.826 14.5999 58.1567 14.8743 58.5086 15.0479C58.8605 15.2262 59.2405 15.3153 59.6487 15.3153C60.1319 15.3153 60.5401 15.2191 60.8732 15.0268C61.211 14.8344 61.4667 14.5576 61.6403 14.1964C61.8186 13.8351 61.9077 13.4011 61.9077 12.8944V7.06038L61.971 5.38546ZM56.6226 9.27014V9.12235C56.6226 8.53121 56.6882 7.9987 56.8196 7.52485C56.9557 7.0463 57.1504 6.63813 57.4037 6.30033C57.6571 5.95784 57.9644 5.69745 58.3256 5.51917C58.6916 5.3362 59.1044 5.24471 59.5642 5.24471C60.0052 5.24471 60.397 5.31743 60.7395 5.46287C61.082 5.60831 61.3775 5.81709 61.6262 6.0892C61.8749 6.36132 62.0743 6.68504 62.2244 7.06038C62.3792 7.43571 62.4918 7.85326 62.5622 8.31304V10.192C62.5059 10.6237 62.4027 11.0201 62.2525 11.3814C62.1024 11.7379 61.903 12.0499 61.6544 12.3174C61.4057 12.5801 61.1054 12.7842 60.7536 12.9296C60.4064 13.0704 60.0052 13.1407 59.5501 13.1407C59.0951 13.1407 58.6869 13.0469 58.3256 12.8593C57.9644 12.6716 57.6571 12.4065 57.4037 12.064C57.1504 11.7168 56.9557 11.3063 56.8196 10.8325C56.6882 10.3586 56.6226 9.83783 56.6226 9.27014ZM57.4671 9.12235V9.27014C57.4671 9.71585 57.5116 10.1287 57.6008 10.5087C57.6899 10.8888 57.826 11.2195 58.0089 11.501C58.1919 11.7825 58.4242 12.003 58.7057 12.1625C58.9872 12.3221 59.3179 12.4018 59.6979 12.4018C60.1812 12.4018 60.587 12.3103 60.9154 12.1274C61.2438 11.9397 61.5042 11.6934 61.6966 11.3884C61.8889 11.0788 62.0297 10.741 62.1188 10.375V8.18637C62.0672 7.93771 61.9875 7.68436 61.8796 7.42632C61.7763 7.16828 61.6309 6.93135 61.4432 6.71554C61.2603 6.49503 61.0257 6.3191 60.7395 6.18773C60.458 6.05167 60.1155 5.98364 59.712 5.98364C59.3273 5.98364 58.9918 6.0634 58.7057 6.22292C58.4242 6.38243 58.1919 6.60529 58.0089 6.89148C57.826 7.17297 57.6899 7.50374 57.6008 7.88376C57.5116 8.26378 57.4671 8.67665 57.4671 9.12235Z" fill="white"/>
<ellipse cx="172.5" cy="32.186" rx="5" ry="3.97357" fill="#F15A24"/>
<path d="M180.25 32.186C180.25 35.5086 176.837 38.2937 172.5 38.2937C168.163 38.2937 164.75 35.5086 164.75 32.186C164.75 28.8633 168.163 26.0782 172.5 26.0782C176.837 26.0782 180.25 28.8633 180.25 32.186Z" stroke="#F15A24" stroke-width="0.5"/>
<path d="M172 32.1859L148 7.94714H76" stroke="#F15A24"/>
<ellipse cx="5" cy="3.97357" rx="5" ry="3.97357" transform="matrix(-1 0 0 1 560 121.194)" fill="#20A84E"/>
<path d="M547.25 125.168C547.25 128.49 550.663 131.275 555 131.275C559.337 131.275 562.75 128.49 562.75 125.168C562.75 121.845 559.337 119.06 555 119.06C550.663 119.06 547.25 121.845 547.25 125.168Z" stroke="#20A84E" stroke-width="0.5"/>
<path d="M555.5 125.167L579.5 100.929H651.5" stroke="#20A84E"/>
<circle cx="661" cy="103.071" r="1.875" fill="#20A84E"/>
<circle cx="661" cy="103.071" r="2.90625" stroke="#20A84E" stroke-width="0.1875"/>
<path d="M674.671 106.832V107.571H668.907V106.832H674.671ZM669.168 97.3245V107.571H668.302V97.3245H669.168ZM673.953 101.92V102.659H668.907V101.92H673.953ZM674.636 97.3245V98.0705H668.907V97.3245H674.636ZM676.641 99.9565L678.696 103.032L680.758 99.9565H681.758L679.175 103.686L681.863 107.571H680.878L678.703 104.355L676.536 107.571H675.551L678.239 103.686L675.656 99.9565H676.641ZM686.135 107.712C685.638 107.712 685.18 107.62 684.763 107.437C684.35 107.254 683.988 106.996 683.679 106.663C683.374 106.33 683.137 105.936 682.968 105.481C682.804 105.021 682.722 104.519 682.722 103.975V103.672C682.722 103.086 682.809 102.556 682.982 102.082C683.156 101.608 683.395 101.202 683.7 100.864C684.005 100.527 684.352 100.268 684.741 100.09C685.136 99.9072 685.548 99.8158 685.98 99.8158C686.463 99.8158 686.893 99.9025 687.268 100.076C687.643 100.245 687.958 100.487 688.211 100.801C688.469 101.111 688.664 101.479 688.795 101.906C688.926 102.328 688.992 102.795 688.992 103.306V103.82H683.228V103.102H688.155V103.004C688.145 102.577 688.058 102.178 687.894 101.807C687.735 101.432 687.495 101.127 687.176 100.892C686.857 100.658 686.459 100.541 685.98 100.541C685.623 100.541 685.295 100.616 684.995 100.766C684.699 100.916 684.444 101.132 684.228 101.413C684.017 101.69 683.852 102.021 683.735 102.406C683.623 102.786 683.566 103.208 683.566 103.672V103.975C683.566 104.397 683.627 104.791 683.749 105.157C683.876 105.518 684.054 105.837 684.284 106.114C684.519 106.391 684.795 106.607 685.114 106.762C685.433 106.917 685.785 106.994 686.17 106.994C686.62 106.994 687.019 106.912 687.366 106.748C687.714 106.579 688.026 106.314 688.302 105.952L688.83 106.361C688.666 106.605 688.46 106.83 688.211 107.036C687.967 107.243 687.674 107.407 687.331 107.529C686.989 107.651 686.59 107.712 686.135 107.712ZM693.461 106.987C693.817 106.987 694.151 106.921 694.46 106.79C694.775 106.654 695.033 106.454 695.234 106.192C695.441 105.924 695.558 105.598 695.586 105.213H696.388C696.365 105.697 696.217 106.128 695.945 106.508C695.678 106.884 695.326 107.179 694.889 107.395C694.458 107.606 693.982 107.712 693.461 107.712C692.931 107.712 692.462 107.616 692.053 107.423C691.65 107.231 691.312 106.963 691.04 106.621C690.768 106.274 690.561 105.87 690.421 105.411C690.285 104.946 690.217 104.446 690.217 103.912V103.616C690.217 103.081 690.285 102.584 690.421 102.124C690.561 101.66 690.768 101.256 691.04 100.914C691.312 100.566 691.65 100.297 692.053 100.104C692.457 99.9119 692.924 99.8158 693.454 99.8158C693.998 99.8158 694.486 99.926 694.918 100.147C695.354 100.367 695.701 100.679 695.959 101.082C696.222 101.486 696.365 101.965 696.388 102.518H695.586C695.563 102.11 695.455 101.758 695.262 101.463C695.07 101.167 694.817 100.939 694.502 100.78C694.188 100.62 693.839 100.541 693.454 100.541C693.022 100.541 692.654 100.625 692.349 100.794C692.044 100.958 691.795 101.186 691.603 101.477C691.415 101.763 691.277 102.091 691.188 102.462C691.099 102.828 691.054 103.213 691.054 103.616V103.912C691.054 104.32 691.096 104.709 691.181 105.08C691.27 105.446 691.408 105.772 691.596 106.058C691.788 106.344 692.037 106.572 692.342 106.741C692.652 106.905 693.025 106.987 693.461 106.987ZM702.961 105.812V99.9565H703.806V107.571H702.997L702.961 105.812ZM703.116 104.404L703.553 104.39C703.553 104.869 703.496 105.31 703.384 105.713C703.271 106.117 703.095 106.469 702.856 106.769C702.617 107.069 702.307 107.301 701.927 107.465C701.547 107.63 701.09 107.712 700.555 107.712C700.184 107.712 699.844 107.66 699.534 107.557C699.229 107.449 698.967 107.28 698.746 107.05C698.526 106.82 698.354 106.522 698.232 106.157C698.115 105.791 698.056 105.347 698.056 104.826V99.9565H698.894V104.841C698.894 105.249 698.938 105.589 699.028 105.861C699.121 106.133 699.248 106.351 699.408 106.515C699.572 106.68 699.759 106.797 699.971 106.867C700.182 106.938 700.409 106.973 700.653 106.973C701.272 106.973 701.76 106.853 702.117 106.614C702.478 106.375 702.734 106.06 702.884 105.671C703.039 105.277 703.116 104.855 703.116 104.404ZM708.887 99.9565V100.646H705.073V99.9565H708.887ZM706.473 98.0001H707.311V105.72C707.311 106.072 707.358 106.337 707.451 106.515C707.545 106.694 707.667 106.813 707.817 106.874C707.967 106.935 708.129 106.966 708.303 106.966C708.43 106.966 708.552 106.959 708.669 106.945C708.786 106.926 708.892 106.907 708.986 106.888L709.021 107.599C708.918 107.632 708.784 107.658 708.62 107.677C708.455 107.7 708.291 107.712 708.127 107.712C707.803 107.712 707.517 107.653 707.268 107.536C707.02 107.414 706.825 107.207 706.684 106.917C706.544 106.621 706.473 106.22 706.473 105.713V98.0001ZM711.589 99.9565V107.571H710.752V99.9565H711.589ZM710.604 97.7538C710.604 97.5943 710.653 97.4605 710.752 97.3526C710.855 97.24 710.996 97.1837 711.174 97.1837C711.352 97.1837 711.493 97.24 711.596 97.3526C711.704 97.4605 711.758 97.5943 711.758 97.7538C711.758 97.9086 711.704 98.0423 711.596 98.1549C711.493 98.2628 711.352 98.3168 711.174 98.3168C710.996 98.3168 710.855 98.2628 710.752 98.1549C710.653 98.0423 710.604 97.9086 710.604 97.7538ZM713.426 103.883V103.651C713.426 103.098 713.506 102.586 713.665 102.117C713.825 101.648 714.053 101.242 714.348 100.9C714.648 100.557 715.007 100.292 715.425 100.104C715.842 99.9119 716.307 99.8158 716.818 99.8158C717.334 99.8158 717.801 99.9119 718.219 100.104C718.636 100.292 718.995 100.557 719.295 100.9C719.596 101.242 719.826 101.648 719.985 102.117C720.145 102.586 720.224 103.098 720.224 103.651V103.883C720.224 104.437 720.145 104.948 719.985 105.418C719.826 105.882 719.596 106.286 719.295 106.628C719 106.971 718.643 107.238 718.226 107.43C717.808 107.618 717.344 107.712 716.832 107.712C716.316 107.712 715.849 107.618 715.432 107.43C715.014 107.238 714.655 106.971 714.355 106.628C714.055 106.286 713.825 105.882 713.665 105.418C713.506 104.948 713.426 104.437 713.426 103.883ZM714.264 103.651V103.883C714.264 104.301 714.32 104.697 714.433 105.073C714.545 105.443 714.709 105.774 714.925 106.065C715.141 106.351 715.408 106.576 715.727 106.741C716.046 106.905 716.415 106.987 716.832 106.987C717.245 106.987 717.609 106.905 717.923 106.741C718.242 106.576 718.51 106.351 718.725 106.065C718.941 105.774 719.103 105.443 719.211 105.073C719.324 104.697 719.38 104.301 719.38 103.883V103.651C719.38 103.238 719.324 102.847 719.211 102.476C719.103 102.105 718.939 101.775 718.718 101.484C718.503 101.193 718.235 100.963 717.916 100.794C717.597 100.625 717.231 100.541 716.818 100.541C716.405 100.541 716.039 100.625 715.72 100.794C715.406 100.963 715.139 101.193 714.918 101.484C714.702 101.775 714.538 102.105 714.426 102.476C714.318 102.847 714.264 103.238 714.264 103.651ZM722.807 101.582V107.571H721.97V99.9565H722.772L722.807 101.582ZM722.617 103.292L722.244 103.081C722.272 102.631 722.364 102.208 722.519 101.814C722.673 101.42 722.882 101.073 723.145 100.773C723.412 100.473 723.724 100.238 724.081 100.069C724.442 99.9002 724.841 99.8158 725.277 99.8158C725.657 99.8158 725.997 99.8674 726.298 99.9706C726.598 100.074 726.854 100.238 727.065 100.463C727.276 100.688 727.435 100.977 727.543 101.329C727.656 101.681 727.712 102.11 727.712 102.617V107.571H726.868V102.61C726.868 102.084 726.795 101.674 726.65 101.378C726.504 101.078 726.298 100.864 726.03 100.738C725.763 100.611 725.446 100.548 725.08 100.548C724.677 100.548 724.323 100.637 724.018 100.815C723.717 100.989 723.464 101.216 723.258 101.498C723.056 101.775 722.901 102.072 722.793 102.391C722.685 102.706 722.627 103.006 722.617 103.292Z" fill="white"/>
<defs>
<linearGradient id="paint0_linear_1546_2034" x1="337.127" y1="102.146" x2="854" y2="102.281" gradientUnits="userSpaceOnUse">
<stop stop-color="#161616"/>
<stop offset="1"/>
</linearGradient>
<linearGradient id="paint1_linear_1546_2034" x1="167.155" y1="48.182" x2="167.155" y2="568" gradientUnits="userSpaceOnUse">
<stop stop-color="#212121"/>
<stop offset="1"/>
</linearGradient>
<linearGradient id="paint2_linear_1546_2034" x1="117" y1="513.831" x2="337.677" y2="513.831" gradientUnits="userSpaceOnUse">
<stop stop-color="#212121"/>
<stop offset="1"/>
</linearGradient>
<linearGradient id="paint3_linear_1546_2034" x1="287.51" y1="178.144" x2="287.51" y2="567.997" gradientUnits="userSpaceOnUse">
<stop stop-color="#212121"/>
<stop offset="1"/>
</linearGradient>
<linearGradient id="paint4_linear_1546_2034" x1="237.3" y1="232.304" x2="598.457" y2="232.304" gradientUnits="userSpaceOnUse">
<stop stop-color="#212121"/>
<stop offset="1"/>
</linearGradient>
<linearGradient id="paint5_linear_1546_2034" x1="548.292" y1="178.148" x2="548.292" y2="416.389" gradientUnits="userSpaceOnUse">
<stop stop-color="#212121"/>
<stop offset="1"/>
</linearGradient>
<linearGradient id="paint6_linear_1546_2034" x1="357.767" y1="362.218" x2="598.434" y2="362.218" gradientUnits="userSpaceOnUse">
<stop stop-color="#212121"/>
<stop offset="1"/>
</linearGradient>
<linearGradient id="paint7_linear_1546_2034" x1="407.871" y1="308.091" x2="407.871" y2="568" gradientUnits="userSpaceOnUse">
<stop stop-color="#212121"/>
<stop offset="1"/>
</linearGradient>
</defs>
</svg>
