<svg width="73" height="45" viewBox="0 0 73 45" fill="none" xmlns="http://www.w3.org/2000/svg">
<g clip-path="url(#clip0_129_3405)">
<g clip-path="url(#clip1_129_3405)">
<g clip-path="url(#clip2_129_3405)">
<path d="M45.8205 17.844H43.5044V23.2938H48.9264V20.9499H45.8205V17.844ZM57.4882 17.8701V20.9577H54.3823V23.2938H59.8059V17.844H57.4632L57.4882 17.8701ZM43.5116 12.4209H45.8532L45.82 12.3954V9.30721H48.9259V6.97335H43.5049L43.5116 12.4209ZM54.3823 6.97335V9.30721H57.4882V12.4131H59.8059V6.96448L54.3823 6.97335Z" fill="white"/>
<path opacity="0.8" d="M54.0772 12.4208L50.9713 9.31489H54.3822V6.97327H48.933V9.30713L52.0406 12.413L54.0772 12.4208ZM51.2691 17.8445H49.2331L51.8137 20.4163L52.324 20.9504H48.9369V23.2937H54.3861V20.9321L52.8331 19.4046L51.2691 17.8445ZM57.4876 12.4202V15.8084L56.954 15.2727L54.3817 12.7025V14.7569L55.9091 16.2843L57.4626 17.8373H59.8053V12.4208L57.4876 12.4202ZM48.933 15.5034L45.8449 12.4158H43.5038V17.845H45.8199V14.459L48.9258 17.5649L48.933 15.5034Z" fill="white"/>
<path d="M16.9954 25.0519V29.3314H27.4745C27.7086 29.3314 31.0907 29.5383 33.3319 33.6475L33.541 33.5327L33.5577 33.5638C33.7934 33.4346 34.0097 33.3114 34.2132 33.2005C35.6863 32.3686 36.1295 32.1107 37.7917 32.1107H43.1749C43.3296 32.1107 46.9807 31.987 49.3257 36.2371L52.1376 34.6863C48.9402 28.8922 43.7506 28.8739 43.0545 28.9027H41.9198V27.8129C43.3238 27.4246 44.5395 26.5406 45.3416 25.3245C46.1437 24.1084 46.4777 22.6429 46.2818 21.1993C46.0859 19.7558 45.3734 18.4323 44.2762 17.4739C43.1791 16.5156 41.7717 15.9875 40.3149 15.9875C38.8582 15.9875 37.4508 16.5156 36.3537 17.4739C35.2565 18.4323 34.544 19.7558 34.3481 21.1993C34.1522 22.6429 34.4862 24.1084 35.2883 25.3245C36.0904 26.5406 37.3061 27.4246 38.7101 27.8129V28.9027H37.8017C37.0073 28.8892 36.2144 28.9734 35.4406 29.1534C31.9892 25.1085 27.7241 25.0503 27.515 25.0503H24.2594V23.5972C26.1395 23.2332 27.822 22.1949 28.9904 20.6776C30.1588 19.1602 30.7328 17.2683 30.6043 15.3576C30.4758 13.4468 29.6537 11.6488 28.2927 10.3016C26.9316 8.95432 25.1253 8.15066 23.2133 8.04167C21.3014 7.93268 19.4154 8.52587 17.9101 9.70972C16.4048 10.8936 15.3837 12.5865 15.0389 14.4703C14.6941 16.3541 15.0493 18.2989 16.0378 19.9392C17.0262 21.5795 18.5798 22.8022 20.4064 23.3775V25.047L16.9954 25.0519ZM37.4933 22.0043C37.4933 21.2589 37.7894 20.5441 38.3164 20.0171C38.8434 19.4901 39.5582 19.194 40.3036 19.194C41.0489 19.194 41.7637 19.4901 42.2907 20.0171C42.8178 20.5441 43.1139 21.2589 43.1139 22.0043C43.1139 22.7496 42.8178 23.4644 42.2907 23.9915C41.7637 24.5185 41.0489 24.8146 40.3036 24.8146C39.5582 24.8146 38.8434 24.5185 38.3164 23.9915C37.7894 23.4644 37.4933 22.7496 37.4933 22.0043ZM18.5123 15.8862C18.5118 15.0489 18.7596 14.2302 19.2244 13.5337C19.6893 12.8372 20.3502 12.2942 21.1237 11.9734C21.8972 11.6527 22.7484 11.5685 23.5698 11.7316C24.3911 11.8947 25.1456 12.2978 25.7378 12.8897C26.33 13.4817 26.7333 14.236 26.8967 15.0573C27.0602 15.8785 26.9764 16.7298 26.6559 17.5034C26.3354 18.277 25.7927 18.9382 25.0964 19.4033C24.4001 19.8684 23.5815 20.1166 22.7441 20.1163C21.6224 20.1153 20.5469 19.6694 19.7535 18.8763C18.9602 18.0833 18.5138 17.0079 18.5123 15.8862ZM72.8279 38.7784H0.171997V44.2825H72.8279V38.7784Z" fill="white"/>
<path d="M10.1802 4.21078H62.8197V36.8876H66.4885V0.541382H6.51135V36.8876H10.1802V4.21078Z" fill="white"/>
</g>
</g>
</g>
<defs>
<clipPath id="clip0_129_3405">
<rect width="72.6606" height="44.37" fill="white" transform="translate(0.169678 0.389893)"/>
</clipPath>
<clipPath id="clip1_129_3405">
<rect width="72.6606" height="44.37" fill="white" transform="translate(0.169678 0.389893)"/>
</clipPath>
<clipPath id="clip2_129_3405">
<rect width="72.6559" height="44.37" fill="white" transform="translate(0.171997 0.389893)"/>
</clipPath>
</defs>
</svg>
