<svg width="73" height="61" viewBox="0 0 73 61" fill="none" xmlns="http://www.w3.org/2000/svg">
<g clip-path="url(#clip0_129_3421)">
<g clip-path="url(#clip1_129_3421)">
<path d="M36.1837 48.5882H32.1552V14.2466H64.6193V40.1677H60.5907V18.2752H36.1837V48.5882Z" fill="white"/>
<path d="M10.0755 54.5384V10.818L32.2314 5.70633V9.21725H36.26V0.642456L6.04689 7.61587V54.5378H0.00402832V60.5807H72.5172V54.5384H10.0755Z" fill="white"/>
<path d="M26.1892 15.2601H16.1178V19.2887H26.1892V15.2601ZM26.1892 23.3167H16.1178V27.3453H26.1892V23.3167Z" fill="white"/>
<path d="M26.1892 23.3167H16.1178V27.3452H26.1892V23.3167ZM26.1892 31.3738H16.1178V35.4024H26.1892V31.3738ZM26.1892 39.431H16.1178V43.4595H26.1892V39.431Z" fill="white"/>
<path d="M56.4035 23.3167H40.2892V27.3452H56.4035V23.3167ZM56.4035 31.1722H40.2892V35.604H56.4035V31.1722ZM56.4035 39.2293H40.2892V43.6611H56.4035V39.2293Z" fill="white"/>
</g>
</g>
<defs>
<clipPath id="clip0_129_3421">
<rect width="72.6606" height="59.9382" fill="white" transform="translate(0 0.642456)"/>
</clipPath>
<clipPath id="clip1_129_3421">
<rect width="72.6524" height="59.9382" fill="white" transform="translate(0.00402832 0.642456)"/>
</clipPath>
</defs>
</svg>
