<svg width="54" height="48" viewBox="0 0 54 48" fill="none" xmlns="http://www.w3.org/2000/svg">
<mask id="mask0_302_1104" style="mask-type:luminance" maskUnits="userSpaceOnUse" x="0" y="0" width="54" height="47">
<path d="M0.710449 0H53.8147V46.7334H0.710449V0Z" fill="white"/>
</mask>
<g mask="url(#mask0_302_1104)">
<path d="M46.5637 10.9994L45.6047 10.0306C45.4353 9.85991 45.4353 9.51806 45.6047 9.34688L48.2559 6.66832L45.6614 3.98975C45.4915 3.81857 45.4915 3.47672 45.6614 3.30554L46.6198 2.33672C46.7892 2.16605 47.1276 2.16605 47.297 2.33672L51.5838 6.66832L47.297 10.9994C47.0709 11.2278 46.7892 11.2278 46.5637 10.9994ZM36.4647 10.9994L32.1785 6.66832L36.4652 2.33672C36.6347 2.16554 36.973 2.16554 37.1424 2.33672L38.1014 3.30554C38.2703 3.47672 38.2703 3.81857 38.1014 3.98924L35.4502 6.66832L38.1014 9.34688C38.2703 9.51755 38.2703 9.8594 38.1014 10.0306L37.1424 10.9994C36.9169 11.2273 36.6342 11.2273 36.4647 10.9994ZM40.5846 10.3724L39.4568 9.74545C39.2307 9.6315 39.1741 9.34688 39.2874 9.11847L42.5591 3.24831C42.6719 3.02042 42.9536 2.9637 43.1791 3.07765L44.3075 3.70462C44.4769 3.81857 44.5897 4.10319 44.4769 4.33108L41.2047 10.2012C41.0924 10.4297 40.8102 10.5436 40.5846 10.3724ZM4.70787 25.4755L2.7334 34.2522L8.2613 41.2623H17.1742L21.856 35.3349C23.2024 35.6772 24.5855 35.8495 25.9739 35.8479C29.5839 35.8479 32.9685 34.7647 35.789 32.8275L49.1015 46.2776C49.3837 46.6195 49.8349 46.7334 50.2294 46.7334C50.6244 46.7334 51.0194 46.5622 51.3577 46.2776C51.6559 45.9747 51.8232 45.5648 51.8232 45.1376C51.8232 44.7104 51.6559 44.3005 51.3577 43.9976L38.2708 30.8327C41.4864 27.6983 43.5736 23.3095 43.6864 18.4081C43.6864 18.1235 43.4608 17.9523 43.2353 17.9523H41.0352C40.753 17.9523 40.5836 18.1802 40.5836 18.4081C40.4708 21.543 39.3991 24.4495 37.5946 26.7862C36.9698 27.6448 36.2504 28.4287 35.4502 29.1229C32.9123 31.3457 29.5839 32.6564 25.9739 32.6564C24.6766 32.6564 23.4355 32.4852 22.251 32.1433L21.2354 27.6978L20.7277 25.5322L18.9793 24.6774L12.718 21.657L4.70787 25.4755ZM18.6971 34.2522L15.6509 38.0707H9.78413L6.11791 33.4545L7.41517 27.6983L10.2924 26.3304L12.7175 25.1332L13.5075 25.5322L15.087 26.2732L18.0204 27.6983L18.1331 28.2108L18.6971 30.6615L19.3176 33.454L18.6971 34.2522ZM11.1947 19.1496C11.3641 19.0923 11.4769 18.9212 11.4202 18.6933V17.8956C11.4202 9.91663 17.7381 3.41949 25.5227 3.19159C25.8044 3.19159 25.9739 2.9637 25.9739 2.7358V0.455796C25.9739 0.171179 25.7483 0 25.5227 0C15.9331 0.285128 8.2613 8.20637 8.2613 17.8956C8.2613 18.5793 8.31795 19.2063 8.37409 19.89C8.43073 20.1751 8.76908 20.403 8.99465 20.2323L11.1947 19.1491V19.1496Z" fill="black"/>
<path d="M31.3873 24.5067H28.0594V21.9416C30.9356 21.0872 32.9667 18.3514 32.9667 15.217C32.9667 11.3412 29.8639 8.15015 26.0283 8.15015C22.1926 8.15015 19.0337 11.2845 19.0337 15.217C19.03 16.7295 19.5118 18.2024 20.4068 19.4149C21.3018 20.6273 22.5618 21.5138 23.9977 21.9416V24.5067H20.6132C20.0487 24.5067 19.541 24.5634 18.9771 24.6206L20.726 25.4755L21.2337 27.641H31.3873C32.854 27.641 34.3207 28.1541 35.4485 29.0657C36.2485 28.3714 36.9678 27.5875 37.5924 26.7289C35.8996 25.3043 33.6434 24.5062 31.3868 24.5062L31.3873 24.5067ZM22.1926 15.217C22.1926 13.1082 23.8849 11.3412 26.0283 11.3412C28.1155 11.3412 29.8078 13.051 29.8078 15.2165C29.8078 15.718 29.71 16.2145 29.5201 16.6778C29.3302 17.1411 29.0518 17.5621 28.7008 17.9167C28.3498 18.2712 27.9332 18.5525 27.4746 18.7444C27.0161 18.9363 26.5246 19.0351 26.0283 19.0351C23.8849 19.0351 22.1926 17.3253 22.1926 15.2165V15.217Z" fill="black"/>
</g>
</svg>
