<svg width="73" height="63" viewBox="0 0 73 63" fill="none" xmlns="http://www.w3.org/2000/svg">
<g clip-path="url(#clip0_129_3393)">
<g clip-path="url(#clip1_129_3393)">
<path d="M72.2518 40.4313H45.1262V36.8211H68.6472V14.8238H19.9637V0.382324H72.2518V40.4313ZM23.574 11.213H68.6416V3.99255H23.574V11.213Z" fill="white"/>
<path d="M57.8718 9.4078C58.1114 9.41203 58.3496 9.36847 58.5723 9.27967C58.7949 9.19087 58.9977 9.0586 59.1687 8.89059C59.3397 8.72258 59.4755 8.52218 59.5683 8.30111C59.661 8.08003 59.7087 7.8427 59.7087 7.60296C59.7087 7.36323 59.661 7.1259 59.5683 6.90482C59.4755 6.68375 59.3397 6.48335 59.1687 6.31534C58.9977 6.14733 58.7949 6.01506 58.5723 5.92626C58.3496 5.83746 58.1114 5.7939 57.8718 5.79813C57.3986 5.80649 56.9477 6.00031 56.616 6.33787C56.2843 6.67544 56.0985 7.12974 56.0985 7.60296C56.0985 8.07619 56.2843 8.53049 56.616 8.86805C56.9477 9.20562 57.3986 9.39944 57.8718 9.4078ZM63.2877 9.4078C63.5274 9.41203 63.7655 9.36847 63.9882 9.27967C64.2108 9.19087 64.4136 9.0586 64.5846 8.89059C64.7556 8.72258 64.8914 8.52218 64.9842 8.30111C65.0769 8.08003 65.1246 7.8427 65.1246 7.60296C65.1246 7.36323 65.0769 7.1259 64.9842 6.90482C64.8914 6.68375 64.7556 6.48335 64.5846 6.31534C64.4136 6.14733 64.2108 6.01506 63.9882 5.92626C63.7655 5.83746 63.5274 5.7939 63.2877 5.79813C62.8145 5.80649 62.3636 6.00031 62.0319 6.33787C61.7002 6.67544 61.5144 7.12974 61.5144 7.60296C61.5144 8.07619 61.7002 8.53049 62.0319 8.86805C62.3636 9.20562 62.8145 9.39944 63.2877 9.4078Z" fill="white"/>
<path d="M39.2282 42.0833C39.401 38.6477 38.5001 35.2435 36.6505 32.3432L41.0659 28.644L37.9542 24.9286L33.4842 28.6727C31.0496 26.5567 28.0514 25.1954 24.8559 24.7553V18.4374H20.0089V24.8042C16.8427 25.2974 13.8868 26.696 11.4976 28.8314L6.84584 24.9359L3.73191 28.6508L8.38199 32.5446C6.7607 35.1683 5.90365 38.1923 5.90728 41.2764C5.90728 41.5522 5.90728 41.8178 5.92697 42.1014L0.107056 43.3325L1.1109 48.0743L6.86723 46.8561C8.0584 50.1814 10.2698 53.0452 13.1857 55.0387L10.8927 59.5808L15.2254 61.7646L17.5465 57.1674C20.8856 58.2208 24.4715 58.1973 27.7965 57.1004L30.1429 61.7578L34.4757 59.5735L32.1292 54.9217C34.9683 52.9301 37.1191 50.1061 38.2845 46.8398L44.0825 48.0676L45.0863 43.3252L39.2282 42.0833ZM24.8559 29.6783C26.6148 30.0218 28.2719 30.7628 29.7007 31.8446L24.8559 35.8988V29.6783ZM20.0089 29.7396V35.9635L15.2688 31.9926C16.6585 30.8916 18.2788 30.1184 20.0089 29.7306V29.7396ZM12.1526 35.7058L16.9923 39.76L10.7594 41.0795C10.7858 39.1996 11.2636 37.3535 12.1526 35.6968V35.7058ZM15.3914 50.6593C13.7539 49.4037 12.4717 47.7433 11.6709 45.8416L18.5594 44.3831L15.3914 50.6593ZM22.5776 53.1014C21.6288 53.1009 20.6834 52.9866 19.7619 52.761L22.6839 46.9664L25.5851 52.712C24.6033 52.9685 23.5923 53.0966 22.5776 53.093V53.1014ZM25.0421 42.9156L22.5849 44.0978L20.1282 42.9066L19.5216 40.2473L21.222 38.1152H23.9494L25.6487 40.2478L25.0416 42.915L25.0421 42.9156ZM29.9156 50.5367L26.8287 44.423L33.4865 45.8326C32.7101 47.6726 31.4826 49.2873 29.9173 50.5277L29.9156 50.5367ZM27.8866 39.6823L32.8889 35.4942C33.8465 37.1957 34.3645 39.1093 34.3958 41.0615L27.8866 39.6823Z" fill="white"/>
</g>
</g>
<defs>
<clipPath id="clip0_129_3393">
<rect width="72.6606" height="61.896" fill="white" transform="translate(0.0703125 0.382324)"/>
</clipPath>
<clipPath id="clip1_129_3393">
<rect width="72.5872" height="61.896" fill="white" transform="translate(0.107056 0.382324)"/>
</clipPath>
</defs>
</svg>
