<svg width="74" height="62" viewBox="0 0 74 62" fill="none" xmlns="http://www.w3.org/2000/svg">
<g clip-path="url(#clip0_129_3435)">
<g clip-path="url(#clip1_129_3435)">
<g clip-path="url(#clip2_129_3435)">
<mask id="mask0_129_3435" style="mask-type:luminance" maskUnits="userSpaceOnUse" x="1" y="0" width="71" height="62">
<path d="M71.7534 0H1.97974V61.6878H71.7534V0Z" fill="white"/>
</mask>
<g mask="url(#mask0_129_3435)">
<path d="M34.8829 1.84363V22.6636H40.8083V30.7959L57.1373 22.6636H69.9101V1.84363H34.8829Z" stroke="white" stroke-width="3.68724" stroke-miterlimit="10"/>
<path d="M59.3327 18.4342L57.2478 16.3344L61.1801 12.3706L57.2478 8.40865L59.3327 6.30688L65.3507 12.3706L59.3327 18.4342Z" fill="white"/>
<path d="M45.3602 18.25L39.3427 12.1864L45.3602 6.12268L47.4454 8.22439L43.5111 12.1864L47.4454 16.1501L45.3602 18.25Z" fill="white"/>
<path d="M55.0015 7.77454L47.9644 14.8651L50.0495 16.9668L57.0866 9.8763L55.0015 7.77454Z" fill="white"/>
<path d="M4.40747 58.6622C4.40747 58.6622 8.52428 51.1127 16.0739 51.1127H29.2927C29.2927 51.1127 36.8515 51.1127 40.9591 58.6622" stroke="white" stroke-width="5.53087" stroke-miterlimit="10"/>
<path d="M22.2857 43.3473C27.2127 43.3473 31.2069 39.3531 31.2069 34.426C31.2069 29.499 27.2127 25.5048 22.2857 25.5048C17.3586 25.5048 13.3644 29.499 13.3644 34.426C13.3644 39.3531 17.3586 43.3473 22.2857 43.3473Z" stroke="white" stroke-width="5.53087" stroke-miterlimit="10"/>
<path d="M22.285 42.1913V49.0532" stroke="white" stroke-width="5.09577" stroke-miterlimit="10"/>
<path d="M60.8221 60.7605C57.9884 55.5704 52.795 55.5704 52.795 55.5704H44.3457C42.1683 55.5702 40.0707 56.3895 38.4701 57.866" stroke="white" stroke-width="3.87161" stroke-miterlimit="10"/>
<path d="M47.976 50.224C51.3657 50.224 54.1134 47.4763 54.1134 44.0867C54.1134 40.6971 51.3657 37.9492 47.976 37.9492C44.5864 37.9492 41.8386 40.6971 41.8386 44.0867C41.8386 47.4763 44.5864 50.224 47.976 50.224Z" stroke="white" stroke-width="3.50473" stroke-miterlimit="10"/>
<path d="M47.9764 49.4292V54.1507" stroke="white" stroke-width="3.50473" stroke-miterlimit="10"/>
</g>
</g>
</g>
</g>
<defs>
<clipPath id="clip0_129_3435">
<rect width="72.6606" height="61.896" fill="white" transform="translate(0.535156)"/>
</clipPath>
<clipPath id="clip1_129_3435">
<rect width="72.6606" height="61.896" fill="white" transform="translate(0.535156)"/>
</clipPath>
<clipPath id="clip2_129_3435">
<rect width="70.3364" height="61.896" fill="white" transform="translate(1.69727)"/>
</clipPath>
</defs>
</svg>
