<svg width="66" height="120" viewBox="0 0 66 120" fill="none" xmlns="http://www.w3.org/2000/svg">
<path d="M32 119C32 119.552 32.4477 120 33 120C33.5523 120 34 119.552 34 119H32ZM32 56.5V119H34V56.5H32Z" fill="white"/>
<circle cx="33" cy="33.5" r="33" fill="white" fill-opacity="0.2"/>
<circle cx="33" cy="33.5" r="23" fill="white"/>
<path fill-rule="evenodd" clip-rule="evenodd" d="M33.0002 23.6225L27.4783 26.81L33.0002 30.0031L38.522 26.8138L33.0002 23.6225ZM41.3345 25.1862L33.0002 20.375L24.6658 25.1862L21.9845 23.6394C21.8245 23.5393 21.6459 23.4725 21.4594 23.443C21.273 23.4134 21.0825 23.4217 20.8993 23.4673C20.7162 23.513 20.5441 23.595 20.3933 23.7086C20.2425 23.8221 20.1161 23.9649 20.0217 24.1284C19.9272 24.2918 19.8666 24.4726 19.8436 24.6599C19.8205 24.8473 19.8354 25.0374 19.8873 25.2189C19.9392 25.4003 20.0272 25.5695 20.1459 25.7163C20.2646 25.863 20.4117 25.9844 20.5783 26.0731L23.2577 27.6219V37.25L31.5939 42.0631V45.2188C31.5939 45.5917 31.7421 45.9494 32.0058 46.2131C32.2695 46.4768 32.6272 46.625 33.0002 46.625C33.3731 46.625 33.7308 46.4768 33.9945 46.2131C34.2582 45.9494 34.4064 45.5917 34.4064 45.2188V42.0631L42.7427 37.25V27.6219L45.4239 26.0731C45.7375 25.8819 45.9639 25.5755 46.0546 25.2195C46.1452 24.8635 46.093 24.4862 45.909 24.1682C45.725 23.8503 45.4239 23.6169 45.0701 23.5181C44.7163 23.4192 44.3379 23.4628 44.0158 23.6394L41.3345 25.1862ZM39.9302 29.2456L34.4064 32.4369V38.8156L39.9302 35.6262V29.2456ZM26.0702 35.6262L31.5939 38.8137V32.4388L26.0702 29.2437V35.6262Z" fill="#1362F3"/>
</svg>
